<?xml version="1.0" encoding="UTF-8"?> <svg xmlns="http://www.w3.org/2000/svg" id="Layer_1" data-name="Layer 1" viewBox="0 0 456.74 357.99"><defs><style> .cls-1 { fill: #cfcb85; } .cls-2 { fill: #231f20; } .cls-3, .cls-4, .cls-5, .cls-6 { isolation: isolate; } .cls-4 { fill: #e8c8ba; } .cls-5 { fill: #f3dacb; } .cls-6 { fill: #fff; } </style></defs><rect class="cls-1" x="10.86" y="319.33" width="427.5" height="2.26"></rect><g><path class="cls-1" d="m449.6,274.84c4.02,0,7.14,3.12,7.14,7.02s-3.12,7.06-7.19,7.06-7.23-3.08-7.23-7.06,3.21-7.02,7.23-7.02h.04Zm-.08,1.42c-3.08,0-5.39,2.52-5.39,5.6s2.31,5.61,5.48,5.61c3.08.04,5.35-2.48,5.35-5.61s-2.27-5.6-5.4-5.6h-.04Zm-1.07,9.24h-1.62v-6.98c.64-.13,1.54-.26,2.7-.26,1.32,0,1.92.22,2.44.56.38.3.68.86.68,1.5,0,.82-.6,1.42-1.46,1.67v.08c.68.22,1.07.77,1.28,1.71.22,1.07.34,1.5.52,1.71h-1.76c-.21-.26-.34-.86-.56-1.67-.13-.77-.55-1.12-1.45-1.12h-.77v2.78Zm.04-3.94h.77c.9,0,1.62-.3,1.62-1.02,0-.64-.47-1.07-1.5-1.07-.43,0-.72.05-.9.09v2.01Z"></path><g><g><path class="cls-1" d="m119.93,120.96c0,48.38,56.97,87.73,126.98,87.73s126.98-39.35,126.98-87.73-56.96-87.73-126.98-87.73-126.98,39.35-126.98,87.73Zm2.33,0c0-47.09,55.92-85.4,124.65-85.4s124.65,38.32,124.65,85.4-55.92,85.4-124.65,85.4-124.65-38.31-124.65-85.4Z"></path><path class="cls-1" d="m158.11,120.96c0,48.67,39.84,88.27,88.81,88.27s88.8-39.6,88.8-88.27-39.84-88.26-88.8-88.26-88.81,39.59-88.81,88.26Zm2.33,0c0-47.38,38.8-85.94,86.48-85.94s86.47,38.55,86.47,85.94-38.79,85.94-86.47,85.94-86.48-38.55-86.48-85.94Z"></path><path class="cls-1" d="m193.59,120.96c0,48.38,23.92,87.73,53.32,87.73s53.32-39.35,53.32-87.73-23.92-87.73-53.32-87.73-53.32,39.35-53.32,87.73Zm2.33,0c0-47.09,22.88-85.4,50.99-85.4s50.98,38.32,50.98,85.4-22.87,85.4-50.98,85.4-50.99-38.31-50.99-85.4Z"></path><rect class="cls-1" x="245.75" y="33.85" width="2.33" height="174.2"></rect><path class="cls-1" d="m175.2,50.35c.76.63,19.2,15.31,71.17,15.31s72.42-14.13,73.26-14.73l-1.35-1.9c-.2.15-20.85,14.3-71.92,14.3s-69.51-14.64-69.69-14.79l-1.48,1.81Z"></path><path class="cls-1" d="m146.4,69.33c1.06.65,26.69,15.81,100.45,15.81s99.92-14.28,101-14.88l-1.15-2.03c-.26.15-26.88,14.58-99.86,14.58s-98.97-15.31-99.23-15.47l-1.22,1.99Z"></path><path class="cls-1" d="m131.32,86.14c1.15.77,28.96,18.85,115.53,18.85s116.79-12.78,118.04-13.33l-.93-2.14c-.31.13-31.28,13.14-117.11,13.14s-113.95-18.27-114.22-18.45l-1.3,1.93Z"></path><path class="cls-1" d="m175.23,191.04l1.34,1.91c.21-.15,20.85-14.31,71.92-14.31,47.63,0,67.89,12.68,70.05,14.13l1.3-1.94c-3.62-2.42-24.03-14.52-71.35-14.52-51.93,0-72.42,14.13-73.26,14.73Z"></path><path class="cls-1" d="m147.02,171.72l1.15,2.04c.26-.15,26.88-14.59,99.86-14.59s98.39,14.69,98.64,14.83l1.2-2c-1.03-.61-26.09-15.15-99.84-15.15s-99.93,14.28-101.01,14.87Z"></path><path class="cls-1" d="m129.99,150.31l.93,2.14c.31-.14,31.29-13.14,117.12-13.14s115.88,14.13,116.17,14.27l1.02-2.1c-1.21-.59-30.72-14.5-117.19-14.5s-116.79,12.78-118.04,13.32Z"></path><rect class="cls-1" x="121.14" y="119.79" width="251.59" height="2.34"></rect></g><g><path class="cls-5" d="m53.89,148.89s-1.54,9.02.8,15.75c1.57,7.05,2.51,11.27,2.51,12.06s2.5,14.25,1.88,15.97c-.62,1.73-.78,8.77-.47,9.24.31.47,1.57,2.67,1.88,3.13.32.47,0,15.51,1.1,20.21,1.1,4.69.47,11.74,1.1,13.47.62,1.72.31,3.44,6.88,10.18,0,0,2.66,7.05.31,10.33-1.72,3.3-2.35,4.23-3.44,4.23s-.47,3.13,1.25,3.13,4.7-2.2,5.64-3.44c.94-1.25,2.66-3.13,3.29-3.6.63-.47,1.88-7.51,1.25-10.18-1.25-1.72-2.03-2.35-.94-4.06,1.1-1.72,3.44-7.67,2.03-11.44-.15-2.67-3.76-1.41-4.06-.62-.32.77-4.39,2.97-4.86,0-.47-2.98,5.48-22.39,6.73-23.49,1.1-2.66.47-9.55.47-10.18s-3.13-8.29-6.57-10.18c-1.88-1.56,1.72-16.43,1.72-16.43,0,0,.49-.87.96-4.54,0,0,.91-6.27.45-8.93-.47-2.66.47-4.37,1.25-5.32.79-.94.94-7.36.79-8.92-.15-1.57-21.97.91-21.95,3.66Z"></path><path d="m71.21,144.21c-2.94.15-17.9,1.58-17.9,4.67,0-.01.01-.1.01-.1-.03.21-.51,3.08-.51,6.76,0,2.9.3,6.28,1.34,9.28,1.5,6.76,2.47,11.16,2.47,11.87l.45,3.06c.48,3.02,1.54,9.57,1.54,11.95,0,.36-.02.61-.07.77-.4,1.09-.67,4.54-.67,7.04,0,1.37.08,2.45.26,2.72l1.88,3.13c.02.21.05,2.42.09,4.56.09,4.92.2,12.36.92,15.45.61,2.6.68,5.99.74,8.71.04,2.23.07,3.98.38,4.82l.23.73c.45,1.59,1.08,3.78,6.71,9.56.11.31,1.21,3.39,1.21,6.27,0,1.28-.22,2.51-.86,3.41-1.71,3.26-2.26,3.99-2.97,3.99-.38,0-.71.18-.92.52l-.21.91c0,1.17.85,2.87,2.38,2.87,2.05,0,5.16-2.43,6.1-3.68.97-1.28,2.64-3.08,3.17-3.48,1.02-.77,2.06-8.34,1.48-10.79l-.03-.12-.48-.64c-.99-1.32-1.27-1.67-.51-2.86,1.06-1.66,3.63-7.83,2.09-11.95-.04-1-.7-1.78-1.79-1.96-1.27-.2-3.04.49-3.37,1.32-.2.33-1.85,1.32-2.93,1.12-.32-.07-.69-.23-.81-1-.43-2.73,5.33-21.71,6.55-22.97l.08-.08.07-.13c.99-2.4.66-7.77.54-9.78l-.03-.62c0-.75-3.16-8.66-6.88-10.69-.89-.75.32-8.8,2.01-15.78,0,.05.5-.93.98-4.61.03-.25.92-6.38.44-9.1-.43-2.38.38-3.96,1.13-4.85,1.03-1.24,1.02-8.25.91-9.36-.06-.64-.51-1.2-5.21-.95Zm-.81,115.27c2.46-3.43-.17-10.51-.28-10.81l-.05-.11-.08-.08c-5.51-5.65-6.09-7.68-6.51-9.16l-.25-.82c-.24-.66-.28-2.5-.32-4.45-.06-2.78-.12-6.23-.76-8.95-.69-2.98-.81-10.34-.89-15.21-.07-4.57-.11-4.92-.29-5.19l-1.88-3.12c-.19-.65-.05-7.14.53-8.72.43-1.17-.19-5.76-1.42-13.3l-.43-2.88c0-.8-.77-4.27-2.48-12.02l-.06-.22c-2.27-6.52-.79-15.38-.78-15.46v-.09s.13-.35,1.4-.86c4.91-1.99,17.75-3.24,19.39-2.53.03.36.05.79.05,1.34,0,2.48-.26,6.38-.7,6.92-.74.89-1.52,2.3-1.52,4.31,0,.47.04.96.14,1.49.09.51.13,1.17.13,1.9,0,2.87-.57,6.79-.57,6.84-.44,3.42-.9,4.34-.9,4.36-.68,2.74-2.3,9.88-2.3,14.09,0,1.5.2,2.63.72,3.06,3.21,1.76,6.25,8.96,6.37,9.77,0-.03.04.66.04.66.1,1.76.43,7.12-.46,9.27l.16-.22c-1.38,1.21-7.44,20.76-6.92,24.02.18,1.16.86,1.86,1.92,1.98,1.59.18,3.71-1.04,4.05-1.85.14-.23,1.36-.81,2.24-.57.3.08.66.26.7,1.01.3.8.42,1.71.42,2.66,0,3.31-1.51,7.09-2.36,8.41-.44.69-.62,1.25-.62,1.77,0,.87.53,1.57,1.18,2.43,0,0,.2.27.31.42.1.46.15,1.04.15,1.7,0,2.96-.84,7.28-1.25,7.84-.63.45-2.37,2.36-3.35,3.66-.9,1.21-3.74,3.22-5.17,3.22-.51,0-.82-.47-.97-.75-.3-.6-.27-1.16-.19-1.27,1.37.04,2.11-1.13,3.87-4.5Z"></path></g><g><path class="cls-5" d="m76.5,31.61v8.41s-2.32,3.5-2.62,3.88c-.87,1.14-.25,1.89.03,1.98.28.1,1.99.47,2.13.47s-.81-.12-.81-.12c0,0,0,1.88-.09,2.06-.66.57,1.14,2.05,1.66,2.09.52.06-1.49-.21-1.57,1.07,0,.65.72.77,1.24,1,0,0,.04,1.67,0,1.99-.05.33,1.94,2.13,7.1-.62l-1.61.76s-.85,4.89-1.08,5.31c-.24.43-6.4-.95-8.82,1.51,0,0-6.68-5.62-8.94-5.74-3.42-1.02-16.31,2.27-18.58,6.06,0,0,.13.26-.38.26s-2.9-1.18-13.03,2.38c-8.46,2.78-10.86,7.47-10.86,7.47,0,0-2.65,1.9-3.66,2.52-1.01.63-1.77,2.66-.63,5.43,1.13,2.78,2.15,4.05,2.15,4.05,0,0-.51,8.33,7.95,14.66,5.69,4.42,8.6,9.47,8.72,10.1.12.64,2.4,1.65,3.66.38,1.27-1.26.63,1.14.63,1.14,0,0,2.03,1.9,3.04,1.77,1-.13,2.78-.13,2.9-.63.12-.51-.12-1.01-.12-1.01l.25.5s2.53.76,2.53.38.13-1.64.13-1.64l2.4-.13-.13-7.07s-.64-3.41-2.27-2.91c-3.16-.25-7.21,2.02-8.47,3.29,0,0-1.39-1.27-1.27-1.9.13-.63-2.53-4.42-3.41-12.51-.5-6.44-5.94-9.09-5.94-9.09,0,0,1.9-1.27,2.91-1.01,1.01.25,7.32,1.64,11.88-2.28,5.55-2.15,6.83-2.15,7.2-2.15s4.04-4.55,4.92-4.55,6.07.25,7.07,3.16c.76,1.77-1.77,2.14-1.77,2.14,0,0-1.39-.13-2.65-.5-2.15-.63-6.57,1.64-6.57,3.28,0,0-1.01,5.94.12,7.83.63,1.9,3.04,4.55,3.04,4.55,0,0,.12,3.16-.25,3.54-.38.38-7.33,6.19-2.53,25.52.12,2.66.89,3.03.89,3.03l.51,4.42s-.51,1.77-3.15,1.77-19.72-.76-40.69,23.5c-3.16,2.78-4.27,3.68-5.6,4.54-.88.56-3.13,1.9-3.32,3.71-.18,1.76-1.44,6.53,8.16,10.58,3.92,1.78,4.81,2.65,5.18,2.91.38.26,20.23,10.62,53.96,14.79,3.28,2.28,4.67,3.52,4.67,3.52,0,0,9.73.77,10.23.77s3.92,2.28,7.58.88c3.66-1.39,7.84-1.89,8.97-1.13,1.77.89,4.3.25,4.3.25v-2.27s-2.4-3.79-5.05-3.79c-1.01,0-8.85-.5-11.25-.12-3.54-1.27-4.8-4.8-5.3-5.43-.51-.63-4.42-5.19-9.23-2.15-1.26,1.52-.13,4.3-.13,4.3,0,0-17.18-5.69-18.07-7.08-.88-1.39-1.51-3.53-1.51-3.53,0,0-1.51-1.64-2.78-2.27-1.27-.63-8.47-5.3-9.23-5.94-.75-.63-10.23-4.8-22.74-.12,4.67-5.69,10.74-7.33,11.5-7.33s6.44.38,8.09-.26c3.91-.89,15.29-7.33,17.94-8.09,2.66-.75,11.88-1.89,13.52-1.51,1.65.38,13.9-.38,13.27-15.54-.5-5.06-5.81-12.63-7.7-14.4-1.9-1.77-5.94-6.44-5.82-7.08.12-.63.12-2.27.38-3.03.25-.76,5.18-6.95,4.93-9.73,3.53-1.39,7.33-3.41,7.33-3.41,0,0,19.46-3.04,25.52-14.91,8.33-2.27,14.4-6.44,14.4-6.44,0,0,10.1-1.9,16.05-7.96,3.29-3.79,7.2-4.3,7.2-4.3,0,0,.88-2.9,2.15-4.8.63-1.89,3.04-4.29,4.17-5.81,3.92-4.93,2.41-18.19,2.27-22.36-.12-4.17.51-12.38,3.54-14.4,3.03-2.02,10.11-4.55,10.36-10.36-.38-2.66-2.27-1.01-2.27-1.01,0,0-7.83,8.08-14.15,8.34-4.54-.13-7.58-1.26-7.58-1.26,0,0-2.02-.12-1.14,1.51,1.89.77,4.18,1.78,4.93,3.17.76,1.39,2.14,1.64,2.14,1.64,0,0-5.56,14.28-6.18,15.03-.64.76-5.94,10.87-5.69,20.47-2.14,1.39-3.54,1.64-4.67,1.77,0,0-8.97.13-17.06,9.98-3.28-1.89-7.2-1-8.08-1-1.9-.13-3.91,1.64-4.93,2.02,0,0-4.93.63-5.56-.64-.64-1.26-2.15-8.59.25-14.78,2.39-6.19-17.58-29.42-21.11-15.72Z"></path><path d="m164.94.64c-.11.12-7.78,7.95-13.79,8.2-4.34-.13-7.32-1.22-7.35-1.23-.38-.05-1.48-.08-1.95.67-.1.15-.19.38-.19.66s.08.61.3,1.01l.1.18.19.08c1.27.51,3.91,1.57,4.64,2.9.55,1,1.34,1.47,1.9,1.71-2.12,5.42-5.42,13.68-5.89,14.33-.85,1.02-5.82,10.81-5.82,20.17,0,.11,0,.22,0,.33-1.87,1.16-3.08,1.4-4.16,1.53-.31,0-9.06.27-17.15,9.88-2.77-1.38-5.79-1.13-7.28-.96l-.64.05c-1.47-.1-2.97.81-4.08,1.47l-1.06.58c-2.23.27-4.59.12-4.83-.35-.51-1.01-2.1-8.2.27-14.31,1.19-3.07-2.3-9.11-6.06-13.42-1.72-1.97-7.68-8.33-12.36-7.22-1.86.44-3.13,1.98-3.81,4.57v.07s-.01,7.97-.01,8.3c-.18.27-2.5,3.72-2.5,3.72-.43.56-.57,1.06-.57,1.46,0,.2.03.37.09.51.13.44.44.79.8.91.1.04.49.14.91.23-.02.52-.05,1.46-.05,1.46l.17-.26c-.23.2-.35.46-.35.75,0,.13.02.25.06.39.13.41.51.85.93,1.22-.44.28-.73.68-.76,1.22h0c0,.92.75,1.24,1.24,1.43,0,.48,0,1.52,0,1.52,0,.03,0,.06,0,.1,0,.3.2.61.58.86.44.31,1.92.99,4.76.11-.32,1.75-.63,3.38-.8,3.95-.28,0-1-.02-1-.02-2.05-.11-5.35-.23-7.33,1.31-1.43-1.19-6.76-5.48-8.96-5.6-3.55-1.07-16.61,2.36-19.06,6.3-.03-.01-.08-.01-.08-.01-.97-.19-3.97-.75-13.05,2.45-8.04,2.64-10.72,6.91-11.11,7.62-.19.13-3.54,2.44-3.54,2.44-.86.53-1.47,1.72-1.47,3.27,0,.86.19,1.83.61,2.87.97,2.37,1.81,3.62,2.1,4.01v.14c0,1.71.47,9.03,8.19,14.8,5.4,4.2,8.32,9.08,8.5,9.76.12.63.95,1.08,1.6,1.28,1.03.31,2.02.13,2.75-.42-.03.18-.09.68-.09.68l.2.28c.53.49,2.32,2.07,3.51,1.92l.74-.07c1.28-.1,2.37-.21,2.62-.94,1.88.51,2.28.33,2.44.2l.22-.15.05-.37s.05-.62.09-1.09c.55-.03,1.37-.08,1.66-.09.22,2.61.69,5.55,1.52,8.9.09,1.97.55,2.81.9,3.17.04.38.44,3.78.46,4.05-.09.23-.59,1.28-2.55,1.28h-.24c-13.08-.08-27.61,8.33-40.89,23.7-3.08,2.71-4.18,3.59-5.48,4.43,0,0-.18.11-.18.11-1.04.66-3.2,2.05-3.41,4.02l-.04.33c-.05.4-.11.91-.11,1.5,0,2.42,1.09,6.15,8.68,9.34,3.29,1.49,4.39,2.33,4.85,2.69l.23.17c.14.1,19.62,10.58,54.06,14.85,3.12,2.16,4.49,3.4,4.5,3.41l.15.13h.19c1,.1,9.77.78,10.28.78-.06,0,.46.2.46.2,1.27.54,4.23,1.82,7.33.64,3.61-1.37,7.57-1.77,8.44-1.19,2,1,4.64.36,4.76.33l.44-.12v-2.89l-.09-.15c-.1-.16-2.6-4.06-5.54-4.06l-1.65-.06c-2.65-.12-7.47-.34-9.49-.07-2.58-.98-3.84-3.25-4.51-4.47l-.45-.73c-.47-.59-4.74-5.6-9.98-2.28-.65.76-.83,1.68-.83,2.53,0,.5.07.96.16,1.36-7.88-2.63-16.06-5.69-16.72-6.5-.82-1.28-1.43-3.35-1.44-3.37l-.04-.13-.09-.1c-.07-.07-1.6-1.73-2.95-2.4-1.22-.61-8.35-5.23-9.12-5.86-.86-.73-9.49-4.49-21.18-.91,4.27-4.25,9.01-5.51,9.57-5.51l.77.03c2.99.12,6.23.18,7.52-.32,2.25-.51,7.02-2.88,11.22-4.97,2.89-1.44,5.61-2.8,6.67-3.1,2.57-.73,11.72-1.86,13.23-1.51,1.12.26,5.58.05,9.17-2.92,3.21-2.67,4.84-6.72,4.84-12.06,0-.38-.01-.76-.02-1.15-.54-5.39-6.08-13.11-7.9-14.8-1.97-1.84-5.44-5.95-5.64-6.67.01-.02.12-1.01.12-1.01l.24-1.82s.89-1.37.89-1.37c1.93-2.85,3.93-6.02,4.05-8.14,3.31-1.33,6.7-3.11,6.95-3.25,1.39-.22,19.58-3.38,25.72-14.98,7.87-2.19,13.71-6.02,14.25-6.38.88-.17,10.4-2.13,16.24-8.11,3.1-3.58,6.82-4.12,6.86-4.12l.37-.05.11-.36s.88-2.84,2.08-4.65c.49-1.4,1.86-3.01,2.95-4.31l1.21-1.47c2.25-2.84,2.78-8.23,2.78-13.2,0-2.68-.15-5.23-.27-7.2l-.12-2.33c-.01-.34-.02-.7-.02-1.07,0-4.63.84-11.19,3.3-12.84l2.14-1.26c3.49-1.93,8.26-4.57,8.48-9.56-.15-1.15-.55-1.8-1.18-2.03-.97-.36-1.95.46-2.06.55Zm.8.85c.19-.17.63-.4.85-.31.07.03.31.18.43,1-.19,4.23-4.63,6.7-7.87,8.49l-2.23,1.3c-3.53,2.35-3.81,11.25-3.81,14.07,0,.47.01.77.01.84l.12,2.36c.12,1.96.27,4.52.27,7.19,0,4.76-.48,9.84-2.53,12.43-.02.01-1.17,1.43-1.17,1.43-1.23,1.45-2.61,3.09-3.11,4.57-1.04,1.53-1.8,3.74-2.05,4.48-.9.17-4.2.97-7.19,4.42-5.71,5.83-15.61,7.75-15.72,7.77l-.12.03-.1.07c-.05.03-6.09,4.14-14.23,6.36l-.25.07-.12.23c-5.86,11.47-24.9,14.57-25.09,14.6h-.1s-.09.06-.09.06c-.04.02-3.81,2.02-7.27,3.38l-.41.16.04.43c0,.06,0,.11,0,.17,0,1.93-2.6,5.79-3.88,7.67l-1.03,1.65s-.3,2.1-.3,2.1l-.1,1s-.02.06-.02.09c0,1.44,5.5,7.06,6,7.52,1.68,1.57,7.03,9.05,7.52,14.04.02.36.03.72.03,1.08,0,4.96-1.49,8.72-4.42,11.15-3.27,2.72-7.31,2.88-8.16,2.68-1.8-.42-11.22.78-13.81,1.53-1.17.33-3.81,1.64-6.87,3.18-4.15,2.06-8.84,4.41-11.04,4.9-1.32.5-5.55.33-7.14.26l-.81-.03c-.72,0-6.99,1.51-11.95,7.55l-1.38,1.68,2.03-.76c11.95-4.47,21.34-.65,22.17.03.82.68,8.04,5.36,9.34,6,1.05.53,2.29,1.83,2.52,2.07.12.38.7,2.22,1.54,3.53.92,1.46,14.3,5.97,18.38,7.32l1.2.4-.48-1.17c-.28-.68-.81-2.68.03-3.71,4.17-2.59,7.67,1.33,8.32,2.15l.33.56c.7,1.29,2.16,3.96,5.23,5.06l.14.04.15-.02c1.79-.29,6.78-.05,9.46.07l1.7.07c1.85,0,3.78,2.36,4.47,3.39v1.61c-.72.12-2.27.29-3.45-.3-1.43-.97-6.03-.18-9.44,1.11-2.66,1.01-5.22-.09-6.45-.62l-.93-.3c-.37,0-6.1-.44-10-.74-.36-.31-1.72-1.46-4.58-3.44l-.12-.09-.14-.02c-33.68-4.15-53.54-14.59-53.71-14.69l-.16-.11c-.5-.38-1.68-1.29-5.1-2.84-6.96-2.93-7.97-6.13-7.97-8.28,0-.52.06-.97.11-1.35l.04-.36c.15-1.41,1.99-2.59,2.88-3.16l.18-.12c1.37-.88,2.48-1.77,5.67-4.59,13.12-15.16,27.33-23.44,40.06-23.35h.24c3.06,0,3.69-2.1,3.72-2.19l.02-.11-.54-4.77-.24-.18s-.52-.46-.62-2.57c-4.26-17.2.68-23.5,2.3-25.02.21-.21.61-.62.48-4.03v-.21s-.15-.16-.15-.16c-.03-.03-2.33-2.59-2.91-4.34-.9-1.52-.38-5.96-.11-7.56.01-.33.28-.81,1.04-1.38,1.49-1.11,3.68-1.77,4.79-1.44l2.77.52c.31-.03,1.77-.27,2.34-1.28.19-.34.35-.92.02-1.68-1.21-3.47-7.35-3.52-7.61-3.52-.67,0-1.56.83-3.74,3.16,0,0-1.27,1.3-1.37,1.39-.59.01-2.17.22-7.23,2.19l-.1.03-.07.07c-4.27,3.67-10.21,2.44-11.36,2.15-1.2-.3-3.02.86-3.37,1.09l-.85.56.91.45c.05.02,5.15,2.6,5.61,8.62.64,5.91,2.24,9.61,3.01,11.38l.4,1.05c-.16.75.84,1.81,1.45,2.36l.41.38.39-.39c1.18-1.18,5.07-3.35,8.01-3.12l.22-.03.39.05c.57.34,1.01,1.66,1.15,2.41v.02c0,.33.08,4.84.11,6.4-.66.03-2.35.13-2.35.13,0,0-.09,1.17-.13,1.67-.38-.05-.97-.18-1.58-.36-.07-.14-.13-.27-.13-.27l-1.04.52.08.62c-.12,0-1.1.08-1.62.11l-.8.08c-.41.06-1.48-.68-2.34-1.44.05-.27.12-.58.12-.77,0-.72-.31-.9-.44-.98-.58-.33-1.16.25-1.36.44-.43.44-1.02.47-1.44.41-.7-.08-1.19-.43-1.25-.54-.12-.65-3.03-5.82-8.92-10.4-8.1-6.05-7.74-14.08-7.74-14.16l.02-.22-.14-.17s-.98-1.25-2.06-3.9c-1.01-2.46-.38-4.23.4-4.72,0,0,3.82-2.63,3.82-2.63l.06-.13s2.43-4.52,10.53-7.19c5.84-2.06,10.03-2.86,12.46-2.4l.38.05c.41,0,.7-.13.87-.39,2.09-3.62,14.71-6.9,17.91-5.95,1.65.1,6.22,3.51,8.75,5.63l.41.35.37-.38c1.53-1.56,5.02-1.38,6.88-1.29,1.33.07,1.78.09,2.03-.35.23-.43.77-3.31,1.1-5.19.38-.17,1.34-.63,1.34-.63h0s.02,0,.03-.01l-.52-1.04-.04.02c-4.06,2.16-5.94,1.33-6.25.97,0-.38.01-2.24.01-2.24l-.34-.13-.35-.14c-.43-.17-.55-.24-.55-.33.02-.45.82-.48,1.06-.48v-1.17c-.35-.08-1.25-.89-1.29-1.21.12-.14.21-.38.23-1.7.02,0,.04,0,.05,0,.06,0,.16.03.18.03h.55l.05-.55v-.07c0-.31-.22-.43-.56-.52v-.02s-1.97-.44-1.98-.45h0s-.09-.22-.09-.22c0-.02-.01-.06-.01-.09,0-.22.11-.48.33-.76,0-.01,2.73-4.06,2.73-4.06v-8.48c.55-2.11,1.53-3.36,2.92-3.69,2.64-.63,7.05,2.06,11.21,6.84,4.18,4.8,6.69,10.07,5.85,12.25-2.41,6.21-1.01,13.72-.23,15.25.73,1.48,4.54,1.16,6.15.96.13-.03,1.38-.7,1.38-.7,1.02-.62,2.29-1.39,3.43-1.31.04,0,.8-.07.8-.07,1.45-.15,4.47-.48,7.03.99l.43.25.32-.38c7.8-9.5,16.53-9.77,16.62-9.77,1.26-.14,2.74-.4,4.98-1.86l.27-.18v-.32c-.01-.22-.02-.44-.02-.65,0-9.31,5.12-18.9,5.57-19.43.64-.77,4.97-11.83,6.29-15.2l.25-.65-.69-.14s-1.13-.24-1.74-1.35c-.78-1.44-2.84-2.45-4.98-3.32-.05-.11-.1-.24-.1-.29,0-.03,0-.04,0-.05.06-.09.44-.18.73-.16-.04.01,3.01,1.14,7.6,1.27,6.51-.26,14.26-8.18,14.59-8.51ZM50.73,74.32c.37,0,.6-.22,2.04-1.76.87-.93,2.48-2.66,2.95-2.8,1.49,0,5.67.5,6.46,2.78.09.18.11.32.11.44s-.03.19-.06.24c-.24.43-1.08.65-1.35.69,0-.03-2.41-.48-2.41-.48-1.64-.48-4.25.45-5.82,1.62-.68.52-1.49,1.31-1.49,2.22-.06.33-.42,2.51-.42,4.63,0,1.37.15,2.71.63,3.51.56,1.72,2.54,4.01,2.95,4.47.01.29.02.58.02.86,0,.98-.05,1.88-.16,2.11-.94.87-2.93,3.28-3.85,8.14-.26-.75-.67-1.6-1.35-2.01l-1.35-.17.23-.02c-3.11-.24-6.79,1.69-8.45,3.08-.39-.42-.73-.85-.75-1.02.01-.05.02-.1.02-.15,0-.3-.17-.69-.51-1.48-.74-1.72-2.29-5.31-2.92-11.03-.4-5.12-3.71-7.92-5.34-9.01.61-.31,1.25-.55,1.6-.47,1.23.3,7.58,1.61,12.27-2.32,2.48-.96,5.68-2.09,6.95-2.09Z"></path></g><g><path class="cls-5" d="m163.14,124.65s-.27,5.96-.36,6.5c-.09.54-2.26,1.72-2.08,2.53.18.82.83,3.43,1.09,3.79.28.37.18,1.17-.09,1.36-.27.17-1,.08-1.35.36-.37.27-.72,1.62-.45,1.99.26.36-1.54-.18-1.26,0,.26.18-.64-.36-1-.18,1.17.55.81,1.27.9,1.54,0,0-.28.72-.54.72s-.81.09-.99.54c-.18.45-.54,1.18-.46,1.45.1.27-1.17.99-2.43.54-1.27-.46-2.71-.82-3.16-.46-.45.36-.28,3.61-.28,3.61,0,0,8.13,3.7,9.3,6.22,2.8-3.07,4.33-3.69,5.41-3.79,1.08-.09,7.32-.77,10.42.43,4.14,1.37,5.55,5.97,5.74,8.59,0,0,1.89-3.16,3.97-3.61,2.34-.36,4.33-.09,6.14,1.63,1.8,1.71,3.88,4.87,4.14,5.41,0,0-1.26-4.88-.36-7.31.27-2.16,4.06-6.77,6.32-7.58,0,0,.09-5.23-2.35-6.96-.54.91-2.07,1.36-2.61,1.36s-7.76,2.89-10.92-.18c-.72-.63.09-2.26.09-2.26,0,0-3.07.99-3.07-.9s-1.18-10.11,4.33-11.38c5.51-1.27,15.62,1.18,19.04,5.05,3.43,3.88,5.15,8.66,5.78,10.65.63,1.99,1.35,3.25,1.35,3.25,0,0-.36,6.4.27,7.49.63,1.07.72,1.36.82,1.81.08.45.36,13.17-.82,15.25-1.17,2.07-2.17,2.61-2.53,3.43-.45.36-1.53,1.44-1.71,3.15-.19,1.72-.81,4.78-1.71,4.96-.54.54-3.16,1.9-6.33-.72-1.25-.71-2.07.1-2.25.45-.17.36-.89,2.35-4.68,2.43-3.26.45-14.08,1.72-16.44-.81,0,0-5.85-4.06-5.85-4.6s1.17,1.35,1.35,1.8c.18.45-.63,2.26-1.8,2.53-1.17.27-11.56,4.33-13.99,4.42-2.44.09-6.23-1.8-6.23-2.34s.18,1.71-2.08,2.08c-2.26.36-5.41.71-5.87,1.53-.45.81-.27,4.07-.81,4.69-.54.64-.54,2.08-.17,2.53.36.45.54,1.98.54,2.43,0,0,2.07.99,2.61.99s.82.54,1.18,1.27c.36.72,1.72,2.62,4.43.19,2.7-2.45,8.39-5.6,16.33-5.33.54.09,2.98-1.35,2.98-1.35,0,0,16.52-3.61,28.88,6.23,3.15,2.7,5.96,3.69,6.31,3.6.36-.08,2.35,1.18,2.71,2.08.36.91.27,2.62.36,3.16.1.54,3.07,1.71,4.79,2.7,1.71,1,1.62,3.43,1.44,3.97-.18.55-.9,5.33-5.87,8.48-4.24,2.62-4.87,5.69-4.78,6.14.09.45-1.27,3.62-3.7,5.33-2.44,1.71-3.43,4.96-3.35,5.23.1.27-2.15,5.05-11.09,8.75-1.8,2.98-9.47,12.19-10.28,12.28-.81.08-1.72,2.61-.28,3.07,1.45.46,3.71.54,4.15.9.45.36,4.33,3.07,5.87,4.69,2.44,1.27,9.3,1.54,10.39,1.54s1.61,2.61.72,3.16c0,0-5.33,2.08-6.41,1.89-1.08-.17-12,.37-13.91-.9,0,0-4.86-3.25-7.12-2.43-2.25.81-4.15,1.99-4.96,1.99s-9.75.36-9.84-.09c-.1-.45-1.17-7.22.98-10.02,2.18-2.79,11.93-6.85,14.63-21.03-.15-1.25-1.62-3.25-1.44-4.6.17-1.35,6.67-13.72,14.16-17.77,2.25-.27,11.55-2.53,11.82-2.89.27-.37-9.75-.72-13.81,2.34-4.06,3.07-27.26,1.18-27.7.36-.46-.81-34.57-23.64-34.57-23.64,0,0-2.61-4.6-2.52-11.1.27-4.06-1.8-5.68-2.8-6.86-.99-1.18-8.46-9.26-8.75-10.02-1.29-3.34-.81-15.7-.27-16.42.54-.73,1.08-1.36.18-2.27-.9-.89-6.04-3.97-5.14-15.52.63-2.53,2.53-4.06,2.89-4.33.36-.27-.09-2.98-1.36-3.7-1.26-.72-1.38-2.34-1.38-5.27.51-2.76,1.07-5.76,3.38-7.27,1.8-1.18,1.56-2.86,1.11-3.77-.45-.9-1.93-3.63.06-8.32,1.99-4.69,14.72-20.3,15.35-20.49.64-.18,3.16-.36,3.79.45.63.81,3.61-.09,4.24-.63.63-.54,18.95-1.53,20.67-.9,1.72.62,5.15,2.8,5.96,3.15,1.35.73,6.58.9,7.04.9.44,0,10.64,11.19,11.27,12.01.63.81,1.71,2.97,0,4.78-1.73,1.81-6.41,8.04-12.19,6.31-1.26-1.71-1.62-3.88-1.62-3.88,0,0,.26-.45-3.89-.99-2.52-.36-2.34-3.34-2.26-3.79.09-.45,1.44-4.69,1.44-5.6s-1.44-1.44-2.71-.63c-1.25.82-6.4,7.04-9.47,7.67-3.07.63-8.48,1.17-9.03.73-.54-.45-3.15-2.08-3.15-2.08,0,0,6.77,2.71,4.06,8.4-2.71,5.69-5.42,7.74-5.42,7.74,0,0,3.19-.69,3.64,3.64.32,1.09.19,2.24.23,4.98-.33,1.77-1.26,2.8-1.33,3.13-1.36,2.35-1.44,3.16-1,3.24.45.09,2.52.72,3.16.46.64-.27,1.72-2.44,4.78-3.52,3.07-1.09,20.76-10.38,25.46-5.96Z"></path><path d="m127.11,84.41c-.57.49-3.05,1.08-3.4.71-.9-1.16-3.85-.81-4.41-.65-1.03.29-13.87,16.45-15.72,20.81-.79,1.87-1.05,3.45-1.05,4.75,0,2.08.68,3.42.98,4.01.11.22.29.66.29,1.16,0,.6-.25,1.31-1.17,1.92-2.51,1.64-3.11,4.83-3.63,7.64v.39c0,2.89.17,4.65,1.66,5.5.78.45,1.2,2.05,1.2,2.7,0,.06-.01.09-.01.14-.54.42-2.35,2-2.99,4.56-.07.95-.11,1.84-.11,2.69,0,8.78,3.76,11.98,5.07,13.09l.32.3c.21.21.32.37.32.53,0,.23-.17.47-.48.88-.45.59-.74,4.28-.74,8.14,0,3.59.25,7.33.87,8.93.19.48,1.77,2.31,6.74,7.81l2.56,2.86c.96,1.04,2.24,2.44,2.24,5.27,0,.22,0,.44-.02.67v.35c0,6.43,2.5,10.89,2.6,11.09l.07.12.12.07c13.35,8.94,33.53,22.58,34.43,23.52-.05-.09,1.09.47,1.09.47,3.43.73,23.43,2.28,27.42-.73,2.43-1.84,7.15-2.36,10.25-2.43-2.92.76-7.19,1.75-8.68,1.93h-.11s-.1.07-.1.07c-7.73,4.19-14.28,16.81-14.47,18.21,0,.1-.02.21-.02.33,0,.86.43,1.82.85,2.74l.62,1.69c-2.03,10.5-8.19,15.35-11.87,18.25-1.17.91-2.09,1.64-2.64,2.35-1.16,1.5-1.46,3.97-1.46,6.13,0,2.33.36,4.31.36,4.35.13.64.17.86,9.25.6l1.15-.03c.58,0,1.39-.38,2.51-.89l2.66-1.14c1.61-.58,5.31,1.52,6.6,2.37,1.41.94,6.24.99,11.49.97l2.63.02c1.16.2,5.44-1.42,6.72-1.92.59-.35.82-1.01.82-1.69,0-.32-.05-.65-.14-.96-.28-1-.9-1.62-1.61-1.62-1.6,0-7.87-.36-10.07-1.46-1.3-1.35-3.93-3.26-5.21-4.2l-.61-.45c-.33-.28-.96-.38-2.13-.56l-2.21-.45c-.1-.03-.33-.1-.35-.56v-.07c0-.61.37-1.23.54-1.3,1.27-.14,9.04-9.95,10.58-12.39,8.33-3.5,11.28-8.11,11.28-9.26,0-.06-.01-.11-.03-.15.06-.29,1-3.07,3.13-4.57,2.39-1.68,3.95-4.83,3.95-5.79,0-.05,0-.08,0-.12v-.03c0-.48.71-3.15,4.51-5.5,3.12-1.97,5.15-4.86,6.06-8.57l.06-.23c.07-.23.12-.57.12-.98,0-1.17-.41-2.85-1.82-3.67,0,0-2.18-1.12-2.18-1.12-.87-.42-2.15-1.06-2.37-1.32,0,0,0-.05,0-.13,0-.18-.01-.47-.01-.47-.03-.77-.07-1.83-.36-2.54-.4-1.02-2.61-2.62-3.37-2.44-.34-.03-2.85-.94-5.81-3.47-12.46-9.92-29.22-6.4-29.39-6.36-1.18.67-2.48,1.32-2.8,1.35-9.58-.33-15.26,4.11-16.77,5.47-.88.79-1.67,1.15-2.31,1.03-.7-.13-1.1-.83-1.21-1.05-.38-.77-.78-1.58-1.7-1.58-.24-.01-1.2-.41-2.06-.8-.05-.65-.21-1.88-.64-2.4-.08-.11-.13-.37-.13-.67,0-.41.09-.88.3-1.12.39-.45.47-1.35.59-2.79.06-.73.13-1.72.28-2,.33-.46,3.05-.87,4.51-1.09l.94-.14c1.31-.21,1.93-.95,2.25-1.63,1.23.84,3.96,1.98,5.98,1.91,1.66-.06,6.19-1.64,11.07-3.39l3.04-1.05c1.05-.24,1.68-1.27,1.91-1.7.09-.16.2-.45.28-.76.88.67,2.05,1.51,3.67,2.65,2.39,2.6,12.57,1.5,16.84.9,1.74-.04,4.11-.55,5.1-2.7.06-.11.23-.33.53-.43.28-.09.6-.03.94.17,3.46,2.88,6.43,1.23,7.03.62l-.3.16c1.51-.3,2.05-4.26,2.17-5.46.17-1.64,1.28-2.59,1.5-2.76l.06-.04.11-.18.67-.89,1.83-2.5c1.28-2.28.99-15.08.87-15.66,0,0-.87-1.98-.87-1.98-.33-.58-.37-4.17-.2-7.17v-.17s-.08-.15-.08-.15c0,0-.7-1.23-1.3-3.13-.96-2.99-2.75-7.3-5.9-10.86-3.68-4.17-14.17-6.48-19.61-5.23-5.33,1.23-4.97,8.12-4.82,11.06l.03.88c0,.74.35,1.14.64,1.36.61.44,1.47.4,2.17.3-.06.23-.13.45-.13.7,0,.46.12.91.5,1.24,2.85,2.78,8.55,1.12,10.7.5l.65-.18c.47,0,1.71-.33,2.54-1.07,1.58,1.58,1.78,4.94,1.79,5.79-2.46,1.18-6.01,5.49-6.3,7.8-.25.65-.35,1.5-.35,2.37,0,.78.08,1.58.19,2.32-.78-1.08-1.75-2.28-2.66-3.14-1.75-1.66-3.8-2.21-6.63-1.79-1.46.32-2.72,1.67-3.52,2.7-.55-2.75-2.18-6.42-5.91-7.65-1.98-.77-5.48-.94-10.37-.49l-.28.03c-1.02.08-2.58.65-5.29,3.49-1.82-2.36-7.34-5.04-8.8-5.72-.01-.31-.03-.64-.03-.96,0-.9.05-1.69.17-1.9.1,0,.98.07,2.52.63,1.23.44,2.48-.02,2.95-.47.35-.34.29-.68.24-.8.02.08.3-.72.3-.72l.14-.33c.05-.12.29-.17.45-.17.55,0,.9-.6,1.09-1.1l.04-.1v-.23s-.01-.18-.01-.22c0-.1-.07-.27-.09-.39.64.12,1.13.19,1.38-.22l.19-.3-.23-.45.03.05s-.01-.07-.01-.12c0-.31.18-.96.33-1.12,0,.01.5-.1.5-.1l.81-.22s.49-.89.49-.89l-.26-1.32c-.16-.29-.71-2.37-.97-3.56.03-.19.7-.77,1.03-1.04.56-.48.98-.83,1.05-1.26.09-.56.33-5.96.36-6.57v-.27s-.17-.18-.17-.18c-4.17-3.92-16.63,1.66-23.33,4.66l-2.72,1.17c-2.29.8-3.54,2.17-4.29,3l-.54.53c-.15.06-.71.05-2.4-.39,0,0-.08-.02-.16-.04.04-.25.24-.89,1.14-2.44.06-.14.24-.47.24-.47.34-.56.9-1.5,1.15-2.85,0-.03,0-.28,0-.59,0-.63,0-1.88,0-2.04,0-1.13-.02-1.88-.24-2.63-.16-1.56-.73-2.76-1.7-3.46-.38-.28-.78-.43-1.14-.52,1.06-1.09,2.79-3.2,4.59-6.98.47-.98.69-1.93.69-2.84,0-.68-.12-1.33-.37-1.96-.15-.4-.43-.7-.65-1.05,2.38.07,6.74-.6,8.03-.87,2.32-.48,5.45-3.63,7.73-5.93l1.94-1.83c.6-.38,1.22-.36,1.56-.17.1.05.25.16.25.31,0,.56-.72,3.04-1.08,4.23l-.35,1.25c-.03.14-.05.38-.05.69,0,.71.14,1.75.72,2.56.48.68,1.18,1.09,2.08,1.22,2.49.32,3.21.59,3.43.7.09.46.5,2.33,1.69,3.95l.11.16.19.05c5.52,1.65,10-3.37,12.15-5.78l.63-.69c1.88-1.99.91-4.42.03-5.54-.1-.12-10.72-12.23-11.73-12.23-.78,0-5.65-.23-6.77-.84-.03-.02-1.58-.88-1.58-.88-1.38-.79-3.28-1.88-4.45-2.31-1.7-.63-20.37.26-21.24,1.01Zm.75.89c1.07-.4,18.51-1.38,20.09-.8,1.08.4,2.92,1.46,4.27,2.24l1.64.91c1.43.76,6.22.93,7.1.95,1.02.76,10.24,10.8,11,11.79.11.15.8,1.07.8,2.19,0,.59-.2,1.23-.76,1.83l-.65.71c-1.97,2.2-6.02,6.72-10.75,5.47-1.06-1.54-1.41-3.42-1.41-3.44l-.02-.08-.03-.13c-.14-.28-.37-.75-4.32-1.27-.56-.08-.99-.32-1.29-.74-.42-.59-.51-1.39-.51-1.89,0-.23.02-.4.03-.46l.32-1.14c.6-2.03,1.14-3.9,1.14-4.57,0-.54-.32-1.05-.86-1.34-.79-.43-1.88-.35-2.75.21l-2.14,1.99c-2.07,2.07-5.17,5.2-7.14,5.6-3.25.67-7.97,1.06-8.6.8,0,0-.21-.14-.52-.34-1.29-1.13-2.64-1.75-2.73-1.79l-.52,1.03s1.8,1.19,2.55,1.68c.64.57,1.25,1.24,1.59,2.1.19.49.29,1,.29,1.52,0,.75-.19,1.54-.58,2.35-2.6,5.46-5.23,7.51-5.25,7.52l.47,1.03s.93-.18,1.71.39c.67.5,1.08,1.42,1.22,2.74.23.8.22,1.54.22,2.89v2.05c-.19,1.03-.67,1.81-.98,2.34l-.32.66c-1.27,2.15-1.39,2.96-1.16,3.46.12.26.35.43.63.49-.02,0,.33.08.33.08,1.51.39,2.57.59,3.15.35.01,0,.94-.83.94-.83.71-.78,1.8-1.98,3.8-2.69,0,0,2.81-1.2,2.81-1.2,5.44-2.44,18.04-8.06,21.85-4.99-.1,2.3-.29,5.72-.33,6.09,0-.05-.66.57-.66.57-.72.6-1.44,1.22-1.44,1.94,0,.08,0,.15.02.24.01.03.77,3.45,1.18,4.01.04.05.06.16.06.27,0,.12-.02.23-.06.29-.02-.03-.24,0-.24,0l-1.08.33c-.45.34-.68,1.2-.74,1.65,0,0,.02.17.04.28-.06-.01-.16-.02-.16-.02-.18-.03-.36-.05-.54-.04-.41-.16-.85-.29-1.21-.11l-1.09.54,1.11.52c.49.23.56.42.56.66,0,.03,0,.06,0,.09,0,0,0,.08.01.12-.05.1-.16.29-.17.32-.52.06-1.09.27-1.32.86l-.12.3c-.21.51-.34.86-.36,1.18-.22.16-.91.44-1.67.17-2.85-1.04-3.5-.53-3.71-.37-.2.16-.7.56-.49,4.11v.35s.33.15.33.15c2.21,1,8.13,4.03,9.02,5.94l.37.79.59-.64c2.82-3.09,4.22-3.54,5.03-3.61l.3-.02c4.72-.44,8.04-.29,9.87.42,3.88,1.29,5.2,5.69,5.36,8.09l.13,1.85.96-1.59c.49-.82,2.1-3.02,3.6-3.35,2.44-.38,4.13.07,5.61,1.48,1.77,1.69,3.79,4.8,4.03,5.25l1.09-.4c-.01-.05-1.21-4.74-.38-6.97.28-2.13,3.94-6.51,5.97-7.23l.38-.13v-.4c.01-.23.08-5.57-2.59-7.44l-.51-.36-.33.54c-.39.66-1.67,1.07-2.11,1.07l-.93.22c-1.97.57-7.19,2.09-9.58-.23-.26-.23-.06-1.07.21-1.58l.6-1.23-1.31.42c-.64.21-1.74.37-2.15.07-.05-.04-.16-.12-.16-.41l-.03-.94c-.13-2.66-.47-8.86,3.92-9.86,5.51-1.26,15.34,1.33,18.48,4.87,3,3.41,4.73,7.56,5.65,10.45.55,1.73,1.14,2.86,1.32,3.21-.04.74-.1,2.06-.1,3.46,0,1.76.09,3.55.46,4.19l.74,1.61c.04.31.08,1.92.08,3.97,0,4.01-.16,9.72-.82,10.89l-1.68,2.29s-.54.72-.73.99c-.33.26-1.69,1.46-1.91,3.53-.24,2.27-.88,4.26-1.27,4.46l-.08.04-.19.11c-.42.41-2.7,1.59-5.54-.77-.88-.51-1.53-.45-1.94-.33-.63.19-1.04.64-1.21.98-.64,1.38-2.04,2.06-4.18,2.11-6.34.88-14.26,1.24-15.99-.62-1.92-1.34-3.89-2.79-4.96-3.67-.39-.63-.91-1.29-1.39-1.21l-.47.1-.04.58c0,.17.02.41.94,1.22.19.32.39.64.45.79h0c0,.29-.62,1.56-1.39,1.75,0,0-3.17,1.09-3.17,1.09-3.4,1.22-9.1,3.26-10.71,3.33-2.12.07-5.32-1.5-5.68-1.97,0,0,.01.03.02.07-.04,0-.36.04-.68.09-.21-.02-.44-.04-.44-.04,0,.06-.08,1.35-1.6,1.59l-.93.14c-3,.47-4.85.8-5.35,1.69-.26.46-.33,1.24-.43,2.47-.06.7-.15,1.89-.32,2.13-.72.84-.72,2.62-.19,3.27.2.25.41,1.52.41,2.07v.37l.33.16c.66.31,2.26,1.05,2.87,1.05.2,0,.43.48.66.94.21.43.84,1.44,2.03,1.67,1.01.19,2.13-.25,3.31-1.31,1.43-1.3,6.81-5.49,15.92-5.18.43.07,1.56-.41,3.29-1.44,0,.02,16.22-3.36,28.22,6.19,2.96,2.53,6.08,3.91,6.84,3.71.22.08,1.76,1.1,2.02,1.74.2.52.23,1.46.26,2.15l.06.89c.1.59.81.98,2.97,2.04l2.1,1.07c1.38.81,1.3,2.92,1.18,3.28l-.08.32c-.84,3.41-2.7,6.05-5.55,7.86-3.98,2.45-5.05,5.44-5.05,6.52,0,.08,0,.15.01.22-.03.4-1.27,3.19-3.46,4.73-2.35,1.66-3.57,4.71-3.59,5.68h0c-.16.68-2.68,4.91-10.74,8.25l-.18.08-.09.16c-1.8,2.98-9.02,11.54-9.96,12.02-.73.07-1.34,1.18-1.44,2.17-.01.1-.01.19-.01.28,0,.86.42,1.5,1.17,1.74,0,0,2.38.48,2.38.48.59.08,1.42.22,1.59.32l.64.47c1.19.87,3.97,2.9,5.15,4.15l.07.08.09.05c2.8,1.46,10.57,1.6,10.65,1.6.09,0,.34.24.49.77.06.24.09.47.09.66,0,.33-.07.58-.17.63-2.4.93-5.45,1.92-6.01,1.81,0,0-2.84-.03-2.84-.03-3.12.01-9.61.05-10.84-.77-.52-.34-5.18-3.38-7.64-2.5l-2.75,1.17c-.83.38-1.69.77-2.01.77l-1.19.03c-1.81.06-7.03.2-8.13,0-.1-.65-.29-2.16-.29-3.85,0-1.94.26-4.1,1.23-5.34.45-.6,1.33-1.28,2.43-2.15,3.81-3,10.18-8.02,12.31-19.12h0c0-.2-.71-2.21-.71-2.21-.35-.77-.75-1.64-.75-2.26,0-.06,0-.12.01-.17.17-1.27,6.59-13.35,13.81-17.3,1.42-.22,11.53-2.38,12.07-3.1l.31-.4-.37-.39c-.74-.73-10.69-.61-14.56,2.34-3.61,2.73-25.38,1.21-26.99.38l.15.16c-.46-.81-21.83-15.2-34.63-23.75-.31-.57-2.4-4.71-2.4-10.39v-.31c.02-.25.03-.5.03-.75,0-3.25-1.52-4.91-2.55-6.04l-2.56-2.85c-2.17-2.4-6.21-6.87-6.52-7.48-.58-1.5-.79-5.03-.79-8.39,0-3.57.23-6.94.48-7.51.33-.43.74-.98.74-1.62,0-.41-.17-.86-.65-1.34l-.4-.36c-1.33-1.14-4.68-3.98-4.68-12.11,0-.81.03-1.68.1-2.6.57-2.23,2.32-3.66,2.66-3.91.24-.18.36-.48.36-.95,0-.06,0-.13-.01-.2-.06-1-.59-2.84-1.77-3.52-.94-.54-1.09-1.84-1.09-4.76.49-2.62,1.02-5.41,3.11-6.79,1.25-.82,1.7-1.9,1.7-2.91,0-.58-.15-1.14-.39-1.61-.31-.6-.88-1.76-.88-3.55,0-1.16.24-2.57.96-4.28,1.92-4.54,14.19-19.56,15.09-20.21.6-.15,2.69-.15,3.05.31l1.13.54c1.3.13,3.36-.57,3.95-1.08Zm24.2,101.51v.02s0,0,0,0v-.02Zm3.9-41.55h0s.01.1.02.15c-.01-.06-.02-.1-.02-.15Z"></path></g><g><path class="cls-3" d="m81.94,93.45s.88-6.57.25-7.96c-.63-1.39,4.93,1.39,14.28-11.88,1.27-2.66,9.61-6.7,10.74-6.32,1.15.38,0,0,0,0,0,0-6.56,1.52-10.74,6.32-2.28,4.67-8.09,10.74-14.65,10.86,0,0-2.78-8.97-6.7-9.35-8.47-.5-15.29,6.57-15.29,7.33,0,0-2.2-7.74-5.1-6.87-3.92,1.01-2.67,8.56-2.56,8.68.13.13.64,4.22,5.71,3.4,1.78-.5,1.43-.79,1.43-.79,0,0,4.3-.13,5.05.51.76.63,4.3,2.15,7.58-.76,3.28-2.91,8.72-.39,8.72-.39,0,0,.38,6.06.12,7.58l1.14-.38Z"></path><path d="m107.15,66.71c-1.96-.09-9.6,3.83-11.09,6.49-.01.01-.02.02-.03.03-.01.01-.02.04-.03.06-.02.02-.04.06-.06.08-3.24,4.61-6.03,7.21-8.23,8.73-1.7.97-3.54,1.63-5.49,1.75-.65-1.94-3.22-8.93-7.04-9.3-5.72-.34-11.12,2.72-14.28,5.69-.38.36-.61.64-.86.93-.61-1.76-1.91-4.95-3.7-5.92-.59-.32-1.18-.39-1.78-.22-1.38.36-2.38,1.49-2.88,3.28-.66,2.42-.29,6,.08,6.37l-.11-.16c1.12,3.77,4.05,4.1,6.34,3.74.92-.26,1.36-.51,1.63-.79,2.08-.05,4.05.12,4.39.37.77.63,4.67,2.48,8.34-.77,2.57-2.27,6.68-.86,7.77-.43.07,1.3.19,3.64.19,5.35,0,.77-.03,1.39-.09,1.74l-.16.95,2.41-.8.04-.36c.11-.78.49-3.75.49-5.99,0-.84-.07-1.52-.21-1.99.17-.05.35-.1.35-.1.94-.23,2.66-.64,5.03-2.24,4.13-2.29,7.3-6.25,8.79-9.26.02-.03.06-.07.08-.11,3.67-4.16,9.39-5.73,10.15-5.93.15.05.34.11.34.11l.37-1.1-.66-.22s-.05.01-.09.02Zm-46.76,15.86c.34-.88,6.71-7.34,14.68-6.86,2.88.28,5.43,6.55,6.18,8.94l.13.43s.11,0,.23,0c-.02.08-.05.15-.05.24,0,.13.04.28.1.42.13.29.18.89.18,1.67,0,1.46-.18,3.43-.38,5.05,0-.17.01-.32.01-.5,0-2.33-.2-5.56-.21-5.74l-.03-.35-.31-.15c-.24-.11-5.82-2.65-9.35.47-3.08,2.73-6.32,1.16-6.83.75-.83-.7-4.08-.68-5.44-.64h-.4s-.04.21-.08.39c-.08.03-1.09.42-1.09.42-3.91.62-4.68-1.97-4.93-2.82l-.21-.43.13.2c-.17-.54-.66-4.46.54-6.59.4-.71.93-1.14,1.62-1.32.31-.09.59-.06.9.11,1.64.9,3.08,4.89,3.49,6.35l.47,1.67.66-1.72Z"></path></g><path d="m81.86,127.38s-6.22-10.67-19.12-9.8c-5.89.56-8.04,4.54-8.04,4.54,0,0-.32,4.61-1.2,4.93l-.24-5.33s-.96-1.76-.8-2.55c.24-.08,1.03,1.12,1.67-1.11,0,0,1.03-4.94,5.65-4.94,5.51-.32,8.22.32,17.13,6.53,3.67,3.35,4.94,7.73,4.94,7.73Z"></path><path d="m98.88,24.19s-8.14-4.07-14.78.15c-.64.49-1.06-1.05-1.06-1.05,0,0-1.35-3.77-4.07-3.32-4.37-.61-6.79,1.35-7.53,3.46-.62,1.69-.9,1.76-1.39,2.02,0,0,.68,1.5,1.88,1.73,1.2.24,0,1.1,0,1.1,0,0,1.67.63,1.92.48,0,.67-.39,1.63-.39,1.63,0,0,1.73,3.22,4.33-.05,0,0,.96-1.39,1.24-.52.29.86.39,4.42,2.51,4.42s7.01-.15,7.05.43c.05.57-.57,5.38-.96,5.48-.38.09,2.12-.59,2.55-.91.43-.34,4.04-1.78,2.97,2.88-1.04,3.46-3.26,3.37-3.26,3.37,0,0,2.06,4.18,7.06,3.99,9.17-2.16,6.77-19.18,6.77-19.18,0,0,1.16-1.97,2.45.68,1.3,2.64,1.35,9.51.91,11.87-.47,2.15.96,8.26,9.32,8.07,0,0,12.01-.34,19.85-19.71,0,0-4.32,1.78-5.05,1.4.96-.86,7.54-9.7,6.73-11.77,0,0-2.55,2.69-5.91,2.84-2.21-.2-12.11.72-14.56-5.48,0,0-2.64-4.85-6.29-5.09-10.52-.1-12.3,11.08-12.3,11.08Z"></path><g><path class="cls-6" d="m157.54,100.47s3.43,1.99,4.24,1.9c.82-.09-.81,1.36.36,3.07,1.17,1.71,1.44,1.89,1.17,2.35-.26.45-1.17.54-1.53.45-.36-.09-2.79-3.79-2.89-4.43-.09-.63-3.43.99-3.52-.54-.09-1.53.63-3.07,2.17-2.8Z"></path><path class="cls-2" d="m155.78,100.39c-.69.61-1.06,1.7-.99,2.91l.46.92c.63.49,1.65.3,2.54.13,0,0,.52-.08.7-.1.45,1.06,2.46,4.37,3.15,4.54.54.14,1.74.01,2.17-.72.42-.69.1-1.15-.61-2.15l-.58-.83c-.54-.78-.32-1.49-.15-2,.11-.36.23-.73-.03-1.06-.12-.14-.34-.3-.73-.25-.43.01-2.35-.93-3.88-1.82l-.1-.06-.09-.02c-.71-.12-1.37.05-1.87.49Zm.19,2.91c-.06-.9.17-1.68.58-2.04.22-.2.49-.26.81-.22.97.55,2.89,1.59,3.98,1.82-.1.31-.22.71-.22,1.2s.13,1.09.54,1.7l.59.85.58.9c-.09.1-.66.22-.91.16-.31-.3-2.33-3.43-2.46-3.96l-.05-.21-.24-.26c-.37-.26-.85-.17-1.6-.03-.39.08-1.43.27-1.61.1Z"></path></g><g><path class="cls-6" d="m196.07,139.63s-3.88,2.98-5.96,2.44c-2.07-.54-1.98-1.36-1.35-1.63.63-.27,2.08.1,2.53-.27.45-.36.26-1.54.26-1.54,0,0,3.98-.9,4.52.99Z"></path><path class="cls-2" d="m191.43,138.06l-.53.13.08.54c.02.13.03.28.03.42,0,.27-.03.51-.1.59,0-.02-.9.03-.9.03l-1.48.15c-.48.2-.78.62-.74,1.09.05.71.78,1.26,2.18,1.63,2.29.59,6.04-2.22,6.46-2.54l.31-.24-.11-.38c-.67-2.36-4.74-1.51-5.2-1.41Zm3.77,1.46c-1.48,1.05-3.77,2.29-4.95,1.99-1.14-.3-1.31-.62-1.31-.62.05.1,1.04.04,1.04.04.65.02,1.27.03,1.68-.29.43-.35.53-.98.53-1.47,0,0,0,0,0,0,1.04-.17,2.44-.2,3.02.37Z"></path></g><path class="cls-2" d="m203.96,151.91c-.29.14-.43.48-.29.77.03.07,3.06,6.9-1.5,9.84-.27.18-.35.53-.17.81.17.28.54.35.81.18,5.41-3.49,1.97-11.22,1.93-11.31-.14-.29-.48-.42-.77-.29Z"></path><path class="cls-2" d="m181.17,168.54c-.29.16-.38.52-.23.8.16.28.52.38.79.22,2.6-1.47,5.03-1.87,7.23-1.18,3.58,1.12,5.39,4.76,5.41,4.8.14.29.49.41.77.27.29-.14.41-.49.27-.78-.08-.17-2.03-4.13-6.1-5.41-2.52-.78-5.26-.36-8.15,1.27Z"></path><path class="cls-2" d="m135.98,136.96c-.02.06-2.42,5.45-11.07,14.35-4.88,4.43-5.12,13.54-5.13,13.93.06,1.37.64,13.03.92,14.22l.79,1.99c.38.84.82,1.81.82,2.3l-.34,2.25-.28,1.43-.15.68c-.34,1.43-.81,3.4,1.59,5.63l2.06,1.81c.83.7,1.98,1.67,1.94,1.97-.22.54-.42,1.04.1,1.3.15.07.33.02.49-.05.15-.06.28-.25.34-.4l.16-.42c.41-1.02-.6-1.87-2.28-3.29l-2.02-1.77c-1.9-1.77-1.57-3.16-1.24-4.51l.16-.74.28-1.39.37-2.5c0-.75-.46-1.74-.93-2.79l-.71-1.76c-.2-.83-.64-8.82-.89-13.98,0-.05.24-8.97,4.77-13.08,8.84-9.11,11.23-14.49,11.33-14.72.13-.29-.01-.63-.3-.77-.3-.13-.64,0-.77.3Z"></path><path d="m126.95,198.29s-11.27,3.08-12.18,7.4c-1.5,7.07,0,11.91,0,11.91,0,0,2.98,5.15,3.52,5.15s6.95,1.62,7.32,1.62,27.09-3,27.09-3c0,0,1.73-6.77,1.04-9.49-5.57-5.43-8.64-9.7-10.45-11.05-1.8-1.36-12.81-3.25-16.33-2.53Z"></path><path class="cls-2" d="m161.44,203.95c-.31.07-.51.38-.43.69.06.31.38.51.7.44.13-.03,13.5-3.11,20.57-2.33,5.46.61,11.26,4.33,14.05,6.13l1.44.89c1.51.79,4.28.66,5.62.59l.48-.02c.31-.01.59-.28.57-.6-.01-.32-.26-.57-.57-.56l-.54.02c-1.14.05-3.8.18-5.02-.46l-1.35-.84c-2.86-1.84-8.81-5.67-14.54-6.31-7.27-.81-20.41,2.22-20.96,2.35Z"></path><path class="cls-2" d="m191.36,227.04c-1.76,4.22-3.86,8.86-4.36,9.33-.39.24-.86.35-1.1.23-.23-.11-.31-.48-.34-.77-.13-1.18-.25-1.97-.87-2.28-.54-.26-1.12.02-1.63.33-.87.53-8.75,8.36-8.62,9.93.03.27.26.45.54.46.29.03.55-.22.62-.5.24-1.07,6.82-8.14,8.06-8.9l.56-.26c.04.12.14,1.03.17,1.33.11,1.07.6,1.52,1,1.71.92.45,1.97-.13,2.26-.32.8-.5,3.34-6.38,4.78-9.83.12-.31-.02-.65-.32-.77-.3-.13-.63.02-.76.31Z"></path><path d="m137.79,132.14s-3.07-6.5-1.45-10.93c1.63-4.41,7.31-8.3,9.56-8.66,2.26-.36,2.8-1.45,9.83,2.07,7.05,3.53,8.76,5.96,8.76,5.96,0,0,.72,4.06-1.71,5.23-2.43,1.18-5.51-.71-6.77-.54-1.27.18-2.17-.09-2.98,2.62-.81,2.71-1.08,4.6-1.08,4.6,0,0-.45-4.6-1.9-4.78-1.44-.18-4.6-.63-4.51,2.16.1,2.8.54,2.53.54,2.53,0,0-1.36.45-2.16,0-.81-.45-1.27.36-.99.45.27.09-4.51.54-5.14-.72Z"></path><g><g><path class="cls-1" d="m221.47,225.18h19.33v51.93h-19.33v-51.93Z"></path><path class="cls-1" d="m254.71,225.18h47.86v11.18h-28.43v9h24.26v10.53h-24.26v21.22h-19.43v-51.93Z"></path><path class="cls-1" d="m312.96,225.18h36.15c6.04,0,10.66,1.23,13.88,3.71,3.22,2.48,4.84,5.56,4.84,9.22,0,3.07-1.15,5.7-3.46,7.89-1.54,1.46-3.79,2.62-6.75,3.47,4.51.9,7.83,2.43,9.96,4.62,2.12,2.19,3.18,4.93,3.18,8.23,0,2.7-.76,5.12-2.26,7.28-1.51,2.15-3.57,3.85-6.19,5.1-1.61.79-4.06,1.35-7.33,1.7-4.35.48-7.24.71-8.66.71h-33.37v-51.93Zm19.53,20.37h8.37c3,0,5.08-.44,6.26-1.3,1.18-.86,1.77-2.11,1.77-3.74,0-1.51-.59-2.7-1.77-3.54-1.17-.85-3.22-1.28-6.14-1.28h-8.49v9.86Zm0,20.37h9.86c3.33,0,5.67-.48,7.04-1.46,1.36-.99,2.05-2.3,2.05-3.95,0-1.53-.68-2.77-2.04-3.7-1.35-.93-3.72-1.4-7.11-1.4h-9.81v10.52Z"></path><path class="cls-1" d="m380.9,225.18h36.16c6.03,0,10.65,1.23,13.88,3.71,3.23,2.48,4.84,5.56,4.84,9.22,0,3.07-1.15,5.7-3.46,7.89-1.53,1.46-3.79,2.62-6.74,3.47,4.51.9,7.81,2.43,9.95,4.62,2.13,2.19,3.19,4.93,3.19,8.23,0,2.7-.75,5.12-2.25,7.28-1.52,2.15-3.57,3.85-6.2,5.1-1.62.79-4.06,1.35-7.34,1.7-4.35.48-7.24.71-8.65.71h-33.37v-51.93Zm19.53,20.37h8.36c3.01,0,5.09-.44,6.27-1.3,1.17-.86,1.76-2.11,1.76-3.74,0-1.51-.59-2.7-1.76-3.54-1.18-.85-3.22-1.28-6.13-1.28h-8.5v9.86Zm0,20.37h9.86c3.32,0,5.68-.48,7.04-1.46,1.36-.99,2.04-2.3,2.04-3.95,0-1.53-.67-2.77-2.02-3.7-1.36-.93-3.72-1.4-7.12-1.4h-9.81v10.52Z"></path></g><g><path class="cls-1" d="m10.72,288.08h11.73c2.56,0,4.47.65,5.74,1.94,1.27,1.29,1.9,3.12,1.9,5.51s-.68,4.36-2.07,5.74c-1.39,1.38-3.5,2.07-6.34,2.07h-3.85v8.96h-7.12v-24.21Zm7.12,10.32h1.72c1.36,0,2.31-.24,2.86-.75.54-.49.82-1.14.82-1.92s-.24-1.41-.72-1.94c-.47-.52-1.36-.78-2.68-.78h-2v5.39Z"></path><path class="cls-1" d="m33.87,312.3v-24.21h11.76c2.19,0,3.85.2,5.01.59,1.15.4,2.08,1.13,2.79,2.22.7,1.07,1.05,2.37,1.05,3.92,0,1.35-.27,2.51-.81,3.48-.54.98-1.29,1.77-2.23,2.38-.6.38-1.43.7-2.48.95.85.3,1.46.6,1.84.89.26.2.64.62,1.14,1.27.49.65.82,1.15.98,1.5l3.41,7.02h-7.99l-3.76-7.39c-.47-.96-.89-1.58-1.27-1.86-.51-.38-1.08-.56-1.71-.56h-.62v9.81h-7.1Zm7.1-14.41h2.97c.32,0,.94-.11,1.85-.33.47-.1.85-.34,1.14-.76.3-.4.44-.87.44-1.4,0-.79-.23-1.39-.7-1.8-.46-.42-1.33-.63-2.62-.63h-3.08v4.93Z"></path><path class="cls-1" d="m57.21,300.21c0-3.95,1.04-7.04,3.11-9.24,2.08-2.21,4.97-3.32,8.68-3.32s6.72,1.09,8.77,3.26c2.06,2.16,3.08,5.2,3.08,9.1,0,2.84-.45,5.17-1.35,6.97-.9,1.82-2.2,3.23-3.89,4.24-1.7,1-3.81,1.51-6.35,1.51s-4.7-.44-6.39-1.31c-1.68-.86-3.05-2.25-4.1-4.13-1.05-1.89-1.57-4.25-1.57-7.08Zm7.06.05c0,2.45.43,4.2,1.28,5.27.85,1.08,2.02,1.6,3.49,1.6s2.68-.52,3.5-1.57c.83-1.05,1.25-2.92,1.25-5.64,0-2.27-.43-3.95-1.29-5-.87-1.05-2.04-1.58-3.53-1.58s-2.56.54-3.42,1.6c-.86,1.07-1.29,2.84-1.29,5.31Z"></path><path class="cls-1" d="m84.7,288.08h17.48v5.21h-10.37v4.22h8.86v4.88h-8.86v9.9h-7.1v-24.21Z"></path><path class="cls-1" d="m105.94,288.08h18.95v5.16h-11.89v3.83h11.04v4.93h-11.04v4.79h12.22v5.5h-19.28v-24.21Z"></path><path class="cls-1" d="m127.76,304.31l6.73-.45c.14,1.16.44,2.04.88,2.64.73.99,1.77,1.47,3.12,1.47,1.01,0,1.79-.24,2.33-.75.54-.5.82-1.09.82-1.74s-.26-1.19-.78-1.69c-.52-.5-1.73-.97-3.61-1.42-3.11-.74-5.32-1.72-6.63-2.94-1.34-1.23-2-2.78-2-4.68,0-1.26.33-2.43,1.02-3.54.68-1.1,1.7-1.97,3.07-2.61,1.37-.63,3.24-.96,5.63-.96,2.92,0,5.15.58,6.68,1.74,1.54,1.15,2.45,2.97,2.74,5.48l-6.68.42c-.18-1.09-.55-1.88-1.11-2.38-.57-.49-1.35-.74-2.34-.74-.82,0-1.44.17-1.85.55-.41.38-.63.82-.63,1.35,0,.39.17.75.52,1.05.33.33,1.13.62,2.37.9,3.09.7,5.31,1.43,6.65,2.15,1.34.72,2.3,1.62,2.91,2.68.61,1.07.92,2.26.92,3.6,0,1.55-.4,2.98-1.22,4.29-.81,1.31-1.94,2.31-3.4,2.98-1.45.69-3.3,1.02-5.51,1.02-3.89,0-6.58-.79-8.09-2.38-1.49-1.58-2.34-3.6-2.54-6.04Z"></path><path class="cls-1" d="m150.82,304.31l6.73-.45c.15,1.16.44,2.04.89,2.64.73.99,1.77,1.47,3.13,1.47,1,0,1.78-.24,2.32-.75.54-.5.82-1.09.82-1.74s-.26-1.19-.78-1.69c-.52-.5-1.73-.97-3.62-1.42-3.09-.74-5.31-1.72-6.63-2.94-1.33-1.23-2-2.78-2-4.68,0-1.26.34-2.43,1.02-3.54.68-1.1,1.7-1.97,3.07-2.61,1.37-.63,3.24-.96,5.63-.96,2.92,0,5.15.58,6.68,1.74,1.54,1.15,2.45,2.97,2.74,5.48l-6.68.42c-.18-1.09-.55-1.88-1.11-2.38-.57-.49-1.35-.74-2.35-.74-.82,0-1.43.17-1.85.55-.42.38-.62.82-.62,1.35,0,.39.16.75.52,1.05.33.33,1.11.62,2.37.9,3.09.7,5.31,1.43,6.64,2.15,1.34.72,2.31,1.62,2.92,2.68.61,1.07.91,2.26.91,3.6,0,1.55-.4,2.98-1.22,4.29-.81,1.31-1.94,2.31-3.4,2.98-1.46.69-3.29,1.02-5.51,1.02-3.89,0-6.58-.79-8.08-2.38-1.5-1.58-2.35-3.6-2.55-6.04Z"></path><path class="cls-1" d="m175.38,288.08h7.07v24.21h-7.07v-24.21Z"></path><path class="cls-1" d="m186.67,300.21c0-3.95,1.04-7.04,3.12-9.24,2.08-2.21,4.97-3.32,8.67-3.32s6.73,1.09,8.78,3.26c2.05,2.16,3.08,5.2,3.08,9.1,0,2.84-.45,5.17-1.35,6.97-.89,1.82-2.19,3.23-3.89,4.24-1.7,1-3.81,1.51-6.34,1.51s-4.71-.44-6.39-1.31c-1.69-.86-3.06-2.25-4.11-4.13-1.05-1.89-1.57-4.25-1.57-7.08Zm7.06.05c0,2.45.43,4.2,1.28,5.27.85,1.08,2.02,1.6,3.49,1.6s2.69-.52,3.52-1.57c.83-1.05,1.23-2.92,1.23-5.64,0-2.27-.43-3.95-1.3-5-.86-1.05-2.04-1.58-3.51-1.58s-2.56.54-3.42,1.6c-.86,1.07-1.29,2.84-1.29,5.31Z"></path><path class="cls-1" d="m214.16,288.08h6.59l8.58,13.36v-13.36h6.68v24.21h-6.68l-8.53-13.3v13.3h-6.64v-24.21Z"></path><path class="cls-1" d="m254.46,308.31h-7.97l-1.15,3.99h-7.22l8.55-24.21h7.77l8.56,24.21h-7.38l-1.16-3.99Zm-1.5-5.26l-2.5-8.69-2.48,8.69h4.98Z"></path><path class="cls-1" d="m265.23,288.08h7.07v18.25h11.08v5.97h-18.15v-24.21Z"></path><path class="cls-1" d="m297.17,288.08h7.05v18.25h11.09v5.97h-18.15v-24.21Z"></path><path class="cls-1" d="m318.46,288.08h18.95v5.16h-11.89v3.83h11.04v4.93h-11.04v4.79h12.23v5.5h-19.29v-24.21Z"></path><path class="cls-1" d="m355.58,308.31h-7.99l-1.13,3.99h-7.22l8.55-24.21h7.76l8.57,24.21h-7.4l-1.14-3.99Zm-1.5-5.26l-2.5-8.69-2.48,8.69h4.98Z"></path><path class="cls-1" d="m377.23,303.53v-5.03h10.95v10.32c-2.09,1.51-3.94,2.54-5.55,3.07-1.6.55-3.51.83-5.72.83-2.7,0-4.92-.49-6.63-1.47-1.7-.98-3.03-2.45-3.98-4.38-.93-1.94-1.41-4.16-1.41-6.67,0-2.66.52-4.96,1.54-6.91,1.03-1.94,2.54-3.44,4.52-4.45,1.55-.77,3.63-1.18,6.25-1.18s4.4.24,5.66.73c1.25.49,2.29,1.23,3.12,2.25.82,1.02,1.44,2.31,1.86,3.87l-6.84,1.3c-.27-.92-.75-1.63-1.41-2.11-.68-.49-1.53-.73-2.56-.73-1.54,0-2.77.57-3.69,1.71-.91,1.14-1.37,2.96-1.37,5.43,0,2.63.46,4.5,1.39,5.63.92,1.12,2.22,1.69,3.89,1.69.79,0,1.53-.12,2.26-.37.71-.24,1.53-.66,2.46-1.24v-2.28h-4.74Z"></path><path class="cls-1" d="m407.25,288.08h7.05v14.43c0,1.44-.22,2.79-.64,4.06-.43,1.28-1.07,2.38-1.97,3.34-.9.96-1.84,1.62-2.83,2.01-1.37.53-3.01.81-4.94.81-1.12,0-2.32-.08-3.63-.26-1.31-.15-2.42-.48-3.3-.98-.88-.49-1.69-1.19-2.42-2.08-.72-.91-1.23-1.84-1.51-2.8-.43-1.54-.64-2.91-.64-4.1v-14.43h7.05v14.78c0,1.32.35,2.36,1.04,3.09.68.75,1.64,1.12,2.85,1.12s2.16-.36,2.85-1.09c.68-.73,1.04-1.77,1.04-3.12v-14.78Z"></path><path class="cls-1" d="m418.95,288.08h18.96v5.16h-11.9v3.83h11.04v4.93h-11.04v4.79h12.22v5.5h-19.28v-24.21Z"></path></g></g><g><path class="cls-5" d="m153.3,224s2.48,11.88,3.53,13.96c1.04,2.09,1.42,18.39-5.4,27.2-6.82,8.82-5.31,11.28-5.31,11.56s-.28,1.32-2.08,1.14c-2.56,0-8.62.47-9.1,0s-3.04-2.08-3.5-2.37c-.48-.28-1.43.38-2.28.85-.86.48,0,1.52-5.88,1.42-5.88-.09-13.93-.29-13.93-.29,0,0-2.94-1.7-4.08-2.27-1.13-.57-10.7-1.43-13.26-.38-2.56.28-4.64.95-5.59,1.8-.95.85-4.27,1.23-4.92,1.14-.66-.09-5.4-1.32-6.45-1.42-1.05-.09-7.48.1-10.23,1.81-2.76,1.7-5.5,2.46-6.07,2.84-.57.38-2.28.38-2.28-.38-.28-.56-.19-2.56,1.14-5.03,0,0,1.33-2.84,4.17-3.5,2.85-.67,11.85-1.81,15.92-8.62,3.33-5.69,4.74-5.4,5.02-5.3.29.08,3.13-.49,5.31,2.93,2.17,3.41,2.37,4.27,3.03,4.27s10.42-2.18,11.08-2.27c.67-.09.38-2.94,2.09-3.6,1.71-.66,4.92-2.56,7.49-2.46,2.56.1,10.99-.85,15.26,1.14,4.26,1.98,3.89,3.12,5.49,3.12,2.75.76,2.56-2.38,2.37-3.04-.19-.65-1.99-3.51-3.13-3.6-1.14-.1-3.88-.75-5.11-5.88-1.24-5.12-4.37-12.89-4.27-13.84.09-.94-.47-3.03,1.42-5.88,1.9-2.84,2.09-3.79,1.6-4.73-.46-.95-6.63-6.36-3.41-13.65,3.22-7.29,16.5-5.78,16.5-5.78,0,0,6.62.29,7.18,2.84.86,3.6,1.23,6.53,1.9,7.01,0,0,3.51,3.9,4.07,4.65.57.75,1.65,4.3,1.69,4.61Z"></path><path d="m121.43,210.44c-2.87,6.5,1.33,11.6,2.92,13.5l.49.65c.31.6.37,1.25-1.57,4.15-1.61,2.42-1.55,4.35-1.52,5.49v.64c-.05.54.35,1.76,1.52,5.18.94,2.75,2.12,6.19,2.76,8.86,1.25,5.2,4.07,6.19,5.64,6.31.73.06,2.43,2.56,2.6,3.17.1.36.19,1.64-.34,2.17-.1.1-.4.4-1.31.15-.73-.02-.91-.17-1.46-.64-.66-.55-1.66-1.39-3.94-2.45-3.42-1.6-9.17-1.38-12.97-1.24l-2.51.06c-2.09-.08-4.52,1.04-6.3,1.87l-1.43.63c-1.31.52-1.68,1.97-1.91,2.92,0,0-.18.58-.21.68-.48.1-3.35.7-3.35.7-2.63.57-7.02,1.51-7.49,1.53-.15-.07-.52-.7-.95-1.42l-1.58-2.58c-2.05-3.21-4.68-3.19-5.54-3.19-1.44-.45-3.36,1.42-5.79,5.58-3.5,5.88-10.89,7.4-14.44,8.11l-1.11.24c-3.08.72-4.51,3.71-4.56,3.83-.93,1.72-1.32,3.35-1.32,4.45,0,.36.07.61.15.85.02.39.21.73.6.93.67.36,1.94.31,2.56-.1l1.1-.46c1.22-.49,3.07-1.21,4.95-2.37,2.49-1.54,8.64-1.83,9.88-1.72l4.13.91,2.28.52c.72.1,4.26-.27,5.4-1.28.83-.75,2.85-1.38,5.26-1.65,2.6-1.04,11.97-.16,12.94.33l4.17,2.32h.15s13.94.29,13.94.29c4.51.08,5.33-.51,5.94-1.26l.24-.24.41-.24c.38-.22,1.1-.63,1.31-.61.79.48,2.99,1.9,3.36,2.27.42.42,1.49.47,6.36.26l3.15-.09c.87.1,1.6-.08,2.09-.53l.67-1.38-.14-.08c-.54-1.99,1.32-5.88,5.23-10.94,7.04-9.1,6.55-25.64,5.45-27.82-.79-1.59-2.62-9.74-3.47-13.82v.07c-.03-.44-1.15-4.06-1.79-4.91l-4.11-4.68c-.39-.36-.77-2.17-1.11-3.76l-.66-3c-.64-2.91-7.01-3.26-7.74-3.29-.52-.07-13.69-1.47-17.05,6.12Zm3.82,12.76c-1.6-1.93-5.33-6.45-2.76-12.29,3.01-6.81,15.77-5.46,15.9-5.44,2.44.11,6.36.85,6.69,2.39,0,.01.65,2.98.65,2.98.57,2.72.85,3.94,1.47,4.38h0s3.95,4.52,3.95,4.52c.46.61,1.5,3.9,1.56,4.33v.05c.11.49,2.53,11.98,3.59,14.11.3.61.54,2.5.54,5.08,0,5.93-1.25,15.52-5.87,21.5-3.7,4.78-5.57,8.44-5.57,10.91,0,.38.04.72.13,1.04-.01-.01-.19.31-.19.31-.24.2-.68.28-1.24.22-.06,0-3.26.1-3.26.1-2.03.08-5.08.21-5.58,0-.51-.53-3.49-2.37-3.53-2.39-.69-.4-1.55.09-2.45.61l-.4.24-.58.52c-.28.36-.71.9-5,.83,0,0-13-.26-13.79-.29-.25-.14-3.97-2.21-3.97-2.21-1.4-.7-11.07-1.5-13.75-.4-2.56.26-4.72.97-5.75,1.9-.75.68-3.86,1.08-4.46.99l-2.17-.49-4.3-.93c-1.12-.09-7.69.09-10.59,1.89-1.79,1.11-3.59,1.81-4.76,2.27l-1.32.58c-.31.2-1.23.19-1.4.02-.16-.45-.23-2.2,1.1-4.66.03-.05,1.27-2.63,3.78-3.21l1.08-.23c3.72-.77,11.44-2.34,15.22-8.66,3.04-5.22,4.32-5.06,4.33-5.05.02,0,.45.04.45.04.78,0,2.85-.01,4.55,2.65l1.56,2.55c.86,1.44,1.18,1.99,1.97,1.99.41,0,2.71-.48,7.72-1.56l3.45-.73c.65-.08.82-.77,1.01-1.51.2-.82.45-1.83,1.21-2.12l1.49-.66c1.67-.77,3.96-1.83,5.76-1.77l2.61-.05c3.47-.13,9.27-.33,12.43,1.14,2.15,1,3.07,1.78,3.69,2.29.62.52,1.07.89,2.06.89,1.14.34,1.89-.07,2.29-.47,1.01-1.03.75-2.89.64-3.3-.21-.73-2.09-3.89-3.63-4.02-1.26-.1-3.53-.94-4.6-5.42-.66-2.73-1.84-6.19-2.8-8.97-.68-2-1.46-4.27-1.45-4.68,0,.01,0-.78,0-.78-.04-1.09-.09-2.71,1.32-4.82,1.91-2.87,2.28-4.06,1.64-5.33,0,0-.64-.86-.64-.86Zm-69.29,57.67s-.02-.16-.04-.22c0-.01-.02-.02-.02-.03l.06.26Z"></path></g><path class="cls-2" d="m145.69,221.57c-.32.03-.55.31-.52.63.11,1.14.73,6.88,1.75,8.01.81.89,2.06,5.99,1.03,8.48-.84,2.01-3.23,11.51-2.37,12.54.2.24.63.22.87.02l1.95-1.56c.2-.13.31-.24.47-.35.28,1.97.71,6.36.71,8.07,0,.3-.01.52-.04.63-.02.06-.03.11-.03.17,0,.25.15.48.39.56.3.1.61-.02.73-.31.35-.86-.47-10.13-.95-10.66-.21-.22-.74,0-.99.2l-.96.73s-.59.48-1.17.95c.25-2.38,1.53-8.34,2.45-10.54.35-.84.48-1.88.48-2.96,0-2.77-.92-5.87-1.73-6.75-.51-.56-1.14-4.18-1.46-7.35-.03-.31-.31-.56-.64-.52Z"></path><path class="cls-2" d="m109.74,261.59c-.47.47-1.33.35-1.34.34-.31-.05-.61.17-.67.49-.05.31.16.61.48.66.05,0,1.44.24,2.39-.72.36-.45,1.68-.74,3.63-.54,2.55.26,4.82,1.19,5.29,2.17,1.01,2.1,4.46,2.81,5.96,2.83.41,0,.86-.02,1.06-.4.06-.13.03-.42,0-.55-.09-.34.15-2.16.43-3.64.06-.32-.15-.62-.46-.68-.32-.06-.62.15-.68.47-.35,1.9-.45,2.96-.45,3.56v.07c-1.14-.05-4.07-.65-4.8-2.16-.77-1.6-3.68-2.58-6.22-2.84-1.09-.1-3.72-.24-4.62.93Zm15.67,4.52s.01-.07.02-.09c0,.04,0,.12.02.16,0-.03-.03-.05-.03-.07Z"></path><path class="cls-2" d="m139.68,142.27c-.32,0-.58.26-.58.58,0,2.43.15,14.64,3.08,16.1.14.07.31.09.46.02.15-.06.28-.17.33-.33.66-1.66,1.61-2.57,2.89-2.8,4.56-.81,11.63,7.01,11.7,7.09.17.19.45.25.68.14.11-.05,10.61-4.76,14.86,1.18.19.26.55.32.81.14.26-.19.32-.55.14-.82-4.48-6.27-14.2-2.45-15.91-1.73-1.32-1.41-7.74-7.99-12.49-7.16-1.45.26-2.52,1.29-3.33,2.82-1.42-1.78-2.07-9.35-2.07-14.67,0-.32-.27-.58-.59-.58Z"></path><path class="cls-2" d="m118.56,135.86c-3.27,2.43-3.95,9.06-3.95,15.24,0,2.56.12,5.05.22,7.12.06,1.39.13,2.8.13,3.8,0,.5-.02.85-.07,1.08-.47-.12-1.39-1.06-2.79-2.88-.88-1.14-1.14-1.48-1.65-1.3-.24.08-.43.39-.43.64,0,.92,1.74,9.36,4.44,12.78,2.49,3.15,6.93,17.27,6.98,17.4.09.31.43.48.73.39.25-.09.4-.31.4-.56,0-.06,0-.12-.02-.17-.18-.59-4.54-14.46-7.17-17.78-1.83-2.31-3.28-7.5-3.88-10.28,1.46,1.86,2.77,3.3,3.95,2.91.79-.26.77-1.38.55-6.07-.33-6.85-.87-18.31,3.26-21.38,1.19-.89,2.71-.99,4.62-.32.15.03,8.77.72,8.77.72.32.02.61-.21.63-.54.03-.31-.21-.59-.54-.62l-8.62-.69c-2.13-.77-4.05-.6-5.55.52Z"></path><g><path class="cls-4" d="m38.31,65.47s-9.97.84-12.88,5.41"></path><path class="cls-2" d="m38.27,64.89c-.42.03-10.3.91-13.33,5.67-.17.27-.09.63.18.8.27.17.63.09.81-.18,2.72-4.28,12.34-5.13,12.44-5.14.32-.02.56-.3.53-.63-.03-.32-.31-.56-.63-.53Z"></path></g><path class="cls-2" d="m124.69,106.02c-.3.03-.52.29-.52.58v.06s.07.68.07,1.71c0,2.56-.4,7.4-3.19,10.43-.1.11-.16.25-.16.39s.04.26.12.37c2.2,2.77,2.53,9.74,2.53,13.61,0,.67-.01,1.18-.03,1.62-3.29-2.44-5.8-3.13-7.6-2.01-4.77,2.95-1.79,17.3-1.44,18.92.07.31.38.52.69.45.32-.07.51-.38.45-.7-.92-4.19-2.54-15.55.91-17.68,1.46-.9,3.94,0,7.17,2.6.17.14.41.17.6.08.21-.09.33-.28.35-.5,0-.15.06-1.25.06-2.85,0-3.89-.35-10.68-2.55-13.9,2.78-3.31,3.26-8.09,3.26-10.75,0-1.09-.08-1.82-.08-1.91-.04-.32-.33-.55-.64-.52Z"></path><path d="m79.22,38.63c.12.46-.44,1.02-1.25,1.23-.8.22-1.56,0-1.68-.47-.12-.47.44-1.02,1.24-1.24.81-.21,1.57,0,1.69.47Z"></path><path d="m161.22,132.94c-.17.4-.86.47-1.55.17-.68-.3-1.09-.87-.91-1.27.17-.39.87-.47,1.55-.17.69.31,1.1.88.91,1.27Z"></path></g></g><g><path class="cls-1" d="m12.86,335.26h3.09v17.66h-3.09v-17.66Z"></path><path class="cls-1" d="m25.03,340.13h2.67v1.88l.05.05c.43-.71.99-1.27,1.68-1.67.69-.4,1.46-.61,2.3-.61,1.4,0,2.51.36,3.32,1.09.81.73,1.21,1.81,1.21,3.27v8.78h-2.82v-8.04c-.03-1.01-.25-1.74-.64-2.19-.4-.45-1.01-.68-1.85-.68-.48,0-.91.09-1.29.26-.38.17-.7.41-.96.72-.26.31-.47.66-.62,1.08s-.22.85-.22,1.31v7.54h-2.82v-12.79Z"></path><path class="cls-1" d="m43.16,340.13h2.1v-1.06c0-.81.1-1.46.3-1.97s.46-.89.79-1.16c.33-.27.71-.45,1.12-.54.42-.09.86-.14,1.32-.14.91,0,1.57.06,1.98.17v2.2c-.18-.05-.38-.09-.58-.11-.21-.03-.45-.04-.73-.04-.38,0-.71.09-.98.27-.27.18-.41.54-.41,1.06v1.31h2.4v2.1h-2.4v10.69h-2.82v-10.69h-2.1v-2.1Z"></path><path class="cls-1" d="m62.28,353.27c-1.02,0-1.93-.17-2.73-.51-.8-.34-1.48-.8-2.03-1.4s-.97-1.3-1.26-2.13c-.29-.83-.43-1.73-.43-2.72s.14-1.87.43-2.7c.29-.82.71-1.53,1.26-2.13s1.23-1.06,2.03-1.4c.8-.34,1.71-.51,2.73-.51s1.93.17,2.73.51,1.48.8,2.03,1.4.97,1.3,1.26,2.13c.29.82.43,1.72.43,2.7s-.14,1.9-.43,2.72c-.29.82-.71,1.53-1.26,2.13s-1.23,1.06-2.03,1.4-1.71.51-2.73.51Zm0-2.23c.63,0,1.17-.13,1.63-.4.46-.26.84-.61,1.14-1.04s.52-.91.66-1.45c.14-.54.21-1.08.21-1.65s-.07-1.09-.21-1.63c-.14-.54-.36-1.03-.66-1.45-.3-.42-.68-.76-1.14-1.03-.46-.26-1.01-.4-1.63-.4s-1.17.13-1.63.4-.84.61-1.14,1.03c-.3.42-.52.9-.66,1.45-.14.54-.21,1.09-.21,1.63s.07,1.11.21,1.65c.14.54.36,1.02.66,1.45s.68.78,1.14,1.04c.46.26,1.01.4,1.63.4Z"></path><path class="cls-1" d="m89.72,346.02c-.07.2-.12.4-.16.59-.04.2-.06.38-.06.54s.04.3.11.41.19.16.36.16c.38,0,.76-.14,1.15-.41.39-.27.73-.65,1.04-1.12.3-.48.55-1.04.74-1.7.19-.65.28-1.36.28-2.11,0-.92-.17-1.75-.52-2.49-.35-.73-.82-1.36-1.42-1.87-.6-.51-1.3-.9-2.1-1.17-.8-.27-1.65-.41-2.56-.41-1.06,0-2.02.19-2.88.58-.87.39-1.61.92-2.24,1.58-.63.67-1.11,1.45-1.46,2.35-.35.9-.52,1.87-.52,2.91,0,1.2.19,2.29.56,3.27.37.97.88,1.8,1.53,2.47.65.68,1.43,1.2,2.33,1.57.9.37,1.87.56,2.91.56s2.12-.21,3.09-.64c.97-.43,1.8-1.03,2.47-1.81h1.73c-.79,1.29-1.84,2.28-3.14,2.99s-2.72,1.06-4.25,1.06c-1.27,0-2.47-.24-3.59-.71-1.12-.47-2.1-1.13-2.93-1.97-.83-.84-1.49-1.85-1.97-3.02-.48-1.17-.72-2.46-.72-3.88,0-1.25.24-2.42.73-3.5.49-1.08,1.14-2.02,1.97-2.83.82-.81,1.79-1.44,2.88-1.9s2.26-.69,3.5-.69c1.11,0,2.16.18,3.15.53s1.88.85,2.63,1.5c.76.64,1.36,1.41,1.82,2.3.45.89.68,1.86.68,2.92,0,1.24-.21,2.32-.63,3.24-.42.92-.93,1.69-1.53,2.3-.6.61-1.24,1.07-1.92,1.37-.68.31-1.26.46-1.76.46-.38,0-.71-.12-.99-.36-.28-.24-.44-.6-.47-1.08h-.05c-.33.38-.74.71-1.24.99-.49.28-1.01.42-1.53.42s-.99-.1-1.43-.31-.83-.49-1.15-.84c-.32-.35-.57-.77-.75-1.24-.18-.47-.27-.97-.27-1.5,0-.79.13-1.57.4-2.33.26-.76.63-1.44,1.1-2.05.47-.61,1.04-1.1,1.71-1.47s1.41-.56,2.21-.56c.58,0,1.1.14,1.58.42s.87.73,1.19,1.36l.45-1.41h1.73l-1.78,6.51Zm-4.5,1.56c.5,0,.95-.14,1.36-.43.41-.29.77-.65,1.06-1.09.3-.44.53-.92.71-1.43.17-.52.26-1,.26-1.45,0-.3-.05-.58-.16-.84s-.25-.5-.42-.69c-.17-.2-.38-.35-.62-.47-.24-.12-.49-.17-.75-.17-.51,0-.98.14-1.4.42s-.78.63-1.08,1.05c-.3.42-.53.89-.69,1.4-.17.51-.25,1-.25,1.46,0,.66.18,1.2.53,1.62.35.42.84.63,1.45.63Z"></path><path class="cls-1" d="m104.64,335.26h3.09v17.66h-3.09v-17.66Z"></path><path class="cls-1" d="m117.2,335.26h12.2v2.67h-9.1v4.63h7.99v2.52h-7.99v7.84h-3.09v-17.66Z"></path><path class="cls-1" d="m137.56,335.26h8.58c1.58,0,2.85.36,3.81,1.09.96.73,1.43,1.82,1.43,3.29,0,.89-.22,1.65-.66,2.29-.44.63-1.06,1.13-1.87,1.47v.05c1.09.23,1.91.75,2.47,1.55s.84,1.8.84,3.01c0,.69-.12,1.34-.37,1.94-.25.6-.64,1.12-1.16,1.56-.53.44-1.2.78-2.03,1.04-.83.26-1.81.38-2.94.38h-8.11v-17.66Zm3.09,7.4h5.05c.74,0,1.36-.21,1.86-.63.49-.42.74-1.03.74-1.82,0-.89-.22-1.52-.67-1.88-.45-.36-1.09-.54-1.93-.54h-5.05v4.87Zm0,7.74h5.47c.94,0,1.67-.24,2.19-.73s.78-1.17.78-2.07-.26-1.55-.78-2.02-1.25-.71-2.19-.71h-5.47v5.52Z"></path><path class="cls-1" d="m160.67,335.26h8.58c1.58,0,2.85.36,3.81,1.09.96.73,1.43,1.82,1.43,3.29,0,.89-.22,1.65-.66,2.29-.44.63-1.06,1.13-1.87,1.47v.05c1.09.23,1.91.75,2.47,1.55s.84,1.8.84,3.01c0,.69-.12,1.34-.37,1.94-.25.6-.64,1.12-1.16,1.56-.53.44-1.2.78-2.03,1.04-.83.26-1.81.38-2.94.38h-8.11v-17.66Zm3.09,7.4h5.05c.74,0,1.36-.21,1.86-.63.49-.42.74-1.03.74-1.82,0-.89-.22-1.52-.67-1.88-.45-.36-1.09-.54-1.93-.54h-5.05v4.87Zm0,7.74h5.47c.94,0,1.67-.24,2.19-.73s.78-1.17.78-2.07-.26-1.55-.78-2.02-1.25-.71-2.19-.71h-5.47v5.52Z"></path><path class="cls-1" d="m183.11,344.86h7.2v2.67h-7.2v-2.67Z"></path><path class="cls-1" d="m198.1,335.26h7.79c1.25,0,2.28.18,3.07.54.79.36,1.4.82,1.83,1.36.43.54.72,1.14.88,1.78.16.64.24,1.24.24,1.78s-.08,1.13-.24,1.77c-.16.63-.45,1.22-.88,1.77-.43.54-1.04.99-1.83,1.35-.79.36-1.81.53-3.07.53h-4.7v6.78h-3.09v-17.66Zm3.09,8.36h4.53c.35,0,.7-.05,1.06-.15.36-.1.7-.26,1-.48.3-.22.55-.52.74-.89s.28-.84.28-1.4-.08-1.06-.25-1.43c-.17-.38-.39-.68-.67-.9s-.6-.38-.96-.46c-.36-.08-.75-.12-1.16-.12h-4.58v5.84Z"></path><path class="cls-1" d="m219.89,340.13h2.65v2.47h.05c.08-.35.24-.68.48-1.01.24-.33.53-.63.87-.9.34-.27.71-.49,1.13-.66s.83-.25,1.26-.25c.33,0,.56,0,.68.02.12.02.25.03.38.05v2.72c-.2-.03-.4-.06-.61-.09-.21-.03-.41-.04-.61-.04-.48,0-.93.09-1.35.28-.42.19-.79.47-1.1.84s-.56.83-.74,1.37-.27,1.17-.27,1.88v6.09h-2.82v-12.79Z"></path><path class="cls-1" d="m239.71,353.27c-1.02,0-1.93-.17-2.73-.51-.8-.34-1.48-.8-2.03-1.4s-.97-1.3-1.26-2.13c-.29-.83-.43-1.73-.43-2.72s.14-1.87.43-2.7c.29-.82.71-1.53,1.26-2.13s1.23-1.06,2.03-1.4c.8-.34,1.71-.51,2.73-.51s1.93.17,2.73.51,1.48.8,2.03,1.4.97,1.3,1.26,2.13c.29.82.43,1.72.43,2.7s-.14,1.9-.43,2.72c-.29.82-.71,1.53-1.26,2.13s-1.23,1.06-2.03,1.4-1.71.51-2.73.51Zm0-2.23c.63,0,1.17-.13,1.63-.4.46-.26.84-.61,1.14-1.04s.52-.91.66-1.45c.14-.54.21-1.08.21-1.65s-.07-1.09-.21-1.63c-.14-.54-.36-1.03-.66-1.45-.3-.42-.68-.76-1.14-1.03-.46-.26-1.01-.4-1.63-.4s-1.17.13-1.63.4-.84.61-1.14,1.03c-.3.42-.52.9-.66,1.45-.14.54-.21,1.09-.21,1.63s.07,1.11.21,1.65c.14.54.36,1.02.66,1.45s.68.78,1.14,1.04c.46.26,1.01.4,1.63.4Z"></path><path class="cls-1" d="m254.6,335.26h3.09v14.99h8.98v2.67h-12.07v-17.66Z"></path><path class="cls-1" d="m276.29,347.26c0,.5.07.97.21,1.43.14.46.35.87.63,1.21.28.35.63.62,1.06.83s.94.31,1.53.31c.82,0,1.49-.18,1.99-.53s.88-.89,1.12-1.6h2.67c-.15.69-.4,1.31-.77,1.86-.36.54-.8,1-1.31,1.37-.51.37-1.08.65-1.72.84s-1.3.29-1.99.29c-1.01,0-1.9-.17-2.67-.5-.78-.33-1.43-.79-1.97-1.39-.54-.59-.94-1.3-1.21-2.13-.27-.82-.41-1.73-.41-2.72,0-.91.14-1.77.43-2.58.29-.82.7-1.53,1.24-2.15.54-.62,1.18-1.11,1.94-1.47.76-.36,1.62-.54,2.57-.54,1.01,0,1.91.21,2.71.63.8.42,1.46.98,1.99,1.67.53.69.91,1.49,1.15,2.39.24.9.3,1.83.19,2.78h-9.4Zm6.58-1.86c-.03-.45-.13-.87-.29-1.29-.16-.41-.37-.77-.64-1.08-.27-.3-.6-.55-.99-.74-.39-.19-.82-.28-1.3-.28s-.94.09-1.35.26c-.4.17-.75.41-1.04.72-.29.31-.52.66-.69,1.08-.17.41-.27.86-.29,1.34h6.58Z"></path><path class="cls-1" d="m304.25,350.08c0,.35.04.59.14.74s.27.22.53.22h.3c.12,0,.25-.02.4-.05v1.95c-.1.03-.23.07-.38.11-.16.04-.32.08-.48.11s-.33.06-.49.07c-.17.02-.31.03-.42.03-.58,0-1.06-.12-1.43-.35-.38-.23-.63-.63-.74-1.21-.56.54-1.25.94-2.07,1.19-.82.25-1.6.37-2.36.37-.58,0-1.13-.08-1.66-.24-.53-.16-.99-.39-1.4-.69-.4-.31-.73-.69-.96-1.16s-.36-1.02-.36-1.64c0-.79.14-1.44.43-1.93.29-.5.67-.88,1.14-1.16.47-.28,1-.48,1.58-.61.59-.12,1.18-.22,1.77-.28.51-.1,1-.17,1.46-.21s.87-.11,1.22-.21c.35-.1.63-.25.84-.46.21-.21.31-.52.31-.93,0-.36-.09-.66-.26-.89-.17-.23-.39-.41-.64-.53-.26-.12-.54-.21-.85-.25-.31-.04-.61-.06-.89-.06-.79,0-1.44.17-1.96.49-.51.33-.8.84-.87,1.53h-2.82c.05-.82.25-1.51.59-2.05.35-.54.79-.98,1.32-1.31s1.14-.56,1.82-.69c.68-.13,1.37-.2,2.08-.2.63,0,1.25.07,1.86.2.61.13,1.16.35,1.64.64s.88.68,1.18,1.15.45,1.04.45,1.72v6.58Zm-2.82-3.56c-.43.28-.96.45-1.58.51-.63.06-1.25.14-1.88.26-.3.05-.58.12-.87.21-.28.09-.53.21-.74.37-.21.16-.38.36-.51.62-.12.26-.19.57-.19.93,0,.31.09.58.27.79.18.21.4.38.66.51.26.12.54.21.84.26.3.05.58.07.83.07.31,0,.65-.04,1.01-.12.36-.08.71-.22,1.03-.42.32-.2.59-.45.8-.75.21-.3.32-.68.32-1.13v-2.1Z"></path><path class="cls-1" d="m323.82,352.25c0,1.93-.54,3.37-1.62,4.32s-2.63,1.42-4.66,1.42c-.64,0-1.29-.07-1.94-.2-.65-.13-1.25-.35-1.78-.67-.54-.31-.99-.73-1.35-1.24-.36-.51-.58-1.14-.64-1.88h2.82c.08.4.22.72.42.96.2.25.43.44.71.58.27.14.57.23.9.27.33.04.68.06,1.04.06,1.14,0,1.97-.28,2.5-.84.53-.56.79-1.37.79-2.42v-1.95h-.05c-.4.71-.94,1.26-1.62,1.66-.68.4-1.42.59-2.21.59-1.02,0-1.89-.18-2.61-.53-.72-.35-1.31-.84-1.78-1.46-.47-.62-.81-1.33-1.03-2.14-.21-.81-.32-1.67-.32-2.6,0-.86.13-1.67.4-2.45s.64-1.46,1.14-2.04c.5-.58,1.1-1.05,1.82-1.4.72-.35,1.53-.52,2.44-.52.81,0,1.55.17,2.23.51s1.2.87,1.56,1.6h.05v-1.76h2.82v12.12Zm-6.26-1.56c.63,0,1.16-.13,1.6-.38.44-.25.79-.59,1.06-1.01.27-.42.47-.9.59-1.43.12-.54.19-1.08.19-1.62s-.07-1.07-.2-1.58c-.13-.51-.33-.96-.61-1.36-.27-.4-.63-.71-1.06-.94-.44-.23-.96-.35-1.57-.35s-1.16.13-1.58.4-.78.61-1.04,1.03c-.26.42-.45.9-.57,1.43-.12.54-.17,1.07-.17,1.6s.07,1.04.2,1.55.33.95.61,1.35c.27.4.62.72,1.04.96.42.25.93.37,1.52.37Z"></path><path class="cls-1" d="m342.59,352.92h-2.77v-1.78h-.05c-.35.64-.86,1.16-1.55,1.55-.68.39-1.38.58-2.09.58-1.68,0-2.9-.42-3.65-1.25-.75-.83-1.13-2.09-1.13-3.77v-8.11h2.82v7.84c0,1.12.21,1.91.64,2.37.43.46,1.03.69,1.81.69.59,0,1.09-.09,1.48-.27.4-.18.72-.42.96-.73.25-.3.42-.67.53-1.1s.16-.89.16-1.39v-7.42h2.82v12.79Z"></path><path class="cls-1" d="m351.97,347.26c0,.5.07.97.21,1.43.14.46.35.87.63,1.21.28.35.63.62,1.06.83s.94.31,1.53.31c.82,0,1.49-.18,1.99-.53s.88-.89,1.12-1.6h2.67c-.15.69-.4,1.31-.77,1.86-.36.54-.8,1-1.31,1.37-.51.37-1.08.65-1.72.84s-1.3.29-1.99.29c-1.01,0-1.9-.17-2.67-.5-.78-.33-1.43-.79-1.97-1.39-.54-.59-.94-1.3-1.21-2.13-.27-.82-.41-1.73-.41-2.72,0-.91.14-1.77.43-2.58.29-.82.7-1.53,1.24-2.15.54-.62,1.18-1.11,1.94-1.47.76-.36,1.62-.54,2.57-.54,1.01,0,1.91.21,2.71.63.8.42,1.46.98,1.99,1.67.53.69.91,1.49,1.15,2.39.24.9.3,1.83.19,2.78h-9.4Zm6.58-1.86c-.03-.45-.13-.87-.29-1.29-.16-.41-.37-.77-.64-1.08-.27-.3-.6-.55-.99-.74-.39-.19-.82-.28-1.3-.28s-.94.09-1.35.26c-.4.17-.75.41-1.04.72-.29.31-.52.66-.69,1.08-.17.41-.27.86-.29,1.34h6.58Z"></path><path class="cls-1" d="m368.94,349.58h3.44v3.34h-3.44v-3.34Z"></path><path class="cls-1" d="m388.43,344.41c-.12-.79-.43-1.39-.95-1.79-.52-.4-1.18-.61-1.97-.61-.36,0-.75.06-1.16.19-.41.12-.79.35-1.14.69-.35.34-.64.81-.87,1.41-.23.6-.35,1.39-.35,2.36,0,.53.06,1.06.19,1.58.12.53.32,1,.59,1.41.27.41.62.75,1.05,1s.95.38,1.56.38c.82,0,1.5-.26,2.04-.77.54-.51.87-1.23,1-2.15h2.82c-.26,1.67-.9,2.94-1.89,3.82-1,.88-2.32,1.32-3.97,1.32-1.01,0-1.89-.17-2.66-.51-.77-.34-1.42-.8-1.94-1.38-.53-.59-.93-1.28-1.2-2.09-.27-.81-.41-1.68-.41-2.62s.13-1.86.4-2.7c.26-.84.66-1.57,1.19-2.19.53-.62,1.18-1.1,1.97-1.46.78-.35,1.7-.53,2.76-.53.74,0,1.45.09,2.12.28s1.26.47,1.78.85c.52.38.94.86,1.27,1.43.33.58.53,1.26.59,2.05h-2.82Z"></path><path class="cls-1" d="m404.61,353.27c-1.02,0-1.93-.17-2.73-.51s-1.48-.8-2.03-1.4-.97-1.3-1.26-2.13c-.29-.83-.43-1.73-.43-2.72s.14-1.87.43-2.7c.29-.82.71-1.53,1.26-2.13s1.23-1.06,2.03-1.4,1.71-.51,2.73-.51,1.93.17,2.73.51c.8.34,1.48.8,2.03,1.4s.97,1.3,1.26,2.13c.29.82.43,1.72.43,2.7s-.14,1.9-.43,2.72c-.29.82-.71,1.53-1.26,2.13s-1.23,1.06-2.03,1.4c-.8.34-1.71.51-2.73.51Zm0-2.23c.63,0,1.17-.13,1.63-.4.46-.26.84-.61,1.14-1.04s.51-.91.66-1.45c.14-.54.21-1.08.21-1.65s-.07-1.09-.21-1.63c-.14-.54-.36-1.03-.66-1.45-.3-.42-.68-.76-1.14-1.03-.46-.26-1.01-.4-1.63-.4s-1.17.13-1.63.4c-.46.26-.84.61-1.14,1.03-.3.42-.52.9-.66,1.45-.14.54-.21,1.09-.21,1.63s.07,1.11.21,1.65c.14.54.36,1.02.66,1.45s.68.78,1.14,1.04c.46.26,1.01.4,1.63.4Z"></path><path class="cls-1" d="m417.62,340.13h2.67v1.78h.07c.21-.31.45-.6.69-.87s.52-.49.83-.67c.3-.18.66-.33,1.05-.43.4-.11.85-.16,1.36-.16.77,0,1.5.17,2.16.52.67.35,1.14.88,1.42,1.61.48-.66,1.03-1.18,1.66-1.56.63-.38,1.41-.57,2.35-.57,1.35,0,2.4.33,3.15.99.75.66,1.13,1.76,1.13,3.31v8.83h-2.82v-7.47c0-.51-.02-.98-.05-1.4-.03-.42-.13-.78-.28-1.09-.16-.3-.39-.54-.71-.71s-.74-.25-1.29-.25c-.96,0-1.65.3-2.08.89-.43.59-.64,1.43-.64,2.52v7.5h-2.82v-8.21c0-.89-.16-1.56-.48-2.02-.32-.45-.91-.68-1.77-.68-.36,0-.71.07-1.05.22-.34.15-.64.36-.89.64-.26.28-.46.63-.62,1.04-.16.41-.23.88-.23,1.41v7.59h-2.82v-12.79Z"></path></g></svg> 