<?xml version="1.0" encoding="utf-8"?>
<!-- Generator: Adobe Illustrator 25.0.0, SVG Export Plug-In . SVG Version: 6.00 Build 0)  -->
<svg version="1.1" id="Logo" xmlns="http://www.w3.org/2000/svg" xmlns:xlink="http://www.w3.org/1999/xlink" x="0px" y="0px"
	 viewBox="0 0 446 350" style="enable-background:new 0 0 446 350;" xml:space="preserve">
<style type="text/css">
	.st0{fill:#2D347C;}
	.st1{fill:#F3DACB;}
	.st2{fill:#E8C8BA;}
	.st3{fill:#231F20;}
	.st4{fill:#FFFFFF;}
</style>
<g id="Logo_Wrap">
	<g id="Logo_Text">
		<g id="Email">
			<g>
				<path class="st0" d="M12.3,327.8h3V345h-3V327.8z"/>
				<path class="st0" d="M24.2,332.6h2.6v1.8l0,0c0.4-0.7,1-1.2,1.6-1.6c0.7-0.4,1.4-0.6,2.2-0.6c1.4,0,2.4,0.4,3.2,1.1
					s1.2,1.8,1.2,3.2v8.6h-2.8v-7.9c0-1-0.2-1.7-0.6-2.1s-1-0.7-1.8-0.7c-0.5,0-0.9,0.1-1.3,0.3c-0.4,0.2-0.7,0.4-0.9,0.7
					c-0.3,0.3-0.5,0.6-0.6,1.1c-0.1,0.4-0.2,0.8-0.2,1.3v7.4H24v-12.6H24.2z"/>
				<path class="st0" d="M41.9,332.6H44v-1c0-0.8,0.1-1.4,0.3-1.9s0.5-0.9,0.8-1.1c0.3-0.3,0.7-0.4,1.1-0.5c0.4-0.1,0.8-0.1,1.3-0.1
					c0.9,0,1.5,0.1,1.9,0.2v2.2c-0.2,0-0.4-0.1-0.6-0.1c-0.2,0-0.4,0-0.7,0c-0.4,0-0.7,0.1-1,0.3c-0.3,0.2-0.4,0.5-0.4,1v1.3H49v2.1
					h-2.3v10H44v-10.4h-2.1V332.6z"/>
				<path class="st0" d="M60.6,345.4c-1,0-1.9-0.2-2.7-0.5s-1.4-0.8-2-1.4c-0.5-0.6-1-1.3-1.2-2.1c-0.3-0.8-0.4-1.7-0.4-2.7
					c0-0.9,0.1-1.8,0.4-2.6c0.3-0.8,0.7-1.5,1.2-2.1s1.2-1,2-1.4c0.8-0.3,1.7-0.5,2.7-0.5s1.9,0.2,2.7,0.5s1.4,0.8,2,1.4
					c0.5,0.6,1,1.3,1.2,2.1c0.3,0.8,0.4,1.7,0.4,2.6c0,1-0.1,1.9-0.4,2.7c-0.3,0.8-0.7,1.5-1.2,2.1s-1.2,1-2,1.4
					C62.5,345.2,61.6,345.4,60.6,345.4z M60.6,343.2c0.6,0,1.1-0.1,1.6-0.4s0.8-0.6,1.1-1s0.5-0.9,0.6-1.4s0.2-1.1,0.2-1.6
					s-0.1-1.1-0.2-1.6s-0.3-1-0.6-1.4s-0.7-0.7-1.1-1c-0.5-0.3-1-0.4-1.6-0.4s-1.1,0.1-1.6,0.4s-0.8,0.6-1.1,1s-0.5,0.9-0.6,1.4
					s-0.2,1.1-0.2,1.6s0.1,1.1,0.2,1.6c0.1,0.5,0.4,1,0.6,1.4c0.3,0.4,0.7,0.8,1.1,1C59.4,343.1,60,343.2,60.6,343.2z"/>
				<path class="st0" d="M87.4,338.3c-0.1,0.2-0.1,0.4-0.2,0.6c0,0.2-0.1,0.4-0.1,0.5s0,0.3,0.1,0.4s0.2,0.2,0.3,0.2
					c0.4,0,0.7-0.1,1.1-0.4s0.7-0.6,1-1.1s0.5-1,0.7-1.7c0.2-0.6,0.3-1.3,0.3-2.1c0-0.9-0.2-1.7-0.5-2.4c-0.3-0.7-0.8-1.3-1.4-1.8
					s-1.3-0.9-2.1-1.1c-0.8-0.3-1.6-0.4-2.5-0.4c-1,0-2,0.2-2.8,0.6s-1.6,0.9-2.2,1.5c-0.6,0.7-1.1,1.4-1.4,2.3s-0.5,1.8-0.5,2.8
					c0,1.2,0.2,2.2,0.5,3.2c0.4,1,0.9,1.8,1.5,2.4c0.6,0.7,1.4,1.2,2.3,1.5s1.8,0.5,2.8,0.5c1.1,0,2.1-0.2,3-0.6
					c1-0.4,1.8-1,2.4-1.8h1.7c-0.8,1.3-1.8,2.2-3.1,2.9c-1.3,0.7-2.7,1-4.2,1c-1.2,0-2.4-0.2-3.5-0.7s-2-1.1-2.9-1.9
					c-0.8-0.8-1.5-1.8-1.9-2.9c-0.5-1.1-0.7-2.4-0.7-3.8c0-1.2,0.2-2.4,0.7-3.4c0.5-1.1,1.1-2,1.9-2.8s1.7-1.4,2.8-1.9
					s2.2-0.7,3.4-0.7c1.1,0,2.1,0.2,3.1,0.5s1.8,0.8,2.6,1.5c0.7,0.6,1.3,1.4,1.8,2.2c0.4,0.9,0.7,1.8,0.7,2.9
					c0,1.2-0.2,2.3-0.6,3.2c-0.4,0.9-0.9,1.7-1.5,2.2c-0.6,0.6-1.2,1-1.9,1.3c-0.7,0.3-1.2,0.4-1.7,0.4c-0.4,0-0.7-0.1-1-0.4
					c-0.3-0.2-0.4-0.6-0.5-1.1l0,0c-0.3,0.4-0.7,0.7-1.2,1s-1,0.4-1.5,0.4s-1-0.1-1.4-0.3c-0.4-0.2-0.8-0.5-1.1-0.8
					c-0.3-0.3-0.6-0.7-0.7-1.2c-0.2-0.5-0.3-0.9-0.3-1.5c0-0.8,0.1-1.5,0.4-2.3c0.3-0.7,0.6-1.4,1.1-2s1-1.1,1.7-1.4
					c0.7-0.4,1.4-0.5,2.2-0.5c0.6,0,1.1,0.1,1.5,0.4c0.5,0.3,0.9,0.7,1.2,1.3l0.4-1.4h1.7L87.4,338.3z M83,339.8
					c0.5,0,0.9-0.1,1.3-0.4s0.7-0.6,1-1.1c0.3-0.4,0.5-0.9,0.7-1.4s0.3-1,0.3-1.4c0-0.3-0.1-0.6-0.2-0.8c-0.1-0.3-0.2-0.5-0.4-0.7
					c-0.2-0.2-0.4-0.3-0.6-0.5c-0.2-0.1-0.5-0.2-0.7-0.2c-0.5,0-1,0.1-1.4,0.4s-0.8,0.6-1.1,1c-0.3,0.4-0.5,0.9-0.7,1.4
					s-0.2,1-0.2,1.4c0,0.6,0.2,1.2,0.5,1.6C81.9,339.6,82.4,339.8,83,339.8z"/>
				<path class="st0" d="M101.9,327.8h3V345h-3V327.8z"/>
				<path class="st0" d="M114.2,327.8h11.9v2.6h-8.9v4.5h7.8v2.5h-7.8v7.7h-3V327.8z"/>
				<path class="st0" d="M134.1,327.8h8.4c1.5,0,2.8,0.4,3.7,1.1s1.4,1.8,1.4,3.2c0,0.9-0.2,1.6-0.6,2.2c-0.4,0.6-1,1.1-1.8,1.4l0,0
					c1.1,0.2,1.9,0.7,2.4,1.5s0.8,1.8,0.8,2.9c0,0.7-0.1,1.3-0.4,1.9c-0.2,0.6-0.6,1.1-1.1,1.5s-1.2,0.8-2,1s-1.8,0.4-2.9,0.4h-7.9
					L134.1,327.8L134.1,327.8z M137.1,335h4.9c0.7,0,1.3-0.2,1.8-0.6s0.7-1,0.7-1.8c0-0.9-0.2-1.5-0.7-1.8c-0.4-0.4-1.1-0.5-1.9-0.5
					H137L137.1,335L137.1,335z M137.1,342.6h5.3c0.9,0,1.6-0.2,2.1-0.7s0.8-1.1,0.8-2s-0.3-1.5-0.8-2s-1.2-0.7-2.1-0.7h-5.3V342.6z"
					/>
				<path class="st0" d="M156.6,327.8h8.4c1.5,0,2.8,0.4,3.7,1.1s1.4,1.8,1.4,3.2c0,0.9-0.2,1.6-0.6,2.2c-0.4,0.6-1,1.1-1.8,1.4l0,0
					c1.1,0.2,1.9,0.7,2.4,1.5s0.8,1.8,0.8,2.9c0,0.7-0.1,1.3-0.4,1.9c-0.2,0.6-0.6,1.1-1.1,1.5s-1.2,0.8-2,1s-1.8,0.4-2.9,0.4h-7.9
					L156.6,327.8L156.6,327.8z M159.7,335h4.9c0.7,0,1.3-0.2,1.8-0.6s0.7-1,0.7-1.8c0-0.9-0.2-1.5-0.7-1.8c-0.4-0.4-1.1-0.5-1.9-0.5
					h-4.9L159.7,335L159.7,335z M159.7,342.6h5.3c0.9,0,1.6-0.2,2.1-0.7s0.8-1.1,0.8-2s-0.3-1.5-0.8-2s-1.2-0.7-2.1-0.7h-5.3V342.6z
					"/>
				<path class="st0" d="M178.6,337.2h7v2.6h-7V337.2z"/>
				<path class="st0" d="M193.2,327.8h7.6c1.2,0,2.2,0.2,3,0.5c0.8,0.4,1.4,0.8,1.8,1.3c0.4,0.5,0.7,1.1,0.9,1.7s0.2,1.2,0.2,1.7
					s-0.1,1.1-0.2,1.7c-0.2,0.6-0.4,1.2-0.9,1.7c-0.4,0.5-1,1-1.8,1.3s-1.8,0.5-3,0.5h-4.6v6.6h-3V327.8z M196.2,336h4.4
					c0.3,0,0.7,0,1-0.1c0.4-0.1,0.7-0.3,1-0.5s0.5-0.5,0.7-0.9s0.3-0.8,0.3-1.4s-0.1-1-0.2-1.4c-0.2-0.4-0.4-0.7-0.7-0.9
					c-0.3-0.2-0.6-0.4-0.9-0.4c-0.4-0.1-0.7-0.1-1.1-0.1h-4.5V336z"/>
				<path class="st0" d="M214.5,332.6h2.6v2.4l0,0c0.1-0.3,0.2-0.7,0.5-1c0.2-0.3,0.5-0.6,0.8-0.9s0.7-0.5,1.1-0.6
					c0.4-0.2,0.8-0.2,1.2-0.2c0.3,0,0.5,0,0.7,0c0.1,0,0.2,0,0.4,0v2.7c-0.2,0-0.4-0.1-0.6-0.1c-0.2,0-0.4,0-0.6,0
					c-0.5,0-0.9,0.1-1.3,0.3c-0.4,0.2-0.8,0.5-1.1,0.8c-0.3,0.4-0.5,0.8-0.7,1.3s-0.3,1.1-0.3,1.8v5.9h-2.8v-12.4H214.5z"/>
				<path class="st0" d="M233.8,345.4c-1,0-1.9-0.2-2.7-0.5s-1.4-0.8-2-1.4c-0.5-0.6-1-1.3-1.2-2.1c-0.3-0.8-0.4-1.7-0.4-2.7
					c0-0.9,0.1-1.8,0.4-2.6c0.3-0.8,0.7-1.5,1.2-2.1s1.2-1,2-1.4c0.8-0.3,1.7-0.5,2.7-0.5s1.9,0.2,2.7,0.5s1.4,0.8,2,1.4
					c0.5,0.6,1,1.3,1.2,2.1c0.3,0.8,0.4,1.7,0.4,2.6c0,1-0.1,1.9-0.4,2.7c-0.3,0.8-0.7,1.5-1.2,2.1s-1.2,1-2,1.4
					C235.7,345.2,234.8,345.4,233.8,345.4z M233.8,343.2c0.6,0,1.1-0.1,1.6-0.4s0.8-0.6,1.1-1s0.5-0.9,0.6-1.4s0.2-1.1,0.2-1.6
					s-0.1-1.1-0.2-1.6s-0.3-1-0.6-1.4s-0.7-0.7-1.1-1c-0.5-0.3-1-0.4-1.6-0.4s-1.1,0.1-1.6,0.4s-0.8,0.6-1.1,1s-0.5,0.9-0.6,1.4
					s-0.2,1.1-0.2,1.6s0.1,1.1,0.2,1.6s0.4,1,0.6,1.4s0.7,0.8,1.1,1C232.7,343.1,233.2,343.2,233.8,343.2z"/>
				<path class="st0" d="M248.4,327.8h3v14.6h8.8v2.6h-11.8L248.4,327.8L248.4,327.8z"/>
				<path class="st0" d="M269.5,339.5c0,0.5,0.1,1,0.2,1.4c0.1,0.5,0.3,0.8,0.6,1.2c0.3,0.3,0.6,0.6,1,0.8c0.4,0.2,0.9,0.3,1.5,0.3
					c0.8,0,1.5-0.2,1.9-0.5c0.5-0.3,0.9-0.9,1.1-1.6h2.6c-0.1,0.7-0.4,1.3-0.7,1.8c-0.4,0.5-0.8,1-1.3,1.3c-0.5,0.4-1.1,0.6-1.7,0.8
					c-0.6,0.2-1.3,0.3-1.9,0.3c-1,0-1.9-0.2-2.6-0.5c-0.8-0.3-1.4-0.8-1.9-1.4s-0.9-1.3-1.2-2.1c-0.3-0.8-0.4-1.7-0.4-2.7
					c0-0.9,0.1-1.7,0.4-2.5s0.7-1.5,1.2-2.1s1.2-1.1,1.9-1.4c0.7-0.4,1.6-0.5,2.5-0.5c1,0,1.9,0.2,2.6,0.6c0.8,0.4,1.4,1,1.9,1.6
					c0.5,0.7,0.9,1.5,1.1,2.3c0.2,0.9,0.3,1.8,0.2,2.7h-9V339.5z M276,337.7c0-0.4-0.1-0.9-0.3-1.3c-0.2-0.4-0.4-0.8-0.6-1.1
					c-0.3-0.3-0.6-0.5-1-0.7s-0.8-0.3-1.3-0.3s-0.9,0.1-1.3,0.3c-0.4,0.2-0.7,0.4-1,0.7c-0.3,0.3-0.5,0.6-0.7,1.1
					c-0.2,0.4-0.3,0.8-0.3,1.3H276z"/>
				<path class="st0" d="M296.8,342.3c0,0.3,0,0.6,0.1,0.7s0.3,0.2,0.5,0.2c0.1,0,0.2,0,0.3,0c0.1,0,0.2,0,0.4,0v1.9
					c-0.1,0-0.2,0.1-0.4,0.1c-0.2,0-0.3,0.1-0.5,0.1s-0.3,0.1-0.5,0.1s-0.3,0-0.4,0c-0.6,0-1-0.1-1.4-0.3c-0.4-0.2-0.6-0.6-0.7-1.2
					c-0.5,0.5-1.2,0.9-2,1.2c-0.8,0.2-1.6,0.4-2.3,0.4c-0.6,0-1.1-0.1-1.6-0.2c-0.5-0.2-1-0.4-1.4-0.7c-0.4-0.3-0.7-0.7-0.9-1.1
					c-0.2-0.5-0.3-1-0.3-1.6c0-0.8,0.1-1.4,0.4-1.9s0.7-0.9,1.1-1.1c0.5-0.3,1-0.5,1.5-0.6c0.6-0.1,1.1-0.2,1.7-0.3
					c0.5-0.1,1-0.2,1.4-0.2c0.5,0,0.8-0.1,1.2-0.2c0.3-0.1,0.6-0.2,0.8-0.4c0.2-0.2,0.3-0.5,0.3-0.9s-0.1-0.6-0.3-0.9
					c-0.2-0.2-0.4-0.4-0.6-0.5s-0.5-0.2-0.8-0.2s-0.6-0.1-0.9-0.1c-0.8,0-1.4,0.2-1.9,0.5s-0.8,0.8-0.8,1.5H286c0-0.8,0.2-1.5,0.6-2
					c0.3-0.5,0.8-1,1.3-1.3s1.1-0.5,1.8-0.7c0.7-0.1,1.3-0.2,2-0.2c0.6,0,1.2,0.1,1.8,0.2c0.6,0.1,1.1,0.3,1.6,0.6
					c0.5,0.3,0.9,0.7,1.1,1.1c0.3,0.5,0.4,1,0.4,1.7v6.3H296.8z M294.1,338.8c-0.4,0.3-0.9,0.4-1.5,0.5s-1.2,0.1-1.8,0.3
					c-0.3,0-0.6,0.1-0.8,0.2c-0.3,0.1-0.5,0.2-0.7,0.4c-0.2,0.2-0.4,0.4-0.5,0.6s-0.2,0.6-0.2,0.9s0.1,0.6,0.3,0.8
					c0.2,0.2,0.4,0.4,0.6,0.5s0.5,0.2,0.8,0.3c0.3,0,0.6,0.1,0.8,0.1c0.3,0,0.6,0,1-0.1s0.7-0.2,1-0.4c0.3-0.2,0.6-0.4,0.8-0.7
					c0.2-0.3,0.3-0.7,0.3-1.1L294.1,338.8L294.1,338.8z"/>
				<path class="st0" d="M315.9,344.4c0,1.9-0.5,3.3-1.6,4.2c-1.1,0.9-2.6,1.4-4.6,1.4c-0.6,0-1.3-0.1-1.9-0.2s-1.2-0.3-1.7-0.7
					c-0.5-0.3-1-0.7-1.3-1.2c-0.4-0.5-0.6-1.1-0.6-1.8h2.8c0.1,0.4,0.2,0.7,0.4,0.9c0.2,0.2,0.4,0.4,0.7,0.6
					c0.3,0.1,0.6,0.2,0.9,0.3c0.3,0,0.7,0.1,1,0.1c1.1,0,1.9-0.3,2.4-0.8s0.8-1.3,0.8-2.4v-1.9l0,0c-0.4,0.7-0.9,1.2-1.6,1.6
					s-1.4,0.6-2.2,0.6c-1,0-1.8-0.2-2.5-0.5s-1.3-0.8-1.7-1.4c-0.5-0.6-0.8-1.3-1-2.1c-0.2-0.8-0.3-1.6-0.3-2.5
					c0-0.8,0.1-1.6,0.4-2.4s0.6-1.4,1.1-2s1.1-1,1.8-1.4c0.7-0.3,1.5-0.5,2.4-0.5c0.8,0,1.5,0.2,2.2,0.5s1.2,0.8,1.5,1.6l0,0v-1.7
					h2.8v11.7H315.9z M309.8,342.9c0.6,0,1.1-0.1,1.6-0.4c0.4-0.2,0.8-0.6,1-1c0.3-0.4,0.5-0.9,0.6-1.4s0.2-1.1,0.2-1.6
					s-0.1-1-0.2-1.5s-0.3-0.9-0.6-1.3c-0.3-0.4-0.6-0.7-1-0.9c-0.4-0.2-0.9-0.3-1.5-0.3s-1.1,0.1-1.5,0.4s-0.8,0.6-1,1
					c-0.3,0.4-0.4,0.9-0.6,1.4c-0.1,0.5-0.2,1-0.2,1.6c0,0.5,0.1,1,0.2,1.5s0.3,0.9,0.6,1.3c0.3,0.4,0.6,0.7,1,0.9
					S309.2,342.9,309.8,342.9z"/>
				<path class="st0" d="M334.3,345h-2.7v-1.7l0,0c-0.3,0.6-0.8,1.1-1.5,1.5s-1.3,0.6-2,0.6c-1.6,0-2.8-0.4-3.6-1.2
					c-0.7-0.8-1.1-2-1.1-3.7v-7.9h2.8v7.7c0,1.1,0.2,1.9,0.6,2.3c0.4,0.5,1,0.7,1.8,0.7c0.6,0,1.1-0.1,1.4-0.3
					c0.4-0.2,0.7-0.4,0.9-0.7c0.2-0.3,0.4-0.7,0.5-1.1s0.2-0.9,0.2-1.4v-7.2h2.8L334.3,345L334.3,345z"/>
				<path class="st0" d="M343.4,339.5c0,0.5,0.1,1,0.2,1.4c0.1,0.5,0.3,0.8,0.6,1.2c0.3,0.3,0.6,0.6,1,0.8c0.4,0.2,0.9,0.3,1.5,0.3
					c0.8,0,1.5-0.2,1.9-0.5c0.5-0.3,0.9-0.9,1.1-1.6h2.6c-0.1,0.7-0.4,1.3-0.7,1.8c-0.4,0.5-0.8,1-1.3,1.3c-0.5,0.4-1.1,0.6-1.7,0.8
					c-0.6,0.2-1.3,0.3-1.9,0.3c-1,0-1.9-0.2-2.6-0.5c-0.8-0.3-1.4-0.8-1.9-1.4s-0.9-1.3-1.2-2.1c-0.3-0.8-0.4-1.7-0.4-2.7
					c0-0.9,0.1-1.7,0.4-2.5s0.7-1.5,1.2-2.1s1.2-1.1,1.9-1.4c0.7-0.4,1.6-0.5,2.5-0.5c1,0,1.9,0.2,2.6,0.6c0.8,0.4,1.4,1,1.9,1.6
					c0.5,0.7,0.9,1.5,1.1,2.3c0.2,0.9,0.3,1.8,0.2,2.7h-9V339.5z M349.8,337.7c0-0.4-0.1-0.9-0.3-1.3c-0.2-0.4-0.4-0.8-0.6-1.1
					c-0.3-0.3-0.6-0.5-1-0.7s-0.8-0.3-1.3-0.3s-0.9,0.1-1.3,0.3c-0.4,0.2-0.7,0.4-1,0.7c-0.3,0.3-0.5,0.6-0.7,1.1
					c-0.2,0.4-0.3,0.8-0.3,1.3H349.8z"/>
				<path class="st0" d="M360,341.8h3.4v3.3H360V341.8z"/>
				<path class="st0" d="M379,336.7c-0.1-0.8-0.4-1.4-0.9-1.8s-1.1-0.6-1.9-0.6c-0.4,0-0.7,0.1-1.1,0.2s-0.8,0.3-1.1,0.7
					c-0.3,0.3-0.6,0.8-0.8,1.4c-0.2,0.6-0.3,1.4-0.3,2.3c0,0.5,0.1,1,0.2,1.5s0.3,1,0.6,1.4c0.3,0.4,0.6,0.7,1,1s0.9,0.4,1.5,0.4
					c0.8,0,1.5-0.2,2-0.7s0.8-1.2,1-2.1h2.8c-0.3,1.6-0.9,2.9-1.8,3.7c-1,0.9-2.3,1.3-3.9,1.3c-1,0-1.8-0.2-2.6-0.5
					c-0.7-0.3-1.4-0.8-1.9-1.4s-0.9-1.3-1.2-2c-0.3-0.8-0.4-1.6-0.4-2.6c0-0.9,0.1-1.8,0.4-2.6c0.3-0.8,0.6-1.5,1.2-2.1
					c0.5-0.6,1.2-1.1,1.9-1.4c0.8-0.3,1.7-0.5,2.7-0.5c0.7,0,1.4,0.1,2.1,0.3s1.2,0.5,1.7,0.8c0.5,0.4,0.9,0.8,1.2,1.4
					c0.3,0.6,0.5,1.2,0.6,2L379,336.7L379,336.7z"/>
				<path class="st0" d="M394.8,345.4c-1,0-1.9-0.2-2.7-0.5c-0.8-0.3-1.4-0.8-2-1.4c-0.5-0.6-0.9-1.3-1.2-2.1
					c-0.3-0.8-0.4-1.7-0.4-2.7c0-0.9,0.1-1.8,0.4-2.6c0.3-0.8,0.7-1.5,1.2-2.1s1.2-1,2-1.4c0.8-0.3,1.7-0.5,2.7-0.5s1.9,0.2,2.7,0.5
					c0.8,0.3,1.4,0.8,2,1.4c0.5,0.6,0.9,1.3,1.2,2.1c0.3,0.8,0.4,1.7,0.4,2.6c0,1-0.1,1.9-0.4,2.7c-0.3,0.8-0.7,1.5-1.2,2.1
					s-1.2,1-2,1.4C396.7,345.2,395.8,345.4,394.8,345.4z M394.8,343.2c0.6,0,1.1-0.1,1.6-0.4s0.8-0.6,1.1-1s0.5-0.9,0.6-1.4
					s0.2-1.1,0.2-1.6s-0.1-1.1-0.2-1.6s-0.3-1-0.6-1.4c-0.3-0.4-0.7-0.7-1.1-1c-0.5-0.3-1-0.4-1.6-0.4s-1.1,0.1-1.6,0.4
					s-0.8,0.6-1.1,1c-0.3,0.4-0.5,0.9-0.6,1.4s-0.2,1.1-0.2,1.6s0.1,1.1,0.2,1.6s0.3,1,0.6,1.4s0.7,0.8,1.1,1
					C393.7,343.1,394.2,343.2,394.8,343.2z"/>
				<path class="st0" d="M407.5,332.6h2.6v1.7h0.1c0.2-0.3,0.4-0.6,0.7-0.8c0.2-0.3,0.5-0.5,0.8-0.7s0.6-0.3,1-0.4s0.8-0.2,1.3-0.2
					c0.8,0,1.5,0.2,2.1,0.5c0.7,0.3,1.1,0.9,1.4,1.6c0.5-0.6,1-1.2,1.6-1.5c0.6-0.4,1.4-0.6,2.3-0.6c1.3,0,2.3,0.3,3.1,1
					c0.7,0.6,1.1,1.7,1.1,3.2v8.6h-2.8v-7.3c0-0.5,0-1,0-1.4s-0.1-0.8-0.3-1.1c-0.2-0.3-0.4-0.5-0.7-0.7s-0.7-0.2-1.3-0.2
					c-0.9,0-1.6,0.3-2,0.9s-0.6,1.4-0.6,2.5v7.3h-2.8v-8c0-0.9-0.2-1.5-0.5-2c-0.3-0.4-0.9-0.7-1.7-0.7c-0.4,0-0.7,0.1-1,0.2
					s-0.6,0.4-0.9,0.6c-0.2,0.3-0.5,0.6-0.6,1c-0.2,0.4-0.2,0.9-0.2,1.4v7.4h-2.8L407.5,332.6L407.5,332.6z"/>
			</g>
		</g>
		<g id="Proffessional_Leauge">
			<path id="Rights_Reserved" class="st0" d="M439,268.3c3.9,0,7,3.1,7,6.9c0,3.9-3,6.9-7,6.9c-3.9,0-7.1-3-7.1-6.9
				C431.9,271.4,435,268.3,439,268.3L439,268.3z M438.9,269.7c-3,0-5.3,2.5-5.3,5.5s2.3,5.5,5.3,5.5s5.2-2.4,5.2-5.5
				C444.2,272.2,442,269.7,438.9,269.7L438.9,269.7z M437.9,278.7h-1.6v-6.8c0.6-0.1,1.5-0.2,2.6-0.2c1.3,0,1.9,0.2,2.4,0.5
				c0.4,0.3,0.7,0.8,0.7,1.5c0,0.8-0.6,1.4-1.4,1.6v0.1c0.7,0.2,1,0.8,1.3,1.7c0.2,1,0.3,1.5,0.5,1.7h-1.7c-0.2-0.3-0.3-0.8-0.5-1.6
				c-0.1-0.8-0.5-1.1-1.4-1.1h-0.7v2.6H437.9z M437.9,274.9h0.7c0.9,0,1.6-0.3,1.6-1c0-0.6-0.5-1-1.5-1c-0.4,0-0.7,0-0.9,0.1
				L437.9,274.9L437.9,274.9z"/>
			<g id="Leauge">
				<path id="L_00000039845801539562369090000014707086865602544023_" class="st0" d="M290.2,281.3h6.9v17.8h10.8v5.8h-17.7
					L290.2,281.3L290.2,281.3z"/>
				<path id="E_00000139272663213612240170000012618834468171369645_" class="st0" d="M311,281.3h18.5v5.1h-11.6v3.7h10.8v4.8h-10.8
					v4.7h11.9v5.4H311V281.3z"/>
				<path id="A_00000010274719341689292120000002910174975833287347_" class="st0" d="M347.2,301h-7.8l-1.1,3.9h-7.1l8.3-23.6h7.6
					l8.4,23.6h-7.2L347.2,301z M345.7,295.9l-2.4-8.5l-2.4,8.5H345.7z"/>
				<path id="G" class="st0" d="M368.3,296.4v-4.9H379v10.1c-2,1.5-3.8,2.5-5.4,3s-3.4,0.8-5.6,0.8c-2.6,0-4.8-0.5-6.5-1.4
					c-1.7-1-3-2.4-3.9-4.3s-1.4-4.1-1.4-6.5c0-2.6,0.5-4.8,1.5-6.7c1-1.9,2.5-3.4,4.4-4.3c1.5-0.8,3.5-1.2,6.1-1.2
					c2.5,0,4.3,0.2,5.5,0.7s2.2,1.2,3,2.2s1.4,2.3,1.8,3.8l-6.7,1.3c-0.3-0.9-0.7-1.6-1.4-2.1c-0.7-0.5-1.5-0.7-2.5-0.7
					c-1.5,0-2.7,0.6-3.6,1.7s-1.3,2.9-1.3,5.3c0,2.6,0.4,4.4,1.4,5.5c0.9,1.1,2.2,1.7,3.8,1.7c0.8,0,1.5-0.1,2.2-0.4
					c0.7-0.2,1.5-0.6,2.4-1.2v-2.2h-4.5V296.4z"/>
				<path id="U" class="st0" d="M397.6,281.3h6.9v14.1c0,1.4-0.2,2.7-0.6,4s-1,2.3-1.9,3.3c-0.9,0.9-1.8,1.6-2.8,2
					c-1.3,0.5-2.9,0.8-4.8,0.8c-1.1,0-2.3-0.1-3.5-0.3c-1.3-0.2-2.4-0.5-3.2-1c-0.9-0.5-1.7-1.2-2.4-2c-0.7-0.9-1.2-1.8-1.5-2.7
					c-0.4-1.5-0.6-2.8-0.6-4v-14.1h6.9v14.4c0,1.3,0.3,2.3,1,3s1.6,1.1,2.8,1.1s2.1-0.4,2.8-1.1c0.7-0.7,1-1.7,1-3L397.6,281.3
					L397.6,281.3z"/>
				<path id="E_00000159434777190099886880000005130633008501162112_" class="st0" d="M409.1,281.3h18.5v5.1H416v3.7h10.8v4.8H416
					v4.7h11.9v5.4h-18.8V281.3z"/>
			</g>
			<g id="Professional">
				<path id="P" class="st0" d="M10.5,281.3H22c2.5,0,4.4,0.6,5.6,1.9s1.9,3,1.9,5.4s-0.7,4.3-2,5.6c-1.4,1.3-3.4,2-6.2,2h-3.8v8.7
					h-6.9v-23.6H10.5z M17.4,291.3h1.7c1.3,0,2.2-0.2,2.8-0.7c0.5-0.5,0.8-1.1,0.8-1.9c0-0.7-0.2-1.4-0.7-1.9s-1.3-0.8-2.6-0.8h-2
					C17.4,286,17.4,291.3,17.4,291.3z"/>
				<path id="R" class="st0" d="M33.1,304.9v-23.6h11.5c2.1,0,3.8,0.2,4.9,0.6c1.1,0.4,2,1.1,2.7,2.2c0.7,1,1,2.3,1,3.8
					c0,1.3-0.3,2.5-0.8,3.4c-0.5,1-1.3,1.7-2.2,2.3c-0.6,0.4-1.4,0.7-2.4,0.9c0.8,0.3,1.4,0.6,1.8,0.9c0.3,0.2,0.6,0.6,1.1,1.2
					s0.8,1.1,1,1.5L55,305h-7.8l-3.7-7.2c-0.5-0.9-0.9-1.6-1.2-1.8c-0.5-0.4-1.1-0.5-1.7-0.5H40v9.6h-6.9V304.9z M40,290.8h2.9
					c0.3,0,0.9-0.1,1.8-0.3c0.5-0.1,0.8-0.3,1.1-0.7c0.3-0.4,0.4-0.9,0.4-1.4c0-0.8-0.2-1.4-0.7-1.8c-0.4-0.4-1.3-0.6-2.6-0.6h-3
					L40,290.8L40,290.8z"/>
				<path id="O" class="st0" d="M55.9,293.1c0-3.9,1-6.9,3-9c2-2.2,4.9-3.2,8.5-3.2c3.7,0,6.6,1.1,8.6,3.2s3,5.1,3,8.9
					c0,2.8-0.4,5-1.3,6.8s-2.2,3.2-3.8,4.1c-1.7,1-3.7,1.5-6.2,1.5s-4.6-0.4-6.2-1.3c-1.7-0.8-3-2.2-4-4
					C56.4,298.2,55.9,295.9,55.9,293.1z M62.8,293.2c0,2.4,0.4,4.1,1.3,5.1c0.8,1,2,1.6,3.4,1.6c1.5,0,2.6-0.5,3.4-1.5
					s1.2-2.8,1.2-5.5c0-2.2-0.4-3.9-1.3-4.9s-2-1.5-3.4-1.5s-2.5,0.5-3.3,1.6C63.2,289,62.8,290.7,62.8,293.2z"/>
				<path id="F" class="st0" d="M82.7,281.3h17.1v5.1H89.7v4.1h8.6v4.8h-8.6v9.7h-6.9L82.7,281.3L82.7,281.3z"/>
				<path id="E" class="st0" d="M103.5,281.3H122v5.1h-11.6v3.7h10.8v4.8h-10.8v4.7h11.9v5.4h-18.8V281.3z"/>
				<path id="S" class="st0" d="M124.8,297.1l6.6-0.4c0.1,1.1,0.4,2,0.9,2.6c0.7,1,1.7,1.4,3,1.4c1,0,1.7-0.2,2.3-0.7
					c0.5-0.5,0.8-1.1,0.8-1.7s-0.3-1.2-0.8-1.6c-0.5-0.5-1.7-1-3.5-1.4c-3-0.7-5.2-1.7-6.5-2.9c-1.3-1.2-2-2.7-2-4.6
					c0-1.2,0.3-2.4,1-3.4c0.7-1.1,1.7-1.9,3-2.6c1.3-0.6,3.2-0.9,5.5-0.9c2.9,0,5,0.6,6.5,1.7s2.4,2.9,2.7,5.4l-6.5,0.4
					c-0.2-1.1-0.5-1.8-1.1-2.3s-1.3-0.7-2.3-0.7c-0.8,0-1.4,0.2-1.8,0.5c-0.4,0.4-0.6,0.8-0.6,1.3c0,0.4,0.2,0.7,0.5,1
					s1.1,0.6,2.3,0.9c3,0.7,5.2,1.4,6.5,2.1s2.2,1.6,2.8,2.6c0.6,1.1,0.9,2.2,0.9,3.5c0,1.5-0.4,2.9-1.2,4.2
					c-0.8,1.3-1.9,2.3-3.3,2.9c-1.4,0.7-3.2,1-5.4,1c-3.8,0-6.4-0.8-7.9-2.3C125.8,301.5,125,299.5,124.8,297.1z"/>
				<path id="S_00000177467356790991935170000009745378557493467541_" class="st0" d="M147.3,297.1l6.6-0.4c0.1,1.1,0.4,2,0.9,2.6
					c0.7,1,1.7,1.4,3,1.4c1,0,1.7-0.2,2.3-0.7c0.5-0.5,0.8-1.1,0.8-1.7s-0.3-1.2-0.8-1.6c-0.5-0.5-1.7-1-3.5-1.4
					c-3-0.7-5.2-1.7-6.5-2.9c-1.3-1.2-2-2.7-2-4.6c0-1.2,0.3-2.4,1-3.4c0.7-1.1,1.7-1.9,3-2.6c1.3-0.6,3.2-0.9,5.5-0.9
					c2.9,0,5,0.6,6.5,1.7s2.4,2.9,2.7,5.4l-6.5,0.4c-0.2-1.1-0.5-1.8-1.1-2.3s-1.3-0.7-2.3-0.7c-0.8,0-1.4,0.2-1.8,0.5
					c-0.4,0.4-0.6,0.8-0.6,1.3c0,0.4,0.2,0.7,0.5,1s1.1,0.6,2.3,0.9c3,0.7,5.2,1.4,6.5,2.1s2.3,1.6,2.9,2.6c0.6,1.1,0.9,2.2,0.9,3.5
					c0,1.5-0.4,2.9-1.2,4.2c-0.8,1.3-1.9,2.3-3.3,2.9c-1.4,0.7-3.2,1-5.4,1c-3.8,0-6.4-0.8-7.9-2.3
					C148.3,301.5,147.5,299.5,147.3,297.1z"/>
				<path id="I" class="st0" d="M171.3,281.3h6.9v23.6h-6.9V281.3z"/>
				<path id="O_00000143592424604622105580000000067402647241245869_" class="st0" d="M182.3,293.1c0-3.9,1-6.9,3-9
					c2-2.2,4.8-3.2,8.5-3.2s6.6,1.1,8.6,3.2s3,5.1,3,8.9c0,2.8-0.4,5-1.3,6.8c-0.9,1.8-2.1,3.2-3.8,4.1c-1.7,1-3.7,1.5-6.2,1.5
					s-4.6-0.4-6.2-1.3c-1.7-0.8-3-2.2-4-4C182.8,298.2,182.3,295.9,182.3,293.1z M189.2,293.2c0,2.4,0.4,4.1,1.2,5.1s2,1.6,3.4,1.6
					c1.5,0,2.6-0.5,3.4-1.5c0.8-1,1.2-2.8,1.2-5.5c0-2.2-0.4-3.9-1.3-4.9c-0.8-1-2-1.5-3.4-1.5s-2.5,0.5-3.3,1.6
					C189.6,289,189.2,290.7,189.2,293.2z"/>
				<path id="N" class="st0" d="M209.1,281.3h6.4l8.4,13.1v-13.1h6.5v23.6h-6.5l-8.3-13v13h-6.5L209.1,281.3L209.1,281.3z"/>
				<path id="A" class="st0" d="M248.5,301h-7.8l-1.1,3.9h-7.1l8.3-23.6h7.6l8.4,23.6h-7.2L248.5,301z M247,295.9l-2.4-8.5l-2.4,8.5
					H247z"/>
				<path id="L" class="st0" d="M259,281.3h6.9v17.8h10.8v5.8H259V281.3z"/>
			</g>
		</g>
		<rect id="Divider" x="10.5" y="312.3" class="st0" width="417.4" height="2.2"/>
		<g id="IFBB">
			<path id="I_00000003808756978433892160000011202160779526461114_" class="st0" d="M216.3,219.9h18.9v50.7h-18.9V219.9z"/>
			<path id="F_00000035507240733369689150000010865086783378484865_" class="st0" d="M248.7,219.9h46.7v10.9h-27.8v8.8h23.7v10.3
				h-23.7v20.7h-19L248.7,219.9L248.7,219.9z"/>
			<path id="B" class="st0" d="M305.6,219.9h35.3c5.9,0,10.4,1.2,13.6,3.6c3.1,2.4,4.7,5.4,4.7,9c0,3-1.1,5.6-3.4,7.7
				c-1.5,1.4-3.7,2.6-6.6,3.4c4.4,0.9,7.6,2.4,9.7,4.5s3.1,4.8,3.1,8.1c0,2.6-0.7,5-2.2,7.1s-3.5,3.8-6,5c-1.6,0.8-4,1.3-7.2,1.7
				c-4.3,0.5-7.1,0.7-8.5,0.7h-32.6v-50.8H305.6z M324.7,239.7h8.2c2.9,0,5-0.4,6.1-1.3c1.2-0.9,1.7-2.1,1.7-3.7
				c0-1.5-0.6-2.6-1.7-3.5c-1.1-0.8-3.1-1.2-6-1.2h-8.3L324.7,239.7L324.7,239.7z M324.7,259.6h9.6c3.3,0,5.5-0.5,6.9-1.4
				c1.3-1,2-2.2,2-3.9c0-1.5-0.7-2.7-2-3.6c-1.3-0.9-3.6-1.4-6.9-1.4h-9.6V259.6z"/>
			<path id="B_00000132780611197208730660000004117449179641125802_" class="st0" d="M371.9,219.9h35.3c5.9,0,10.4,1.2,13.6,3.6
				c3.1,2.4,4.7,5.4,4.7,9c0,3-1.1,5.6-3.4,7.7c-1.5,1.4-3.7,2.6-6.6,3.4c4.4,0.9,7.6,2.4,9.7,4.5s3.1,4.8,3.1,8.1
				c0,2.6-0.7,5-2.2,7.1s-3.5,3.8-6,5c-1.6,0.8-4,1.3-7.2,1.7c-4.3,0.5-7.1,0.7-8.5,0.7h-32.6v-50.8H371.9z M391,239.7h8.2
				c2.9,0,5-0.4,6.1-1.3c1.1-0.9,1.7-2.1,1.7-3.7c0-1.5-0.6-2.6-1.7-3.5c-1.2-0.8-3.1-1.2-6-1.2H391V239.7z M391,259.6h9.6
				c3.3,0,5.5-0.5,6.9-1.4c1.3-1,2-2.2,2-3.9c0-1.5-0.6-2.7-2-3.6c-1.3-0.9-3.6-1.4-6.9-1.4H391V259.6z"/>
		</g>
	</g>
	<g id="Globe">
		<g>
			<path class="st0" d="M117.1,118.1c0,47.2,55.6,85.7,124,85.7s124-38.4,124-85.7s-55.6-85.7-124-85.7S117.1,70.9,117.1,118.1z
				 M119.4,118.1c0-46,54.6-83.4,121.7-83.4s121.7,37.4,121.7,83.4s-54.6,83.4-121.7,83.4S119.4,164.1,119.4,118.1z"/>
		</g>
		<g>
			<path class="st0" d="M154.4,118.1c0,47.5,38.9,86.2,86.7,86.2s86.7-38.7,86.7-86.2s-38.9-86.2-86.7-86.2
				C193.3,31.9,154.4,70.6,154.4,118.1z M156.7,118.1c0-46.3,37.9-83.9,84.4-83.9c46.6,0,84.4,37.6,84.4,83.9S287.7,202,241.1,202
				S156.7,164.4,156.7,118.1z"/>
		</g>
		<g>
			<path class="st0" d="M189,118.1c0,47.2,23.4,85.7,52.1,85.7s52.1-38.4,52.1-85.7s-23.4-85.7-52.1-85.7
				C212.4,32.4,189,70.9,189,118.1z M191.3,118.1c0-46,22.3-83.4,49.8-83.4s49.8,37.4,49.8,83.4s-22.3,83.4-49.8,83.4
				C213.7,201.5,191.3,164.1,191.3,118.1z"/>
		</g>
		<g>
			<rect x="240" y="33.1" class="st0" width="2.3" height="170.1"/>
		</g>
		<g>
			<path class="st0" d="M171.1,49.2c0.7,0.6,18.7,15,69.5,15c50.7,0,70.7-13.8,71.5-14.4l-1.3-1.9c-0.2,0.1-20.4,14-70.2,14
				s-67.9-14.3-68-14.4L171.1,49.2z"/>
		</g>
		<g>
			<path class="st0" d="M143,67.7c1,0.6,26.1,15.4,98.1,15.4s97.6-13.9,98.6-14.5l-1.1-2c-0.3,0.1-26.2,14.2-97.5,14.2
				c-71.2,0-96.6-14.9-96.9-15.1L143,67.7z"/>
		</g>
		<g>
			<path class="st0" d="M128.2,84.1c1.1,0.8,28.3,18.4,112.8,18.4c84.4,0,114-12.5,115.2-13l-0.9-2.1c-0.3,0.1-30.5,12.8-114.3,12.8
				c-83.6,0-111.3-17.8-111.5-18L128.2,84.1z"/>
		</g>
		<g>
			<path class="st0" d="M171.1,186.5l1.3,1.9c0.2-0.2,20.3-14,70.2-14c46.5,0,66.3,12.4,68.4,13.8l1.3-1.9
				c-3.5-2.4-23.5-14.2-69.7-14.2C191.9,172.1,171.9,185.9,171.1,186.5z"/>
		</g>
		<g>
			<path class="st0" d="M143.6,167.7l1.1,2c0.3-0.1,26.2-14.2,97.5-14.2c71.2,0,96.1,14.3,96.3,14.5l1.2-2
				c-1-0.6-25.5-14.8-97.5-14.8C170.2,153.1,144.6,167.1,143.6,167.7z"/>
		</g>
		<g>
			<path class="st0" d="M126.9,146.8l0.9,2.1c0.3-0.1,30.5-12.8,114.3-12.8s113.1,13.8,113.4,13.9l1-2c-1.2-0.6-30-14.2-114.4-14.2
				C157.8,133.7,128.2,146.2,126.9,146.8z"/>
		</g>
		<g>
			<rect x="118.3" y="117" class="st0" width="245.6" height="2.3"/>
		</g>
	</g>
	<g id="Woman">
		<g id="Woman_Body">
			<g id="Leg">
				<path class="st1" d="M52.7,145.4c0,0-1.5,8.8,0.8,15.4c1.5,6.9,2.4,11,2.4,11.8s2.4,13.9,1.8,15.6c-0.6,1.7-0.8,8.6-0.5,9
					s1.5,2.6,1.8,3.1s0,15.1,1.1,19.7c1.1,4.6,0.4,11.5,1.1,13.2c0.6,1.7,0.3,3.4,6.7,9.9c0,0,2.6,6.9,0.3,10.1
					c-1.7,3.2-2.3,4.1-3.4,4.1s-0.4,3.1,1.2,3.1s4.6-2.1,5.5-3.4c0.9-1.2,2.6-3,3.2-3.5s1.8-7.3,1.2-9.9c-1.2-1.7-2-2.3-0.9-4
					s3.3-7.5,2-11.2c-0.2-2.6-3.7-1.4-4-0.6c-0.3,0.8-4.3,2.9-4.7,0c-0.5-2.9,5.3-21.9,6.6-22.9c1.1-2.6,0.5-9.3,0.5-9.9
					c0-0.6-3-8.1-6.4-9.9c-1.8-1.5,1.7-16,1.7-16s0.5-0.8,0.9-4.4c0,0,0.9-6.1,0.4-8.7c-0.5-2.6,0.5-4.3,1.2-5.2
					c0.8-0.9,0.9-7.2,0.8-8.7C73.9,140.3,52.6,142.7,52.7,145.4z"/>
				<path d="M69.6,140.8c-2.9,0.2-17.5,1.6-17.5,4.6v-0.1c0,0.2-0.5,3-0.5,6.6c0,2.8,0.3,6.1,1.3,9.1c1.5,6.6,2.4,10.9,2.4,11.6
					l0.4,3c0.5,3,1.5,9.3,1.5,11.7c0,0.3,0,0.6-0.1,0.7c-0.4,1.1-0.6,4.4-0.6,6.9c0,1.3,0.1,2.4,0.2,2.7l1.8,3.1
					c0,0.2,0.1,2.4,0.1,4.5c0.1,4.8,0.2,12.1,0.9,15.1c0.6,2.5,0.7,5.8,0.7,8.5c0,2.2,0.1,3.9,0.4,4.7l0.2,0.7
					c0.4,1.6,1.1,3.7,6.5,9.3c0.1,0.3,1.2,3.3,1.2,6.1c0,1.3-0.2,2.4-0.8,3.3c-1.7,3.2-2.2,3.9-2.9,3.9c-0.4,0-0.7,0.2-0.9,0.5
					l-0.2,0.9c0,1.1,0.8,2.8,2.3,2.8c2,0,5-2.4,6-3.6c0.9-1.3,2.6-3,3.1-3.4c1-0.8,2-8.1,1.4-10.5v-0.1l-0.5-0.6
					c-1-1.3-1.2-1.6-0.5-2.8c1-1.6,3.5-7.7,2-11.7c0-1-0.7-1.7-1.7-1.9c-1.2-0.2-3,0.5-3.3,1.3c-0.2,0.3-1.8,1.3-2.9,1.1
					c-0.3-0.1-0.7-0.2-0.8-1c-0.4-2.7,5.2-21.2,6.4-22.4l0.1-0.1l0.1-0.1c1-2.3,0.6-7.6,0.5-9.5v-0.6c0-0.7-3.1-8.4-6.7-10.4
					c-0.9-0.7,0.3-8.6,2-15.4c0,0,0.5-0.9,1-4.5c0-0.2,0.9-6.2,0.4-8.9c-0.4-2.3,0.4-3.9,1.1-4.7c1-1.2,1-8,0.9-9.1
					C74.6,141.1,74.1,140.6,69.6,140.8z M68.8,253.3c2.4-3.3-0.2-10.3-0.3-10.5v-0.1l-0.1-0.1c-5.4-5.5-5.9-7.5-6.4-8.9l-0.2-0.8
					c-0.2-0.6-0.3-2.4-0.3-4.3c-0.1-2.7-0.1-6.1-0.7-8.7c-0.7-2.9-0.8-10.1-0.9-14.8c-0.1-4.5-0.1-4.8-0.3-5.1l-1.8-3
					c-0.2-0.6,0-7,0.5-8.5c0.4-1.1-0.2-5.6-1.4-13l-0.4-2.8c0-0.8-0.7-4.2-2.4-11.7l-0.1-0.2c-2.2-6.4-0.8-15-0.8-15.1v-0.1
					c0,0,0.1-0.3,1.4-0.8c4.8-1.9,17.3-3.2,18.9-2.5c0,0.3,0.1,0.8,0.1,1.3c0,2.4-0.3,6.2-0.7,6.8c-0.7,0.9-1.5,2.2-1.5,4.2
					c0,0.5,0,0.9,0.1,1.4s0.1,1.1,0.1,1.8c0,2.8-0.6,6.6-0.6,6.7c-0.4,3.3-0.9,4.3-0.9,4.3c-0.7,2.7-2.2,9.6-2.2,13.8
					c0,1.5,0.2,2.6,0.7,3c3.1,1.7,6.1,8.7,6.2,9.5v0.6c0.1,1.7,0.4,7-0.5,9l0.2-0.2c-1.3,1.2-7.3,20.3-6.8,23.5
					c0.2,1.1,0.8,1.8,1.9,1.9c1.6,0.2,3.6-1,3.9-1.8c0.1-0.2,1.3-0.8,2.2-0.6c0.3,0.1,0.6,0.3,0.7,1c0.3,0.8,0.4,1.7,0.4,2.6
					c0,3.2-1.5,6.9-2.3,8.2c-0.4,0.7-0.6,1.2-0.6,1.7c0,0.8,0.5,1.5,1.2,2.4c0,0,0.2,0.3,0.3,0.4c0.1,0.4,0.1,1,0.1,1.7
					c0,2.9-0.8,7.1-1.2,7.7c-0.6,0.4-2.3,2.3-3.3,3.6c-0.9,1.2-3.7,3.1-5,3.1c-0.5,0-0.8-0.5-0.9-0.7c-0.3-0.6-0.3-1.1-0.2-1.2
					C66.3,257.8,67,256.6,68.8,253.3z"/>
			</g>
			<g id="Front_Body">
				<path class="st1" d="M74.7,30.9v8.2c0,0-2.3,3.4-2.6,3.8c-0.8,1.1-0.2,1.8,0,1.9c0.3,0.1,1.9,0.5,2.1,0.5c0.1,0-0.8-0.1-0.8-0.1
					s0,1.8-0.1,2c-0.6,0.6,1.1,2,1.6,2c0.5,0.1-1.5-0.2-1.5,1c0,0.6,0.7,0.7,1.2,1c0,0,0,1.6,0,1.9c-0.1,0.3,1.9,2.1,6.9-0.6
					l-1.6,0.7c0,0-0.8,4.8-1.1,5.2c-0.2,0.4-6.3-0.9-8.6,1.5c0,0-6.5-5.5-8.7-5.6c-3.3-1-15.9,2.2-18.1,5.9c0,0,0.1,0.2-0.4,0.2
					s-2.8-1.2-12.7,2.3C22,65.4,19.7,70,19.7,70s-2.6,1.8-3.6,2.5c-1,0.6-1.7,2.6-0.6,5.3c1.1,2.7,2.1,3.9,2.1,3.9
					s-0.5,8.1,7.8,14.3c5.6,4.3,8.4,9.2,8.5,9.9c0.1,0.6,2.3,1.6,3.6,0.4c1.2-1.2,0.6,1.1,0.6,1.1s2,1.9,3,1.7
					c1-0.1,2.7-0.1,2.8-0.6s-0.1-1-0.1-1L44,108c0,0,2.5,0.7,2.5,0.4c0-0.4,0.1-1.6,0.1-1.6l2.3-0.1l-0.1-6.9c0,0-0.6-3.3-2.2-2.8
					c-3.1-0.2-7,2-8.3,3.2c0,0-1.4-1.2-1.2-1.9c0.1-0.6-2.5-4.3-3.3-12.2c-0.5-6.3-5.8-8.9-5.8-8.9s1.9-1.2,2.8-1
					c1,0.2,7.1,1.6,11.6-2.2c5.4-2.1,6.7-2.1,7-2.1c0.4,0,3.9-4.4,4.8-4.4c0.9,0,5.9,0.2,6.9,3.1c0.7,1.7-1.7,2.1-1.7,2.1
					s-1.4-0.1-2.6-0.5c-2.1-0.6-6.4,1.6-6.4,3.2c0,0-1,5.8,0.1,7.6c0.6,1.9,3,4.5,3,4.5s0.1,3.1-0.3,3.4c-0.4,0.4-7.2,6-2.5,24.9
					c0.1,2.6,0.9,3,0.9,3l0.5,4.3c0,0-0.5,1.7-3.1,1.7s-19.2-0.7-39.7,22.9c-3.1,2.7-4.2,3.6-5.5,4.4c-0.9,0.6-3.1,1.8-3.2,3.6
					c-0.2,1.7-1.4,6.4,8,10.3c3.8,1.7,4.7,2.6,5.1,2.8s19.7,10.4,52.7,14.4c3.2,2.2,4.6,3.4,4.6,3.4s9.5,0.7,10,0.7s3.8,2.2,7.4,0.9
					c3.6-1.4,7.7-1.9,8.8-1.1c1.7,0.9,4.2,0.2,4.2,0.2v-2.2c0,0-2.3-3.7-4.9-3.7c-1,0-8.6-0.5-11-0.1c-3.5-1.2-4.7-4.7-5.2-5.3
					s-4.3-5.1-9-2.1c-1.2,1.5-0.1,4.2-0.1,4.2s-16.8-5.6-17.6-6.9c-0.9-1.3-1.5-3.5-1.5-3.5s-1.5-1.6-2.7-2.2
					c-1.2-0.6-8.3-5.2-9-5.8s-10-4.7-22.2-0.1c4.6-5.6,10.5-7.2,11.2-7.2s6.3,0.4,7.9-0.3c3.8-0.9,14.9-7.2,17.5-7.9
					c2.6-0.7,11.6-1.9,13.2-1.5s13.6-0.4,13-15.2c-0.5-4.9-5.7-12.3-7.5-14.1c-1.9-1.7-5.8-6.3-5.7-6.9c0.1-0.6,0.1-2.2,0.4-3
					c0.3-0.7,5.1-6.8,4.8-9.5c3.4-1.4,7.2-3.3,7.2-3.3s19-3,24.9-14.6c8.1-2.2,14.1-6.3,14.1-6.3s9.9-1.9,15.7-7.8
					c3.2-3.7,7-4.2,7-4.2s0.9-2.8,2.1-4.7c0.6-1.8,3-4.2,4.1-5.7c3.8-4.8,2.3-17.8,2.2-21.8c-0.1-4.1,0.5-12.1,3.5-14.1
					s9.9-4.4,10.1-10.1c-0.4-2.6-2.2-1-2.2-1s-7.6,7.9-13.8,8.1c-4.4-0.1-7.4-1.2-7.4-1.2s-2-0.1-1.1,1.5c1.8,0.7,4.1,1.7,4.8,3.1
					s2.1,1.6,2.1,1.6s-5.4,13.9-6,14.7c-0.6,0.7-5.8,10.6-5.6,20c-2.1,1.4-3.5,1.6-4.6,1.7c0,0-8.8,0.1-16.7,9.7c-3.2-1.8-7-1-7.9-1
					c-1.9-0.1-3.8,1.6-4.8,2c0,0-4.8,0.6-5.4-0.6c-0.6-1.2-2.1-8.4,0.3-14.4C97.7,40.2,78.2,17.5,74.7,30.9z"/>
				<path d="M161.1,0.6c-0.1,0.1-7.6,7.8-13.5,8c-4.2-0.1-7.1-1.2-7.2-1.2c-0.4,0-1.4-0.1-1.9,0.6c-0.1,0.2-0.2,0.4-0.2,0.7
					s0.1,0.6,0.3,1l0.1,0.2l0.2,0.1c1.2,0.5,3.8,1.5,4.5,2.8c0.5,1,1.3,1.4,1.9,1.7c-2.1,5.3-5.3,13.3-5.7,14
					c-0.8,1-5.7,10.6-5.7,19.7c0,0.1,0,0.2,0,0.3c-1.8,1.1-3,1.4-4.1,1.5c-0.3,0-8.8,0.3-16.7,9.6c-2.7-1.4-5.7-1.1-7.1-0.9
					l-0.6,0.1c-1.4-0.1-2.9,0.8-4,1.4l-1,0.6c-2.2,0.3-4.5,0.1-4.7-0.3c-0.5-1-2-8,0.3-14c1.2-3-2.2-8.9-5.9-13.1
					c-1.7-1.9-7.5-8.1-12.1-7c-1.8,0.4-3.1,1.9-3.7,4.5V31c0,0,0,7.8,0,8.1c-0.2,0.3-2.4,3.6-2.4,3.6c-0.4,0.5-0.6,1-0.6,1.4
					c0,0.2,0,0.4,0.1,0.5c0.1,0.4,0.4,0.8,0.8,0.9c0.1,0,0.5,0.1,0.9,0.2c0,0.5,0,1.4,0,1.4l0.2-0.3C73.1,47,73,47.3,73,47.5
					c0,0.1,0,0.2,0.1,0.4c0.1,0.4,0.5,0.8,0.9,1.2c-0.4,0.3-0.7,0.7-0.7,1.2l0,0c0,0.9,0.7,1.2,1.2,1.4c0,0.5,0,1.5,0,1.5v0.1
					c0,0.3,0.2,0.6,0.6,0.8c0.4,0.3,1.9,1,4.6,0.1c-0.3,1.7-0.6,3.3-0.8,3.9c-0.3,0-1,0-1,0c-2-0.1-5.2-0.2-7.2,1.3
					c-1.4-1.2-6.6-5.3-8.7-5.5c-3.5-1.1-16.2,2.3-18.6,6.1h-0.1c-1-0.2-3.9-0.7-12.7,2.4c-7.9,2.6-10.5,6.7-10.8,7.4
					c-0.2,0.1-3.5,2.4-3.5,2.4c-0.8,0.5-1.4,1.7-1.4,3.2c0,0.8,0.2,1.8,0.6,2.8c0.9,2.3,1.8,3.5,2.1,3.9c0,0.1,0,0.1,0,0.1
					c0,1.7,0.5,8.8,8,14.4c5.3,4.1,8.1,8.9,8.3,9.5c0.1,0.6,0.9,1.1,1.6,1.3c1,0.3,2,0.1,2.7-0.4c0,0.2-0.1,0.7-0.1,0.7l0.2,0.3
					c0.5,0.5,2.3,2,3.4,1.9l0.7-0.1c1.3-0.1,2.3-0.2,2.6-0.9c1.8,0.5,2.2,0.3,2.4,0.2l0.2-0.2l0.1-0.4c0,0,0-0.6,0.1-1.1
					c0.5,0,1.3-0.1,1.6-0.1c0.2,2.5,0.7,5.4,1.5,8.7c0.1,1.9,0.5,2.7,0.9,3.1c0,0.4,0.4,3.7,0.4,3.9c-0.1,0.2-0.6,1.3-2.5,1.3H49
					c-12.8-0.1-27,8.1-39.9,23.1c-3,2.6-4.1,3.5-5.3,4.3l-0.2,0.1c-1,0.6-3.1,2-3.3,3.9v0.3c-0.1,0.4-0.1,0.9-0.1,1.5
					c0,2.4,1.1,6,8.5,9.1c3.2,1.5,4.3,2.3,4.7,2.6l0.2,0.2c0.1,0.1,19.2,10.3,52.8,14.5c3,2.1,4.4,3.3,4.4,3.3l0.1,0.1h0.2
					c1,0.1,9.5,0.8,10,0.8c-0.1,0,0.4,0.2,0.4,0.2c1.2,0.5,4.1,1.8,7.2,0.6c3.5-1.3,7.4-1.7,8.2-1.2c2,1,4.5,0.4,4.6,0.3l0.4-0.1
					v-2.8l-0.1-0.1c-0.1-0.2-2.5-4-5.4-4l-1.6-0.1c-2.6-0.1-7.3-0.3-9.3-0.1c-2.5-1-3.8-3.2-4.4-4.4l-0.4-0.7
					c-0.5-0.6-4.6-5.5-9.7-2.2c-0.6,0.7-0.8,1.6-0.8,2.5c0,0.5,0.1,1,0.2,1.3c-7.7-2.6-15.7-5.6-16.3-6.3c-0.8-1.2-1.4-3.3-1.4-3.3
					v-0.1l-0.1-0.1c-0.1-0.1-1.6-1.7-2.9-2.3c-1.2-0.6-8.1-5.1-8.9-5.7c-0.8-0.7-9.3-4.4-20.7-0.9c4.2-4.1,8.8-5.4,9.3-5.4h0.7
					c2.9,0.1,6.1,0.2,7.3-0.3c2.2-0.5,6.9-2.8,10.9-4.9c2.8-1.4,5.5-2.7,6.5-3c2.5-0.7,11.4-1.8,12.9-1.5c1.1,0.3,5.5,0.1,9-2.9
					c3.1-2.6,4.7-6.6,4.7-11.8c0-0.4,0-0.7,0-1.1c-0.5-5.3-5.9-12.8-7.7-14.5c-1.9-1.8-5.3-5.8-5.5-6.5l0.1-1l0.2-1.8l0.9-1.3
					c1.9-2.8,3.8-5.9,3.9-8c3.2-1.3,6.5-3,6.8-3.2c1.4-0.2,19.1-3.3,25.1-14.6c7.7-2.1,13.4-5.9,13.9-6.2c0.9-0.2,10.1-2.1,15.9-7.9
					c3-3.5,6.7-4,6.7-4l0.4-0.1l0.1-0.3c0,0,0.9-2.8,2-4.5c0.5-1.4,1.8-3,2.9-4.2l1.2-1.4c2.2-2.8,2.7-8,2.7-12.9
					c0-2.6-0.1-5.1-0.3-7l-0.1-2.3c0-0.3,0-0.7,0-1c0-4.5,0.8-10.9,3.2-12.5l2.1-1.2c3.4-1.9,8.1-4.5,8.3-9.3
					c-0.1-1.1-0.5-1.8-1.2-2C162.1-0.3,161.2,0.5,161.1,0.6z M161.9,1.5c0.2-0.2,0.6-0.4,0.8-0.3c0.1,0,0.3,0.2,0.4,1
					c-0.2,4.1-4.5,6.5-7.7,8.3l-2.2,1.3c-3.4,2.3-3.7,11-3.7,13.7c0,0.5,0,0.8,0,0.8l0.1,2.3c0.1,1.9,0.3,4.4,0.3,7
					c0,4.6-0.5,9.6-2.5,12.1l-1.1,1.4c-1.2,1.4-2.5,3-3,4.4c-1,1.5-1.8,3.7-2,4.4c-0.9,0.2-4.1,1-7,4.3c-5.6,5.7-15.2,7.6-15.3,7.6
					h-0.1l-0.1,0.1c-0.1,0-5.9,4-13.9,6.2l-0.2,0.1l-0.1,0.2c-5.7,11.2-24.3,14.2-24.5,14.2H80h-0.1c0,0-3.7,2-7.1,3.3l-0.4,0.2v0.4
					c0,0.1,0,0.1,0,0.2c0,1.9-2.5,5.6-3.8,7.5l-1,1.6l-0.3,2.1l-0.1,1v0.1c0,1.4,5.4,6.9,5.9,7.3c1.6,1.5,6.9,8.8,7.3,13.7
					c0,0.4,0,0.7,0,1.1c0,4.8-1.5,8.5-4.3,10.9c-3.2,2.7-7.1,2.8-8,2.6c-1.8-0.4-11,0.8-13.5,1.5c-1.1,0.3-3.7,1.6-6.7,3.1
					c-4,2-8.6,4.3-10.8,4.8c-1.3,0.5-5.4,0.3-7,0.3h-0.8c-0.7,0-6.8,1.5-11.7,7.4l-1.3,1.6l2-0.7c11.7-4.4,20.8-0.6,21.6,0
					c0.8,0.7,7.9,5.2,9.1,5.9c1,0.5,2.2,1.8,2.5,2c0.1,0.4,0.7,2.2,1.5,3.5c0.9,1.4,14,5.8,17.9,7.1l1.2,0.4l-0.5-1.1
					c-0.3-0.7-0.8-2.6,0-3.6c4.1-2.5,7.5,1.3,8.1,2.1l0.3,0.5c0.7,1.3,2.1,3.9,5.1,4.9h0.1h0.2c1.7-0.3,6.6-0.1,9.2,0.1l1.7,0.1
					c1.8,0,3.7,2.3,4.4,3.3c0,0.2,0,1.1,0,1.6c-0.7,0.1-2.2,0.3-3.4-0.3c-1.4-0.9-5.9-0.2-9.2,1.1c-2.6,1-5.1-0.1-6.3-0.6l-0.9-0.3
					c-0.4,0-6-0.4-9.8-0.7c-0.4-0.3-1.7-1.4-4.5-3.4l-0.1-0.1h-0.1c-32.9-4-52.3-14.2-52.4-14.3l-0.2-0.1c-0.5-0.4-1.6-1.3-5-2.8
					C2,163,1,159.9,1,157.8c0-0.5,0.1-0.9,0.1-1.3v-0.4c0.1-1.4,1.9-2.5,2.8-3.1l0.2-0.1c1.3-0.9,2.4-1.7,5.5-4.5
					c12.8-14.8,26.7-22.9,39.1-22.8h0.2c3,0,3.6-2.1,3.6-2.1v-0.1l-0.5-4.7l-0.2-0.2c0,0-0.5-0.4-0.6-2.5c-4.2-16.8,0.7-23,2.2-24.4
					c0.2-0.2,0.6-0.6,0.5-3.9v-0.2l-0.1-0.2c0,0-2.3-2.5-2.8-4.2c-0.9-1.5-0.4-5.8-0.1-7.4c0-0.3,0.3-0.8,1-1.4
					c1.4-1.1,3.6-1.7,4.7-1.4l2.7,0.5c0.3,0,1.7-0.3,2.3-1.3c0.2-0.3,0.3-0.9,0-1.6c-1-3.5-7-3.5-7.2-3.5c-0.7,0-1.5,0.8-3.7,3.1
					c0,0-1.2,1.3-1.3,1.4c-0.6,0-2.1,0.2-7.1,2.1h-0.1l-0.1,0.1c-4.2,3.6-10,2.4-11.1,2.1c-1.2-0.3-3,0.8-3.3,1.1L27,77.4l0.9,0.4
					c0.1,0,5,2.5,5.5,8.4c0.6,5.8,2.2,9.4,2.9,11.1l0.4,1c-0.2,0.7,0.8,1.8,1.4,2.3l0.4,0.4l0.4-0.4c1.2-1.2,5-3.3,7.8-3h0.2h0.4
					c0.6,0.3,1,1.6,1.1,2.3l0,0c0,0.3,0.1,4.7,0.1,6.2c-0.6,0-2.3,0.1-2.3,0.1s-0.1,1.2-0.1,1.6c-0.4,0-1-0.2-1.5-0.4
					c-0.1-0.1-0.1-0.3-0.1-0.3l-1,0.5l0.1,0.6c-0.1,0-1.1,0.1-1.6,0.1l-0.8,0.1c-0.4,0.1-1.4-0.7-2.3-1.4c0-0.3,0.1-0.6,0.1-0.8
					c0-0.7-0.3-0.9-0.4-0.9c-0.6-0.3-1.1,0.2-1.3,0.4c-0.4,0.4-1,0.5-1.4,0.4c-0.7-0.1-1.2-0.4-1.2-0.5c-0.1-0.6-3-5.7-8.7-10.2
					c-7.9-5.9-7.6-13.7-7.6-13.8v-0.2l-0.1-0.2c0,0-1-1.2-2-3.8c-1-2.4-0.4-4.1,0.4-4.6l3.7-2.6l0.1-0.1c0,0,2.4-4.4,10.3-7
					c5.7-2,9.8-2.8,12.2-2.3h0.4c0.4,0,0.7-0.1,0.8-0.4c2-3.5,14.4-6.7,17.5-5.8c1.6,0.1,6.1,3.4,8.5,5.5l0.4,0.3L71,60
					c1.5-1.5,4.9-1.3,6.7-1.3c1.3,0.1,1.7,0.1,2-0.3c0.2-0.4,0.8-3.2,1.1-5.1c0.4-0.2,1.3-0.6,1.3-0.6l0,0l0,0l-0.5-1l0,0
					c-4,2.1-5.8,1.3-6.1,0.9c0-0.4,0-2.2,0-2.2l-0.3-0.1l-0.3-0.1c-0.4-0.2-0.5-0.2-0.5-0.3c0-0.4,0.8-0.5,1-0.5v-1.1
					c-0.3-0.1-1.2-0.9-1.3-1.2c0.1-0.1,0.2-0.4,0.2-1.7c0,0,0,0,0.1,0s0.2,0,0.2,0h0.5v-0.5c0,0,0,0,0-0.1c0-0.3-0.2-0.4-0.5-0.5
					l0,0l-1.9-0.4l0,0l-0.1-0.2v-0.1c0-0.2,0.1-0.5,0.3-0.7l2.7-4c0,0,0-8.1,0-8.3c0.5-2.1,1.5-3.3,2.9-3.6c2.6-0.6,6.9,2,10.9,6.7
					c4.1,4.7,6.5,9.8,5.7,11.9c-2.4,6.1-1,13.4-0.2,14.9c0.7,1.4,4.4,1.1,6,0.9c0.1,0,1.4-0.7,1.4-0.7c1-0.6,2.2-1.4,3.4-1.3
					l0.8-0.1c1.4-0.1,4.4-0.5,6.9,1l0.4,0.2l0.3-0.4c7.6-9.3,16.1-9.5,16.2-9.5c1.2-0.1,2.7-0.4,4.9-1.8l0.3-0.2v-0.3
					c0-0.2,0-0.4,0-0.6c0-9.1,5-18.4,5.4-19c0.6-0.8,4.9-11.5,6.1-14.8l0.2-0.6l-0.7-0.1c0,0-1.1-0.2-1.7-1.3
					c-0.8-1.4-2.8-2.4-4.9-3.2c0-0.1-0.1-0.2-0.1-0.3l0,0c0.1-0.1,0.4-0.2,0.7-0.2c0,0,2.9,1.1,7.4,1.2C154,9.5,161.5,1.8,161.9,1.5
					z M49.6,72.6c0.4,0,0.6-0.2,2-1.7c0.8-0.9,2.4-2.6,2.9-2.7c1.4,0,5.5,0.5,6.3,2.7c0.1,0.2,0.1,0.3,0.1,0.4s0,0.2-0.1,0.2
					c-0.2,0.4-1.1,0.6-1.3,0.7l-2.3-0.5c-1.6-0.5-4.1,0.4-5.7,1.6c-0.7,0.5-1.5,1.3-1.5,2.2c-0.1,0.3-0.4,2.5-0.4,4.5
					c0,1.3,0.1,2.6,0.6,3.4c0.5,1.7,2.5,3.9,2.9,4.4c0,0.3,0,0.6,0,0.8c0,1-0.1,1.8-0.2,2.1c-0.9,0.9-2.9,3.2-3.8,8
					c-0.3-0.7-0.7-1.6-1.3-2l-1.3-0.2h0.2c-3-0.2-6.6,1.7-8.2,3c-0.4-0.4-0.7-0.8-0.7-1v-0.1c0-0.3-0.2-0.7-0.5-1.4
					c-0.7-1.7-2.2-5.2-2.9-10.8c-0.4-5-3.6-7.7-5.2-8.8c0.6-0.3,1.2-0.5,1.6-0.5c1.2,0.3,7.4,1.6,12-2.3
					C45.2,73.7,48.3,72.6,49.6,72.6z"/>
				<path d="M77.4,37.7c0.1,0.5-0.4,1-1.2,1.2c-0.8,0.2-1.5,0-1.6-0.5s0.4-1,1.2-1.2C76.5,37.1,77.3,37.3,77.4,37.7z"/>
				<g>
					<path class="st2" d="M37.4,63.9c0,0-9.7,0.8-12.6,5.3"/>
					<path class="st3" d="M37.4,63.4c-0.4,0-10.1,0.9-13,5.5c-0.2,0.3-0.1,0.6,0.2,0.8c0.3,0.2,0.6,0.1,0.8-0.2c2.7-4.2,12-5,12.1-5
						c0.3,0,0.5-0.3,0.5-0.6C38,63.6,37.7,63.3,37.4,63.4z"/>
				</g>
			</g>
		</g>
		<path id="Bottoms" d="M80,124.4c0,0-6.1-10.4-18.7-9.6c-5.8,0.5-7.9,4.4-7.9,4.4s-0.3,4.5-1.2,4.8l-0.2-5.2c0,0-0.9-1.7-0.8-2.5
			c0.2-0.1,1,1.1,1.6-1.1c0,0,1-4.8,5.5-4.8c5.4-0.3,8,0.3,16.7,6.4C78.7,120.1,80,124.4,80,124.4z"/>
		<g id="Top">
			<path d="M80,91.2c0,0,0.9-6.4,0.2-7.8C79.6,82,85,84.8,94.1,71.8c1.2-2.6,9.4-6.5,10.5-6.2c1.1,0.4,0,0,0,0s-6.4,1.5-10.5,6.2
				c-2.2,4.6-7.9,10.5-14.3,10.6c0,0-2.7-8.8-6.5-9.1c-8.3-0.5-14.9,6.4-14.9,7.2c0,0-2.1-7.6-5-6.7c-3.8,1-2.6,8.4-2.5,8.5
				s0.6,4.1,5.6,3.3c1.7-0.5,1.4-0.8,1.4-0.8s4.2-0.1,4.9,0.5s4.2,2.1,7.4-0.7c3.2-2.8,8.5-0.4,8.5-0.4s0.4,5.9,0.1,7.4L80,91.2z"/>
			<path d="M104.6,65.1c-1.9-0.1-9.4,3.7-10.8,6.3l0,0c0,0,0,0,0,0.1c0,0,0,0.1-0.1,0.1c-3.2,4.5-5.9,7-8,8.5
				c-1.7,0.9-3.5,1.6-5.4,1.7c-0.6-1.9-3.1-8.7-6.9-9.1c-5.6-0.3-10.9,2.6-13.9,5.6c-0.4,0.4-0.6,0.6-0.8,0.9
				c-0.6-1.7-1.9-4.8-3.6-5.8c-0.6-0.3-1.2-0.4-1.7-0.2c-1.4,0.3-2.3,1.5-2.8,3.2c-0.6,2.4-0.3,5.9,0.1,6.2l-0.1-0.2
				c1.1,3.7,4,4,6.2,3.7c0.9-0.3,1.3-0.5,1.6-0.8c2-0.1,4,0.1,4.3,0.4c0.7,0.6,4.6,2.4,8.1-0.7c2.5-2.2,6.5-0.8,7.6-0.4
				c0.1,1.3,0.2,3.6,0.2,5.2c0,0.7,0,1.4-0.1,1.7l-0.2,0.9l2.3-0.8v-0.4c0.1-0.8,0.5-3.7,0.5-5.8c0-0.8-0.1-1.5-0.2-2
				c0.2,0,0.3-0.1,0.3-0.1c0.9-0.2,2.6-0.6,4.9-2.2c4-2.2,7.1-6.1,8.6-9l0.1-0.1c3.6-4.1,9.2-5.6,9.9-5.8c0.1,0.1,0.3,0.1,0.3,0.1
				l0.4-1.1L104.6,65.1C104.7,65.1,104.7,65.1,104.6,65.1z M59,80.6c0.3-0.8,6.6-7.2,14.3-6.7c2.8,0.3,5.3,6.4,6,8.7l0.1,0.4
				c0,0,0.1,0,0.2,0c0,0.1-0.1,0.2-0.1,0.2c0,0.1,0,0.3,0.1,0.4c0.1,0.3,0.2,0.9,0.2,1.6c0,1.4-0.2,3.3-0.4,4.9c0-0.2,0-0.3,0-0.5
				c0-2.3-0.2-5.4-0.2-5.6v-0.3H79c-0.2-0.1-5.7-2.6-9.1,0.5c-3,2.7-6.2,1.1-6.7,0.7c-0.8-0.7-4-0.7-5.3-0.6h-0.4c0,0,0,0.2-0.1,0.4
				c-0.1,0-1.1,0.4-1.1,0.4c-3.8,0.6-4.6-1.9-4.8-2.8l-0.2-0.4l0.1,0.2c-0.2-0.5-0.6-4.4,0.5-6.4c0.4-0.7,0.9-1.1,1.6-1.3
				c0.3-0.1,0.6,0,0.9,0.1c1.6,0.9,3,4.8,3.4,6.2l0.5,1.6L59,80.6z"/>
		</g>
		<path id="Hair" d="M96.6,23.6c0,0-8-4-14.4,0.1c-0.6,0.5-1-1-1-1s-1.3-3.7-4-3.2c-4.3-0.6-6.6,1.3-7.4,3.4c-0.6,1.6-0.9,1.7-1.3,2
			c0,0,0.7,1.5,1.8,1.7c1.2,0.2,0,1.1,0,1.1s1.6,0.6,1.9,0.5c0,0.7-0.4,1.6-0.4,1.6s1.7,3.1,4.2,0c0,0,0.9-1.4,1.2-0.5
			c0.3,0.8,0.4,4.3,2.4,4.3c2.1,0,6.8-0.1,6.9,0.4c0.1,0.6-0.6,5.3-0.9,5.4c-0.4,0.1,2.1-0.6,2.5-0.9c0.4-0.3,3.9-1.7,2.9,2.8
			c-1,3.4-3.2,3.3-3.2,3.3s2,4.1,6.9,3.9c9-2.1,6.6-18.7,6.6-18.7s1.1-1.9,2.4,0.7s1.3,9.3,0.9,11.6c-0.5,2.1,0.9,8.1,9.1,7.9
			c0,0,11.7-0.3,19.4-19.2c0,0-4.2,1.7-4.9,1.4c0.9-0.8,7.4-9.5,6.6-11.5c0,0-2.5,2.6-5.8,2.8c-2.2-0.2-11.8,0.7-14.2-5.4
			c0,0-2.6-4.7-6.1-5C98.3,12.7,96.6,23.6,96.6,23.6z"/>
	</g>
	<g id="Man">
		<g id="Main_Body">
			<path class="st1" d="M159.3,121.7c0,0-0.3,5.8-0.4,6.3c-0.1,0.5-2.2,1.7-2,2.5s0.8,3.3,1.1,3.7s0.2,1.1-0.1,1.3s-1,0.1-1.3,0.4
				c-0.4,0.3-0.7,1.6-0.4,1.9c0.3,0.4-1.5-0.2-1.2,0s-0.6-0.4-1-0.2c1.1,0.5,0.8,1.2,0.9,1.5c0,0-0.3,0.7-0.5,0.7
				c-0.3,0-0.8,0.1-1,0.5c-0.2,0.5-0.5,1.2-0.4,1.4c0.1,0.3-1.1,1-2.4,0.5c-1.2-0.4-2.6-0.8-3.1-0.4c-0.4,0.4-0.3,3.5-0.3,3.5
				s7.9,3.6,9.1,6.1c2.7-3,4.2-3.6,5.3-3.7c1.1-0.1,7.1-0.8,10.2,0.4c4,1.3,5.4,5.8,5.6,8.4c0,0,1.9-3.1,3.9-3.5
				c2.3-0.4,4.2-0.1,6,1.6c1.8,1.7,3.8,4.8,4,5.3c0,0-1.2-4.8-0.4-7.1c0.3-2.1,4-6.6,6.2-7.4c0,0,0.1-5.1-2.3-6.8
				c-0.5,0.9-2,1.3-2.5,1.3s-7.6,2.8-10.7-0.2c-0.7-0.6,0.1-2.2,0.1-2.2s-3,1-3-0.9c0-1.8-1.2-9.9,4.2-11.1s15.2,1.2,18.6,4.9
				c3.4,3.8,5,8.5,5.6,10.4s1.3,3.2,1.3,3.2s-0.4,6.3,0.3,7.3c0.6,1,0.7,1.3,0.8,1.8c0.1,0.4,0.4,12.9-0.8,14.9s-2.1,2.5-2.5,3.4
				c-0.4,0.4-1.5,1.4-1.7,3.1c-0.2,1.7-0.8,4.7-1.7,4.8c-0.5,0.5-3.1,1.9-6.2-0.7c-1.2-0.7-2,0.1-2.2,0.4c-0.2,0.4-0.9,2.3-4.6,2.4
				c-3.2,0.4-13.8,1.7-16.1-0.8c0,0-5.7-4-5.7-4.5s1.1,1.3,1.3,1.8c0.2,0.4-0.6,2.2-1.8,2.5c-1.1,0.3-11.3,4.2-13.7,4.3
				s-6.1-1.7-6.1-2.3c0-0.5,0.2,1.7-2,2s-5.3,0.7-5.7,1.5s-0.3,4-0.8,4.6s-0.5,2-0.2,2.5c0.3,0.4,0.5,1.9,0.5,2.4c0,0,2,1,2.5,1
				s0.8,0.5,1.2,1.2s1.7,2.6,4.3,0.2c2.6-2.4,8.2-5.5,15.9-5.2c0.5,0.1,2.9-1.3,2.9-1.3s16.1-3.5,28.2,6.1c3.1,2.6,5.8,3.6,6.2,3.5
				s2.3,1.1,2.6,2c0.4,0.9,0.3,2.6,0.4,3.1c0.1,0.5,3,1.7,4.7,2.6c1.7,1,1.6,3.3,1.4,3.9c-0.2,0.5-0.9,5.2-5.7,8.3
				c-4.1,2.6-4.8,5.6-4.7,6s-1.2,3.5-3.6,5.2c-2.4,1.7-3.3,4.8-3.3,5.1c0.1,0.3-2.1,4.9-10.8,8.5c-1.8,2.9-9.2,11.9-10,12
				s-1.7,2.6-0.3,3s3.6,0.5,4.1,0.9c0.4,0.4,4.2,3,5.7,4.6c2.4,1.2,9.1,1.5,10.1,1.5c1.1,0,1.6,2.6,0.7,3.1c0,0-5.2,2-6.3,1.9
				c-1.1-0.2-11.7,0.4-13.6-0.9c0,0-4.7-3.2-7-2.4c-2.2,0.8-4,1.9-4.8,1.9s-9.5,0.4-9.6-0.1c-0.1-0.4-1.1-7,1-9.8
				c2.1-2.7,11.6-6.7,14.3-20.5c-0.2-1.2-1.6-3.2-1.4-4.5c0.2-1.3,6.5-13.4,13.8-17.4c2.2-0.3,11.3-2.5,11.5-2.8
				c0.3-0.4-9.5-0.7-13.5,2.3s-26.6,1.2-27,0.4s-33.8-23.1-33.8-23.1s-2.5-4.5-2.5-10.8c0.3-4-1.8-5.5-2.7-6.7c-1-1.1-8.3-9-8.5-9.8
				c-1.3-3.3-0.8-15.3-0.3-16s1.1-1.3,0.2-2.2s-5.9-3.9-5-15.2c0.6-2.5,2.5-4,2.8-4.2c0.4-0.3-0.1-2.9-1.3-3.6
				c-1.2-0.7-1.3-2.3-1.3-5.1c0.5-2.7,1-5.6,3.3-7.1c1.8-1.2,1.5-2.8,1.1-3.7c-0.4-0.9-1.9-3.5,0.1-8.1c1.9-4.6,14.4-19.8,15-20
				s3.1-0.4,3.7,0.4s3.5-0.1,4.1-0.6s18.5-1.5,20.2-0.9c1.7,0.6,5,2.7,5.8,3.1c1.3,0.7,6.4,0.9,6.9,0.9c0.4,0,10.4,10.9,11,11.7
				c0.6,0.8,1.7,2.9,0,4.7c-1.7,1.8-6.3,7.8-11.9,6.2c-1.2-1.7-1.6-3.8-1.6-3.8s0.3-0.4-3.8-1c-2.5-0.4-2.3-3.3-2.2-3.7
				c0.1-0.4,1.4-4.6,1.4-5.5s-1.4-1.4-2.7-0.6c-1.2,0.8-6.3,6.9-9.2,7.5c-3,0.6-8.3,1.1-8.8,0.7s-3.1-2-3.1-2s6.6,2.6,4,8.2
				c-2.6,5.5-5.3,7.6-5.3,7.6s3.1-0.7,3.6,3.5c0.3,1.1,0.2,2.2,0.2,4.9c-0.3,1.7-1.2,2.7-1.3,3.1c-1.3,2.3-1.4,3.1-1,3.2
				s2.5,0.7,3.1,0.4s1.7-2.4,4.7-3.4C137.5,126.5,154.7,117.4,159.3,121.7z"/>
			<path d="M124.1,82.4c-0.6,0.5-3,1.1-3.3,0.7c-0.9-1.1-3.8-0.8-4.3-0.6c-1,0.3-13.5,16.1-15.3,20.3c-0.8,1.8-1,3.4-1,4.6
				c0,2,0.7,3.3,1,3.9c0.1,0.2,0.3,0.6,0.3,1.1c0,0.6-0.2,1.3-1.1,1.9c-2.5,1.6-3,4.7-3.5,7.5c0,0.1,0,0.3,0,0.4
				c0,2.8,0.2,4.5,1.6,5.4c0.8,0.4,1.2,2,1.2,2.6c0,0.1,0,0.1,0,0.1c-0.5,0.4-2.3,2-2.9,4.4c-0.1,0.9-0.1,1.8-0.1,2.6
				c0,8.6,3.7,11.7,5,12.8l0.3,0.3c0.2,0.2,0.3,0.4,0.3,0.5c0,0.2-0.2,0.5-0.5,0.9c-0.4,0.6-0.7,4.2-0.7,7.9c0,3.5,0.2,7.2,0.8,8.7
				c0.2,0.5,1.7,2.3,6.6,7.6l2.5,2.8c0.9,1,2.2,2.4,2.2,5.1c0,0.2,0,0.4,0,0.7c0,0.1,0,0.2,0,0.3c0,6.3,2.4,10.6,2.5,10.8l0.1,0.1
				l0.1,0.1c13,8.7,32.7,22,33.6,23c-0.1-0.1,1.1,0.5,1.1,0.5c3.3,0.7,22.9,2.2,26.8-0.7c2.4-1.8,7-2.3,10-2.4
				c-2.8,0.7-7,1.7-8.5,1.9h-0.1l-0.1,0.1c-7.5,4.1-13.9,16.4-14.1,17.8c0,0.1,0,0.2,0,0.3c0,0.8,0.4,1.8,0.8,2.7l0.6,1.6
				c-2,10.3-8,15-11.6,17.8c-1.1,0.9-2,1.6-2.6,2.3c-1.1,1.5-1.4,3.9-1.4,6c0,2.3,0.4,4.2,0.4,4.2c0.1,0.6,0.2,0.9,9,0.6h1.1
				c0.6,0,1.3-0.4,2.4-0.9l2.6-1.1c1.6-0.6,5.2,1.5,6.4,2.3c1.4,0.9,6.1,1,11.2,1h2.6c1.1,0.2,5.3-1.4,6.6-1.9
				c0.6-0.3,0.8-1,0.8-1.7c0-0.3,0-0.6-0.1-0.9c-0.3-1-0.9-1.6-1.6-1.6c-1.6,0-7.7-0.3-9.8-1.4c-1.3-1.3-3.8-3.2-5.1-4.1L176,261
				c-0.3-0.3-0.9-0.4-2.1-0.6l-2.2-0.4c-0.1,0-0.3-0.1-0.3-0.5v-0.1c0-0.6,0.4-1.2,0.5-1.3c1.2-0.1,8.8-9.7,10.3-12.1
				c8.1-3.4,11-7.9,11-9c0-0.1,0-0.1,0-0.1c0.1-0.3,1-3,3.1-4.5c2.3-1.6,3.8-4.7,3.8-5.6c0-0.1,0-0.1,0-0.1l0,0
				c0-0.5,0.7-3.1,4.4-5.4c3-1.9,5-4.7,5.9-8.4l0.1-0.2c0.1-0.2,0.1-0.6,0.1-1c0-1.2-0.4-2.8-1.8-3.6l-2.1-1.1
				c-0.9-0.4-2.1-1-2.3-1.3v-0.1c0-0.2,0-0.5,0-0.5c0-0.8-0.1-1.8-0.3-2.5c-0.4-1-2.6-2.6-3.3-2.4c-0.3,0-2.8-0.9-5.7-3.4
				c-12.2-9.7-28.5-6.2-28.7-6.2c-1.2,0.7-2.4,1.3-2.7,1.3c-9.3-0.3-14.9,4-16.4,5.3c-0.9,0.8-1.6,1.1-2.2,1c-0.7-0.1-1.1-0.8-1.2-1
				c-0.4-0.8-0.8-1.6-1.7-1.6c-0.2,0-1.2-0.4-2-0.8c0-0.6-0.2-1.8-0.6-2.4c-0.1-0.1-0.1-0.4-0.1-0.7c0-0.4,0.1-0.8,0.3-1.1
				c0.4-0.4,0.5-1.3,0.6-2.7c0.1-0.7,0.1-1.7,0.3-2c0.3-0.4,3-0.8,4.4-1.1l0.9-0.1c1.3-0.2,1.9-0.9,2.2-1.6c1.2,0.8,3.9,1.9,5.8,1.9
				c1.6,0,6-1.6,10.8-3.3l3-1c1-0.2,1.6-1.2,1.9-1.7c0.1-0.2,0.2-0.4,0.3-0.7c0.9,0.6,2,1.5,3.6,2.6c2.3,2.5,12.3,1.5,16.4,0.9
				c1.7,0,4-0.5,5-2.6c0.1-0.1,0.2-0.3,0.5-0.4c0.3-0.1,0.6,0,0.9,0.2c3.4,2.8,6.3,1.2,6.9,0.6l-0.3,0.1c1.5-0.3,2-4.2,2.1-5.3
				c0.2-1.6,1.3-2.5,1.5-2.7h0.1l0.1-0.2l0.7-0.9l1.8-2.4c1.3-2.2,1-14.7,0.9-15.3l-0.9-1.9c-0.3-0.6-0.4-4.1-0.2-7v-0.2l-0.1-0.1
				c0,0-0.7-1.2-1.3-3.1c-0.9-2.9-2.7-7.1-5.8-10.6c-3.6-4.1-13.8-6.3-19.1-5.1c-5.2,1.2-4.9,7.9-4.7,10.8v0.9
				c0,0.7,0.3,1.1,0.6,1.3c0.6,0.4,1.4,0.4,2.1,0.3c-0.1,0.2-0.1,0.4-0.1,0.7c0,0.4,0.1,0.9,0.5,1.2c2.8,2.7,8.3,1.1,10.4,0.5
				l0.6-0.2c0.5,0,1.7-0.3,2.5-1c1.5,1.5,1.7,4.8,1.7,5.6c-2.4,1.1-5.9,5.4-6.2,7.6c-0.2,0.6-0.3,1.5-0.3,2.3s0.1,1.5,0.2,2.3
				c-0.8-1-1.7-2.2-2.6-3.1c-1.7-1.6-3.7-2.2-6.5-1.7c-1.4,0.3-2.6,1.6-3.4,2.6c-0.5-2.7-2.1-6.3-5.8-7.5c-1.9-0.8-5.3-0.9-10.1-0.5
				h-0.3c-1,0.1-2.5,0.6-5.2,3.4c-1.8-2.3-7.2-4.9-8.6-5.6c0-0.3,0-0.6,0-0.9c0-0.9,0-1.7,0.2-1.9c0.1,0,1,0.1,2.5,0.6
				c1.2,0.4,2.4,0,2.9-0.5c0.3-0.3,0.3-0.7,0.2-0.8c0,0.1,0.3-0.7,0.3-0.7l0.1-0.3c0-0.1,0.3-0.2,0.4-0.2c0.5,0,0.9-0.6,1.1-1.1
				v-0.1v-0.2v-0.2c0-0.1-0.1-0.3-0.1-0.4c0.6,0.1,1.1,0.2,1.3-0.2l0.2-0.3l-0.2-0.4l0,0v-0.1c0-0.3,0.2-0.9,0.3-1.1l0.5-0.1
				l0.8-0.2l0.5-0.9l-0.3-1.3c-0.2-0.3-0.7-2.3-1-3.5c0-0.2,0.7-0.8,1-1c0.5-0.5,1-0.8,1-1.2c0.1-0.5,0.3-5.8,0.4-6.4v-0.3l-0.2-0.2
				c-4.1-3.8-16.2,1.6-22.8,4.6l-2.7,1.2c-2.2,0.8-3.4,2.1-4.2,2.9l-0.5,0.5c-0.2,0.1-0.7,0-2.3-0.4c0,0-0.1,0-0.2,0
				c0-0.3,0.2-0.9,1.1-2.4c0.1-0.1,0.2-0.5,0.2-0.5c0.3-0.6,0.9-1.5,1.1-2.8c0,0,0-0.3,0-0.6c0-0.6,0-1.8,0-2c0-1.1,0-1.8-0.2-2.6
				c-0.2-1.5-0.7-2.7-1.7-3.4c-0.4-0.3-0.8-0.4-1.1-0.5c1-1.1,2.7-3.1,4.5-6.8c0.5-1,0.7-1.9,0.7-2.8c0-0.7-0.1-1.3-0.4-1.9
				c-0.2-0.4-0.4-0.7-0.6-1c2.3,0.1,6.6-0.6,7.8-0.9c2.3-0.5,5.3-3.5,7.6-5.8l1.9-1.8c0.6-0.4,1.2-0.3,1.5-0.2
				c0.1,0,0.2,0.2,0.2,0.3c0,0.5-0.7,3-1.1,4.1l-0.3,1.2c0,0.1,0,0.4,0,0.7c0,0.7,0.1,1.7,0.7,2.5c0.5,0.7,1.2,1.1,2,1.2
				c2.4,0.3,3.1,0.6,3.3,0.7c0.1,0.4,0.5,2.3,1.7,3.9l0.1,0.2l0.2,0.1c5.4,1.6,9.8-3.3,11.9-5.6l0.6-0.7c1.8-1.9,0.9-4.3,0-5.4
				C168.4,96.8,158,85,157,85c-0.8,0-5.5-0.2-6.6-0.8l-1.5-0.9c-1.3-0.8-3.2-1.8-4.3-2.3C143.2,80.8,125,81.7,124.1,82.4z
				 M124.9,83.3c1-0.4,18.1-1.3,19.6-0.8c1.1,0.4,2.9,1.4,4.2,2.2l1.6,0.9c1.4,0.7,6.1,0.9,6.9,0.9c1,0.7,10,10.5,10.7,11.5
				c0.1,0.1,0.8,1,0.8,2.1c0,0.6-0.2,1.2-0.7,1.8l-0.6,0.7c-1.9,2.1-5.9,6.6-10.5,5.3c-1-1.5-1.4-3.3-1.4-3.4v-0.1v-0.1
				c-0.1-0.3-0.4-0.7-4.2-1.2c-0.5-0.1-1-0.3-1.3-0.7c-0.4-0.6-0.5-1.4-0.5-1.8c0-0.2,0-0.4,0-0.5l0.3-1.1c0.6-2,1.1-3.8,1.1-4.5
				c0-0.5-0.3-1-0.8-1.3c-0.8-0.4-1.8-0.4-2.7,0.2l-2.1,1.9c-2,2-5,5.1-7,5.5c-3.2,0.6-7.8,1-8.4,0.8c0,0-0.2-0.1-0.5-0.3
				c-1.3-1.1-2.6-1.7-2.7-1.7l-0.5,1c0,0,1.8,1.2,2.5,1.6c0.6,0.6,1.2,1.2,1.6,2.1c0.2,0.5,0.3,1,0.3,1.5c0,0.7-0.2,1.5-0.6,2.3
				c-2.5,5.3-5.1,7.3-5.1,7.4l0.5,1c0,0,0.9-0.2,1.7,0.4c0.7,0.5,1.1,1.4,1.2,2.7c0.2,0.8,0.2,1.5,0.2,2.8v2c-0.2,1-0.7,1.8-1,2.3
				l-0.3,0.6c-1.2,2.1-1.4,2.9-1.1,3.4c0.1,0.3,0.3,0.4,0.6,0.5l0.3,0.1c1.5,0.4,2.5,0.6,3.1,0.3l0.9-0.8c0.7-0.8,1.8-1.9,3.7-2.6
				l2.7-1.2c5.3-2.4,17.6-7.9,21.3-4.9c-0.1,2.2-0.3,5.6-0.3,5.9l-0.6,0.6c-0.7,0.6-1.4,1.2-1.4,1.9c0,0.1,0,0.2,0,0.2
				s0.7,3.4,1.2,3.9c0,0,0.1,0.1,0.1,0.3c0,0.1,0,0.2-0.1,0.3h-0.2l-1,0.3c-0.4,0.3-0.7,1.2-0.7,1.6c0,0,0,0.2,0,0.3
				c-0.1,0-0.2,0-0.2,0c-0.2,0-0.4,0-0.5,0c-0.4-0.1-0.8-0.3-1.2-0.1l-1.1,0.5l1.1,0.5c0.5,0.2,0.5,0.4,0.5,0.6v0.1v0.1
				c-0.1,0.1-0.2,0.3-0.2,0.3c-0.5,0.1-1.1,0.3-1.3,0.8l-0.1,0.3c-0.2,0.5-0.3,0.8-0.4,1.2c-0.2,0.2-0.9,0.4-1.6,0.2
				c-2.8-1-3.4-0.5-3.6-0.4c-0.2,0.1-0.7,0.5-0.5,4v0.3l0.3,0.2c2.2,1,7.9,3.9,8.8,5.8l0.4,0.8l0.6-0.6c2.8-3,4.1-3.4,4.9-3.5h0.3
				c4.6-0.4,7.8-0.3,9.6,0.4c3.8,1.3,5.1,5.6,5.2,7.9l0.1,1.8l0.9-1.5c0.5-0.8,2.1-3,3.5-3.3c2.4-0.4,4,0.1,5.5,1.4
				c1.7,1.6,3.7,4.7,3.9,5.1l1.1-0.4c0,0-1.2-4.6-0.4-6.8c0.3-2.1,3.8-6.3,5.8-7.1l0.4-0.1v-0.4c0-0.2,0.1-5.4-2.5-7.3l-0.5-0.3
				l-0.3,0.5c-0.4,0.6-1.6,1-2.1,1l-0.9,0.2c-1.9,0.6-7,2-9.3-0.2c-0.3-0.2-0.1-1,0.2-1.6l0.6-1.2l-1.3,0.4
				c-0.6,0.2-1.7,0.4-2.1,0.1c0,0-0.2-0.1-0.2-0.4v-0.9c-0.1-2.6-0.5-8.7,3.8-9.6c5.4-1.2,15,1.3,18,4.7c2.9,3.3,4.6,7.4,5.5,10.2
				c0.5,1.7,1.1,2.8,1.3,3.1c0,0.7-0.1,2-0.1,3.4c0,1.7,0.1,3.5,0.4,4.1l0.7,1.6c0,0.3,0.1,1.9,0.1,3.9c0,3.9-0.2,9.5-0.8,10.6
				l-1.6,2.2c0,0-0.5,0.7-0.7,1c-0.3,0.2-1.7,1.4-1.9,3.4c-0.2,2.2-0.9,4.2-1.2,4.4h-0.1l-0.2,0.1c-0.4,0.4-2.6,1.5-5.4-0.8
				c-0.9-0.5-1.5-0.4-1.9-0.3c-0.6,0.2-1,0.6-1.2,1c-0.6,1.3-2,2-4.1,2.1c-6.2,0.9-13.9,1.2-15.6-0.6c-1.9-1.3-3.8-2.7-4.8-3.6
				c-0.4-0.6-0.9-1.3-1.4-1.2l-0.4,0.1v0.6c0,0.2,0,0.4,0.9,1.2c0.2,0.3,0.4,0.6,0.4,0.8l0,0c0,0.3-0.6,1.5-1.4,1.7l-3.1,1.1
				c-3.3,1.2-8.9,3.2-10.5,3.3c-2.1,0.1-5.2-1.5-5.5-1.9c0,0,0,0,0,0.1c0,0-0.4,0-0.7,0.1c-0.2,0-0.4,0-0.4,0c0,0.1-0.1,1.3-1.6,1.6
				l-0.9,0.1c-2.9,0.4-4.7,0.8-5.2,1.6c-0.3,0.5-0.3,1.2-0.4,2.4c-0.1,0.7-0.2,1.8-0.3,2.1c-0.7,0.8-0.7,2.6-0.2,3.2
				c0.2,0.2,0.4,1.5,0.4,2v0.4l0.3,0.2c0.6,0.3,2.2,1,2.8,1c0.2,0,0.4,0.5,0.6,0.9c0.2,0.4,0.8,1.4,2,1.6c1,0.2,2.1-0.2,3.2-1.3
				c1.4-1.3,6.6-5.4,15.5-5.1c0.4,0.1,1.5-0.4,3.2-1.4c0,0,15.8-3.3,27.5,6c2.9,2.5,5.9,3.8,6.7,3.6c0.2,0.1,1.7,1.1,2,1.7
				c0.2,0.5,0.2,1.4,0.3,2.1l0.1,0.9c0.1,0.6,0.8,1,2.9,2l2.1,1c1.3,0.8,1.3,2.9,1.2,3.2l-0.1,0.3c-0.8,3.3-2.6,5.9-5.4,7.7
				c-3.9,2.4-4.9,5.3-4.9,6.4c0,0.1,0,0.1,0,0.2c0,0.4-1.2,3.1-3.4,4.6c-2.3,1.6-3.5,4.6-3.5,5.6l0,0c-0.2,0.7-2.6,4.8-10.5,8.1
				l-0.2,0.1l-0.1,0.2c-1.8,2.9-8.8,11.3-9.7,11.7c-0.7,0.1-1.3,1.2-1.4,2.1c0,0.1,0,0.2,0,0.3c0,0.8,0.4,1.5,1.1,1.7l2.3,0.5
				c0.6,0.1,1.4,0.2,1.6,0.3l0.6,0.5c1.2,0.9,3.9,2.8,5,4.1l0.1,0.1l0.1,0.1c2.7,1.4,10.3,1.6,10.4,1.6c0.1,0,0.3,0.2,0.5,0.8
				c0.1,0.2,0.1,0.5,0.1,0.7c0,0.3-0.1,0.6-0.2,0.6c-2.3,0.9-5.3,1.9-5.9,1.8h-2.8c-3,0-9.4,0-10.6-0.8c-0.5-0.3-5.1-3.3-7.5-2.4
				l-2.7,1.2c-0.8,0.4-1.7,0.8-2,0.8h-1.2c-1.8,0.1-6.9,0.2-7.9,0c-0.1-0.6-0.3-2.1-0.3-3.8c0-1.9,0.3-4,1.2-5.2
				c0.4-0.6,1.3-1.2,2.4-2.1c3.7-2.9,9.9-7.8,12-18.7l0,0c0-0.2-0.7-2.2-0.7-2.2c-0.3-0.8-0.7-1.6-0.7-2.2c0-0.1,0-0.1,0-0.2
				c0.2-1.2,6.4-13,13.5-16.9c1.4-0.2,11.3-2.3,11.8-3l0.3-0.4l-0.4-0.4c-0.7-0.7-10.4-0.6-14.2,2.3c-3.5,2.7-24.8,1.2-26.4,0.4
				l0.2,0.2c-0.5-0.8-21.3-14.8-33.8-23.2c-0.3-0.6-2.3-4.6-2.3-10.1c0-0.1,0-0.2,0-0.3c0-0.2,0-0.5,0-0.7c0-3.2-1.5-4.8-2.5-5.9
				l-2.5-2.8c-2.1-2.3-6.1-6.7-6.4-7.3c-0.6-1.5-0.8-4.9-0.8-8.2c0-3.5,0.2-6.8,0.5-7.3c0.3-0.4,0.7-1,0.7-1.6
				c0-0.4-0.2-0.8-0.6-1.3l-0.4-0.3c-1.3-1.1-4.6-3.9-4.6-11.8c0-0.8,0-1.6,0.1-2.5c0.6-2.2,2.3-3.6,2.6-3.8
				c0.2-0.2,0.4-0.5,0.4-0.9c0-0.1,0-0.1,0-0.2c-0.1-1-0.6-2.8-1.7-3.4c-0.9-0.5-1.1-1.8-1.1-4.6c0.5-2.6,1-5.3,3-6.6
				c1.2-0.8,1.7-1.9,1.7-2.8c0-0.6-0.1-1.1-0.4-1.6c-0.3-0.6-0.9-1.7-0.9-3.5c0-1.1,0.2-2.5,0.9-4.2c1.9-4.4,13.9-19.1,14.7-19.7
				c0.6-0.1,2.6-0.1,3,0.3l1.1,0.5C122.3,84.5,124.3,83.8,124.9,83.3z M148.5,182.4L148.5,182.4L148.5,182.4L148.5,182.4z
				 M152.3,141.8L152.3,141.8c0,0.1,0,0.1,0,0.2C152.3,141.9,152.3,141.9,152.3,141.8z"/>
			<path class="st3" d="M115.8,132.6c-3.2,2.4-3.8,8.8-3.8,14.9c0,2.5,0.1,4.9,0.2,7c0.1,1.3,0.1,2.7,0.1,3.7c0,0.5,0,0.8-0.1,1.1
				c-0.5-0.1-1.4-1-2.7-2.8c-0.9-1.1-1.1-1.4-1.6-1.3c-0.2,0.1-0.4,0.4-0.4,0.6c0,0.9,1.7,9.1,4.3,12.5c2.4,3.1,6.8,16.9,6.8,17
				c0.1,0.3,0.4,0.5,0.7,0.4c0.2-0.1,0.4-0.3,0.4-0.5c0-0.1,0-0.1,0-0.2c-0.2-0.6-4.4-14.1-7-17.4c-1.8-2.3-3.2-7.3-3.8-10
				c1.4,1.8,2.7,3.2,3.9,2.8c0.8-0.2,0.8-1.3,0.5-5.9c-0.3-6.7-0.8-17.9,3.2-20.9c1.2-0.9,2.6-1,4.5-0.3c0.1,0,8.6,0.7,8.6,0.7
				c0.3,0,0.6-0.2,0.6-0.5s-0.2-0.6-0.5-0.6l-8.4-0.7C119.1,131.4,117.3,131.5,115.8,132.6z"/>
			<path class="st3" d="M176.9,164.5c-0.3,0.2-0.4,0.5-0.2,0.8s0.5,0.4,0.8,0.2c2.5-1.4,4.9-1.8,7.1-1.2c3.5,1.1,5.3,4.6,5.3,4.7
				c0.1,0.3,0.5,0.4,0.8,0.3c0.3-0.1,0.4-0.5,0.3-0.8c-0.1-0.2-2-4-6-5.3C182.4,162.5,179.7,163,176.9,164.5z"/>
			<path class="st3" d="M132.8,133.7c0,0.1-2.4,5.3-10.8,14c-4.8,4.3-5,13.2-5,13.6c0.1,1.3,0.6,12.7,0.9,13.9l0.8,2
				c0.4,0.8,0.8,1.8,0.8,2.2l-0.3,2.2l-0.3,1.4l-0.2,0.7c-0.3,1.4-0.8,3.3,1.6,5.5l2,1.8c0.8,0.7,1.9,1.6,1.9,1.9
				c-0.2,0.5-0.4,1,0.1,1.3c0.2,0.1,0.3,0,0.5-0.1c0.1-0.1,0.3-0.2,0.3-0.4l0.2-0.4c0.4-1-0.6-1.8-2.2-3.2l-2-1.7
				c-1.9-1.7-1.5-3.1-1.2-4.4l0.2-0.7l0.3-1.4l0.4-2.4c0-0.7-0.4-1.7-0.9-2.7L119,175c-0.2-0.8-0.6-8.6-0.9-13.7
				c0,0,0.2-8.8,4.7-12.8c8.6-8.9,11-14.2,11.1-14.4c0.1-0.3,0-0.6-0.3-0.8C133.3,133.3,132.9,133.4,132.8,133.7z"/>
			<path class="st3" d="M136.4,138.9c-0.3,0-0.6,0.2-0.6,0.6c0,2.4,0.1,14.3,3,15.7c0.1,0.1,0.3,0.1,0.4,0c0.2-0.1,0.3-0.2,0.3-0.3
				c0.6-1.6,1.6-2.5,2.8-2.7c4.4-0.8,11.4,6.8,11.4,6.9c0.2,0.2,0.4,0.2,0.7,0.1c0.1,0,10.4-4.7,14.5,1.2c0.2,0.3,0.5,0.3,0.8,0.1
				s0.3-0.5,0.1-0.8c-4.4-6.1-13.9-2.4-15.5-1.7c-1.3-1.4-7.6-7.8-12.2-7c-1.4,0.2-2.5,1.3-3.2,2.8c-1.4-1.7-2-9.1-2-14.3
				C137,139.2,136.7,138.9,136.4,138.9z"/>
			<path class="st3" d="M199.2,148.3c-0.3,0.1-0.4,0.5-0.3,0.8c0,0.1,3,6.7-1.5,9.6c-0.3,0.2-0.3,0.5-0.2,0.8
				c0.2,0.3,0.5,0.3,0.8,0.2c5.3-3.4,1.9-11,1.9-11C199.8,148.3,199.4,148.2,199.2,148.3z"/>
			<path class="st3" d="M186.9,221.7c-1.7,4.1-3.8,8.6-4.3,9.1c-0.4,0.2-0.8,0.3-1.1,0.2c-0.2-0.1-0.3-0.5-0.3-0.8
				c-0.1-1.2-0.3-1.9-0.9-2.2c-0.5-0.3-1.1,0-1.6,0.3c-0.9,0.5-8.5,8.2-8.4,9.7c0,0.3,0.3,0.4,0.5,0.5c0.3,0,0.5-0.2,0.6-0.5
				c0.2-1,6.7-7.9,7.9-8.7l0.5-0.2c0,0.1,0.1,1,0.2,1.3c0.1,1,0.6,1.5,1,1.7c0.9,0.4,1.9-0.1,2.2-0.3c0.8-0.5,3.3-6.2,4.7-9.6
				c0.1-0.3,0-0.6-0.3-0.8C187.3,221.2,187,221.4,186.9,221.7z"/>
			<path class="st3" d="M121.8,103.5c-0.3,0-0.5,0.3-0.5,0.6c0,0,0,0,0,0.1c0,0,0.1,0.7,0.1,1.7c0,2.5-0.4,7.2-3.1,10.2
				c-0.1,0.1-0.2,0.3-0.2,0.4s0,0.3,0.1,0.4c2.1,2.7,2.5,9.5,2.5,13.3c0,0.7,0,1.2,0,1.6c-3.2-2.4-5.7-3.1-7.4-2
				c-4.7,2.9-1.8,16.9-1.4,18.5c0.1,0.3,0.4,0.5,0.7,0.4c0.3-0.1,0.5-0.4,0.4-0.7c-0.9-4.1-2.5-15.2,0.9-17.3c1.4-0.9,3.9,0,7,2.5
				c0.2,0.1,0.4,0.2,0.6,0.1c0.2-0.1,0.3-0.3,0.3-0.5c0-0.1,0.1-1.2,0.1-2.8c0-3.8-0.3-10.4-2.5-13.6c2.7-3.2,3.2-7.9,3.2-10.5
				c0-1.1-0.1-1.8-0.1-1.9C122.4,103.7,122.1,103.5,121.8,103.5z"/>
			<g>
				<path class="st4" d="M153.8,98.1c0,0,3.3,1.9,4.1,1.9c0.8-0.1-0.8,1.3,0.4,3c1.1,1.7,1.4,1.9,1.1,2.3c-0.3,0.4-1.1,0.5-1.5,0.4
					s-2.7-3.7-2.8-4.3c-0.1-0.6-3.4,1-3.4-0.5C151.6,99.3,152.3,97.8,153.8,98.1z"/>
				<path class="st3" d="M152.1,98c-0.7,0.6-1,1.7-1,2.8l0.4,0.9c0.6,0.5,1.6,0.3,2.5,0.1c0,0,0.5-0.1,0.7-0.1
					c0.4,1,2.4,4.3,3.1,4.4c0.5,0.1,1.7,0,2.1-0.7c0.4-0.7,0.1-1.1-0.6-2.1l-0.6-0.8c-0.5-0.8-0.3-1.4-0.1-2c0.1-0.3,0.2-0.7,0-1
					c-0.1-0.1-0.3-0.3-0.7-0.3s-2.3-0.9-3.8-1.8H154h-0.1C153.2,97.4,152.6,97.6,152.1,98z M152.3,100.9c-0.1-0.9,0.2-1.6,0.6-2
					c0.2-0.2,0.5-0.3,0.8-0.2c0.9,0.5,2.8,1.6,3.9,1.8c-0.1,0.3-0.2,0.7-0.2,1.2s0.1,1.1,0.5,1.7l0.6,0.8l0.6,0.9
					c-0.1,0.1-0.7,0.2-0.9,0.2c-0.3-0.3-2.3-3.3-2.4-3.9v-0.2l-0.2-0.3c-0.4-0.3-0.8-0.2-1.6,0C153.5,100.8,152.5,101,152.3,100.9z"
					/>
			</g>
			<g>
				<path class="st4" d="M191.5,136.3c0,0-3.8,2.9-5.8,2.4s-1.9-1.3-1.3-1.6c0.6-0.3,2,0.1,2.5-0.3c0.4-0.4,0.3-1.5,0.3-1.5
					S190.9,134.5,191.5,136.3z"/>
				<path class="st3" d="M186.9,134.8l-0.5,0.1l0.1,0.5c0,0.1,0,0.3,0,0.4c0,0.3,0,0.5-0.1,0.6h-0.9l-1.4,0.2
					c-0.5,0.2-0.8,0.6-0.7,1.1c0.1,0.7,0.8,1.2,2.1,1.6c2.2,0.6,5.9-2.2,6.3-2.5l0.3-0.2l-0.1-0.4
					C191.4,133.9,187.4,134.7,186.9,134.8z M190.6,136.2c-1.4,1-3.7,2.2-4.8,1.9s-1.3-0.6-1.3-0.6c0.1,0.1,1,0,1,0
					c0.6,0,1.2,0,1.6-0.3c0.4-0.3,0.5-1,0.5-1.4l0,0C188.7,135.7,190,135.7,190.6,136.2z"/>
			</g>
			<path class="st3" d="M157.6,199.1c-0.3,0.1-0.5,0.4-0.4,0.7s0.4,0.5,0.7,0.4c0.1,0,13.2-3,20.1-2.3c5.3,0.6,11,4.2,13.7,6
				l1.4,0.9c1.5,0.8,4.2,0.6,5.5,0.6h0.5c0.3,0,0.6-0.3,0.6-0.6s-0.3-0.6-0.6-0.5h-0.5c-1.1,0-3.7,0.2-4.9-0.5l-1.3-0.8
				c-2.8-1.8-8.6-5.5-14.2-6.2C171,196,158.2,199,157.6,199.1z"/>
			<path d="M157.4,129.8c-0.2,0.4-0.8,0.5-1.5,0.2s-1.1-0.8-0.9-1.2c0.2-0.4,0.8-0.5,1.5-0.2C157.2,128.9,157.6,129.4,157.4,129.8z"
				/>
		</g>
		<g id="Right_Leg">
			<path class="st1" d="M149.7,218.7c0,0,2.4,11.6,3.4,13.6c1,2.1,1.4,18-5.3,26.6c-6.7,8.6-5.2,11-5.2,11.3s-0.3,1.3-2,1.1
				c-2.5,0-8.4,0.5-8.9,0s-3-2-3.4-2.3c-0.5-0.3-1.4,0.4-2.2,0.8c-0.8,0.5,0,1.5-5.7,1.4s-13.6-0.3-13.6-0.3s-2.9-1.7-4-2.2
				c-1.1-0.6-10.5-1.4-13-0.4c-2.5,0.3-4.5,0.9-5.5,1.8c-0.9,0.8-4.2,1.2-4.8,1.1c-0.6-0.1-5.3-1.3-6.3-1.4s-7.3,0.1-10,1.7
				c-2.7,1.7-5.4,2.4-5.9,2.8c-0.6,0.4-2.2,0.4-2.2-0.4c-0.3-0.6-0.2-2.5,1.1-4.9c0,0,1.3-2.8,4.1-3.4c2.8-0.7,11.6-1.8,15.5-8.4
				c3.2-5.6,4.6-5.3,4.9-5.2s3-0.5,5.2,2.9c2.1,3.3,2.3,4.2,3,4.2c0.6,0,10.2-2.1,10.8-2.2c0.7-0.1,0.4-2.9,2-3.5
				c1.7-0.6,4.8-2.5,7.3-2.4s10.7-0.8,14.9,1.1c4.2,1.9,3.8,3,5.4,3c2.7,0.8,2.5-2.3,2.3-3c-0.2-0.6-1.9-3.4-3.1-3.5
				c-1.1-0.1-3.8-0.7-5-5.7s-4.3-12.6-4.2-13.5c0.1-0.9-0.5-3,1.4-5.7c1.9-2.8,2-3.7,1.6-4.6c-0.5-0.9-6.5-6.2-3.3-13.3
				c3.1-7.1,16.1-5.6,16.1-5.6s6.5,0.3,7,2.8c0.8,3.5,1.2,6.4,1.9,6.8c0,0,3.4,3.8,4,4.5C148.6,214.9,149.7,218.4,149.7,218.7z"/>
			<path d="M118.6,205.5c-2.8,6.3,1.3,11.3,2.8,13.2l0.5,0.6c0.3,0.6,0.4,1.2-1.5,4.1c-1.6,2.4-1.5,4.2-1.5,5.4v0.6
				c0,0.5,0.3,1.7,1.5,5.1c0.9,2.7,2.1,6,2.7,8.6c1.2,5.1,4,6,5.5,6.2c0.7,0.1,2.4,2.5,2.5,3.1c0.1,0.3,0.2,1.6-0.3,2.1
				c-0.1,0.1-0.4,0.4-1.3,0.1c-0.7,0-0.9-0.2-1.4-0.6c-0.6-0.5-1.6-1.3-3.8-2.4c-3.3-1.6-9-1.4-12.7-1.2l-2.5,0.1
				c-2-0.1-4.4,1-6.1,1.8l-1.4,0.6c-1.3,0.5-1.6,1.9-1.9,2.9c0,0-0.2,0.6-0.2,0.7c-0.5,0.1-3.3,0.7-3.3,0.7
				c-2.6,0.6-6.9,1.5-7.3,1.5c-0.1-0.1-0.5-0.7-0.9-1.4l-1.5-2.5c-2-3.1-4.6-3.1-5.4-3.1c-1.4-0.4-3.3,1.4-5.7,5.4
				c-3.4,5.7-10.6,7.2-14.1,7.9l-1.1,0.2c-3,0.7-4.4,3.6-4.5,3.7c-0.9,1.7-1.3,3.3-1.3,4.4c0,0.4,0.1,0.6,0.2,0.8
				c0,0.4,0.2,0.7,0.6,0.9c0.7,0.3,1.9,0.3,2.5-0.1l1.1-0.4c1.2-0.5,3-1.2,4.8-2.3c2.4-1.5,8.4-1.8,9.7-1.7l4,0.9l2.2,0.5
				c0.7,0.1,4.2-0.3,5.3-1.3c0.8-0.7,2.8-1.3,5.1-1.6c2.5-1,11.7-0.2,12.6,0.3l4.1,2.3h0.1l13.6,0.3c4.4,0.1,5.2-0.5,5.8-1.2
				l0.2-0.2l0.4-0.2c0.4-0.2,1.1-0.6,1.3-0.6c0.8,0.5,2.9,1.9,3.3,2.2c0.4,0.4,1.5,0.5,6.2,0.3l3.1-0.1c0.9,0.1,1.6-0.1,2-0.5
				l0.7-1.3l-0.1-0.1c-0.5-1.9,1.3-5.7,5.1-10.7c6.9-8.9,6.4-25,5.3-27.2c-0.8-1.6-2.6-9.5-3.4-13.5v0.1c0-0.4-1.1-4-1.8-4.8l-4-4.6
				c-0.4-0.4-0.8-2.1-1.1-3.7l-0.6-2.9c-0.6-2.8-6.8-3.2-7.6-3.2C134.7,199.4,121.9,198,118.6,205.5z M122.3,217.9
				c-1.6-1.9-5.2-6.3-2.7-12c3-6.6,15.4-5.3,15.5-5.3c2.4,0.1,6.2,0.8,6.5,2.3l0.6,2.9c0.6,2.7,0.8,3.8,1.4,4.3l0,0l3.9,4.4
				c0.4,0.6,1.5,3.8,1.5,4.2l0,0c0.1,0.5,2.4,11.7,3.5,13.8c0.3,0.6,0.5,2.4,0.5,5c0,5.8-1.2,15.2-5.7,21c-3.6,4.7-5.4,8.2-5.4,10.6
				c0,0.4,0,0.7,0.1,1l-0.2,0.3c-0.2,0.2-0.7,0.3-1.2,0.2c-0.1,0-3.2,0.1-3.2,0.1c-2,0.1-5,0.2-5.5,0c-0.5-0.5-3.4-2.3-3.4-2.3
				c-0.7-0.4-1.5,0.1-2.4,0.6l-0.4,0.2l-0.6,0.5c-0.3,0.3-0.7,0.9-4.9,0.8c0,0-12.7-0.3-13.5-0.3c-0.3-0.1-3.9-2.2-3.9-2.2
				c-1.4-0.7-10.8-1.5-13.4-0.4c-2.5,0.3-4.6,0.9-5.6,1.9c-0.7,0.7-3.8,1.1-4.4,1l-2.1-0.5l-4.2-0.9c-1.1-0.1-7.5,0.1-10.3,1.8
				c-1.7,1.1-3.5,1.8-4.7,2.2l-1.3,0.6c-0.3,0.2-1.2,0.2-1.4,0c-0.2-0.4-0.2-2.1,1.1-4.6c0,0,1.2-2.6,3.7-3.1l1.1-0.2
				c3.6-0.8,11.2-2.3,14.9-8.5c3-5.1,4.2-4.9,4.2-4.9h0.4c0.8,0,2.8,0,4.4,2.6l1.5,2.5c0.8,1.4,1.2,1.9,1.9,1.9
				c0.4,0,2.6-0.5,7.5-1.5l3.4-0.7c0.6-0.1,0.8-0.8,1-1.5c0.2-0.8,0.4-1.8,1.2-2.1l1.5-0.6c1.6-0.8,3.9-1.8,5.6-1.7l2.5-0.1
				c3.4-0.1,9.1-0.3,12.1,1.1c2.1,1,3,1.7,3.6,2.2s1,0.9,2,0.9c1.1,0.3,1.8-0.1,2.2-0.5c1-1,0.7-2.8,0.6-3.2c-0.2-0.7-2-3.8-3.5-3.9
				c-1.2-0.1-3.4-0.9-4.5-5.3c-0.6-2.7-1.8-6-2.7-8.8c-0.7-2-1.4-4.2-1.4-4.6v-0.8c0-1.1-0.1-2.6,1.3-4.7c1.9-2.8,2.2-4,1.6-5.2
				C122.9,218.8,122.3,217.9,122.3,217.9z M54.7,274.2V274l0,0V274.2z"/>
			<path class="st3" d="M142.3,216.3c-0.3,0-0.5,0.3-0.5,0.6c0.1,1.1,0.7,6.7,1.7,7.8c0.8,0.9,2,5.8,1,8.3c-0.8,2-3.1,11.2-2.3,12.2
				c0.2,0.2,0.6,0.2,0.8,0l1.9-1.5c0.2-0.1,0.3-0.2,0.5-0.3c0.3,1.9,0.7,6.2,0.7,7.9c0,0.3,0,0.5,0,0.6s0,0.1,0,0.2
				c0,0.2,0.1,0.5,0.4,0.5c0.3,0.1,0.6,0,0.7-0.3c0.3-0.8-0.5-9.9-0.9-10.4c-0.2-0.2-0.7,0-1,0.2l-0.9,0.7c0,0-0.6,0.5-1.1,0.9
				c0.2-2.3,1.5-8.1,2.4-10.3c0.3-0.8,0.5-1.8,0.5-2.9c0-2.7-0.9-5.7-1.7-6.6c-0.5-0.5-1.1-4.1-1.4-7.2
				C142.9,216.5,142.6,216.3,142.3,216.3z"/>
			<path class="st3" d="M107.2,255.4c-0.5,0.5-1.3,0.3-1.3,0.3c-0.3-0.1-0.6,0.2-0.7,0.5c0,0.3,0.2,0.6,0.5,0.6c0,0,1.4,0.2,2.3-0.7
				c0.4-0.4,1.6-0.7,3.6-0.5c2.5,0.3,4.7,1.2,5.2,2.1c1,2,4.4,2.7,5.8,2.8c0.4,0,0.8,0,1-0.4c0.1-0.1,0-0.4,0-0.5
				c-0.1-0.3,0.1-2.1,0.4-3.5c0.1-0.3-0.2-0.6-0.5-0.7c-0.3-0.1-0.6,0.2-0.7,0.5c-0.3,1.9-0.4,2.9-0.4,3.5c0,0,0,0,0,0.1
				c-1.1,0-4-0.6-4.7-2.1c-0.8-1.6-3.6-2.5-6.1-2.8C110.6,254.4,108.1,254.3,107.2,255.4z M122.5,259.8
				C122.5,259.8,122.5,259.7,122.5,259.8L122.5,259.8C122.5,259.9,122.5,259.8,122.5,259.8z"/>
		</g>
		<path d="M124,193.6c0,0-11,3-11.9,7.2c-1.5,6.9,0,11.6,0,11.6s2.9,5,3.4,5s6.8,1.6,7.1,1.6c0.4,0,26.5-2.9,26.5-2.9s1.7-6.6,1-9.3
			c-5.4-5.3-8.4-9.5-10.2-10.8C138.2,194.7,127.4,192.9,124,193.6z"/>
		<path id="Hair_00000124156612176330870390000003815435216932483977_" d="M134.6,129c0,0-3-6.4-1.4-10.7c1.6-4.3,7.1-8.1,9.3-8.5
			s2.7-1.4,9.6,2c6.9,3.4,8.6,5.8,8.6,5.8s0.7,4-1.7,5.1s-5.4-0.7-6.6-0.5c-1.2,0.2-2.1-0.1-2.9,2.6c-0.8,2.6-1.1,4.5-1.1,4.5
			s-0.4-4.5-1.9-4.7c-1.4-0.2-4.5-0.6-4.4,2.1c0.1,2.7,0.5,2.5,0.5,2.5s-1.3,0.4-2.1,0s-1.2,0.4-1,0.4
			C139.8,129.8,135.2,130.2,134.6,129z"/>
	</g>
</g>
</svg>
